ISO-10303-21;
HEADER;
FILE_DESCRIPTION (( 'STEP AP203' ),
    '1' );
FILE_NAME ('GBT_6170-2000.STEP',
    '2026-05-10T15:00:09',
    ( '' ),
    ( '' ),
    'SwSTEP 2.0',
    'SolidWorks 2022',
    '' );
FILE_SCHEMA (( 'CONFIG_CONTROL_DESIGN' ));
ENDSEC;

DATA;
#1 = ORIENTED_EDGE ( 'NONE', *, *, #581, .T. ) ;
#2 = ORIENTED_EDGE ( 'NONE', *, *, #59, .F. ) ;
#3 = PERSON_AND_ORGANIZATION ( #637, #289 ) ;
#4 = ORIENTED_EDGE ( 'NONE', *, *, #258, .F. ) ;
#5 = EDGE_LOOP ( 'NONE', ( #597, #535, #460, #423 ) ) ;
#6 = EDGE_CURVE ( 'NONE', #489, #163, #614, .T. ) ;
#7 = CARTESIAN_POINT ( 'NONE',  ( 7.542481666397773843, 9.236876030381629458E-16, -14.80000000000000071 ) ) ;
#8 = CARTESIAN_POINT ( 'NONE',  ( -13.85640646055101932, 3.365937437006366828E-15, -14.80000000000000071 ) ) ;
#9 = DIRECTION ( 'NONE',  ( -0.000000000000000000, -0.000000000000000000, -1.000000000000000000 ) ) ;
#10 = DESIGN_CONTEXT ( 'detailed design', #560, 'design' ) ;
#11 = EDGE_CURVE ( 'NONE', #493, #577, #55, .T. ) ;
#12 = CARTESIAN_POINT ( 'NONE',  ( 12.71901821428607171, 1.970014230462555638, -14.10847849751880290 ) ) ;
#13 = EDGE_LOOP ( 'NONE', ( #650, #635, #217, #265 ) ) ;
#14 = DIRECTION ( 'NONE',  ( -0.000000000000000000, -0.000000000000000000, -1.000000000000000000 ) ) ;
#15 = DIRECTION ( 'NONE',  ( -0.000000000000000000, -0.000000000000000000, -1.000000000000000000 ) ) ;
#16 = VERTEX_POINT ( 'NONE', #464 ) ;
#17 = MANIFOLD_SOLID_BREP ( 'EndChamfer', #330 ) ;
#18 = CARTESIAN_POINT ( 'NONE',  ( -7.542481666397773843, 0.000000000000000000, -14.80000000000000071 ) ) ;
#19 = B_SPLINE_CURVE_WITH_KNOTS ( 'NONE', 3,
 ( #500, #436, #607, #497, #656, #227, #131, #20, #543, #12, #178, #381 ),
 .UNSPECIFIED., .F., .F.,
 ( 4, 2, 2, 2, 2, 4 ),
 ( 2.380729645518178169E-07, 0.003498788443874742155, 0.006997338814784931880, 0.008746614000240029996, 0.01049588918569512898, 0.01399443955660532521 ),
 .UNSPECIFIED. ) ;
#20 = CARTESIAN_POINT ( 'NONE',  ( 11.56141018606732374, 3.975050150587052133, -14.46112263883310867 ) ) ;
#21 = ORIENTED_EDGE ( 'NONE', *, *, #358, .T. ) ;
#22 = CARTESIAN_POINT ( 'NONE',  ( -10.68019625369299774, -5.501357453796938302, -14.58386464917064629 ) ) ;
#23 = LINE ( 'NONE', #385, #44 ) ;
#24 = CARTESIAN_POINT ( 'NONE',  ( 0.5875554173653609880, 12.00000000000000355, -14.58343579245649657 ) ) ;
#25 = ORIENTED_EDGE ( 'NONE', *, *, #611, .F. ) ;
#26 = VECTOR ( 'NONE', #360, 1000.000000000000000 ) ;
#27 = CARTESIAN_POINT ( 'NONE',  ( 0.000000000000000000, 0.000000000000000000, -14.80000000000000071 ) ) ;
#28 = AXIS2_PLACEMENT_3D ( 'NONE', #384, #14, #224 ) ;
#29 = VECTOR ( 'NONE', #408, 1000.000000000000000 ) ;
#30 = APPROVAL_ROLE ( '' ) ;
#31 = CARTESIAN_POINT ( 'NONE',  ( 8.065591476540452831, 10.02998576953744703, -0.6915215024811962596 ) ) ;
#32 = CARTESIAN_POINT ( 'NONE',  ( 10.10441343713352502, 6.498642546203061698, -0.2161353508293601677 ) ) ;
#33 = CARTESIAN_POINT ( 'NONE',  ( 8.932503637757049475, -8.528449860610971101, -14.38858391356341571 ) ) ;
#34 = CARTESIAN_POINT ( 'NONE',  ( -11.62500000000000178, 0.000000000000000000, 1.734723475976807094E-15 ) ) ;
#35 = CARTESIAN_POINT ( 'NONE',  ( 2.938426434559254563, 12.00000000000000533, -14.38600975058504616 ) ) ;
#36 = CARTESIAN_POINT ( 'NONE',  ( 6.917500000000000426, 0.000000000000000000, -0.6249816663977704190 ) ) ;
#37 = ADVANCED_FACE ( 'NONE', ( #45 ), #669, .T. ) ;
#38 = CARTESIAN_POINT ( 'NONE',  ( 11.56141018606732906, -3.975050150587041919, -0.3388773611668933206 ) ) ;
#39 = CARTESIAN_POINT ( 'NONE',  ( 6.928203230275514990, -11.99999999999999645, -14.80000000000000071 ) ) ;
#40 = FACE_BOUND ( 'NONE', #549, .T. ) ;
#41 = DIRECTION ( 'NONE',  ( -0.000000000000000000, -0.000000000000000000, -1.000000000000000000 ) ) ;
#42 = CARTESIAN_POINT ( 'NONE',  ( 6.928203230275505220, 12.00000000000000355, -14.80000000000000071 ) ) ;
#43 = CARTESIAN_POINT ( 'NONE',  ( 13.29007923479015574, -0.9809075287273477661, -0.9613339444279814794 ) ) ;
#44 = VECTOR ( 'NONE', #174, 1000.000000000000114 ) ;
#45 = FACE_OUTER_BOUND ( 'NONE', #428, .T. ) ;
#46 = ORIENTED_EDGE ( 'NONE', *, *, #133, .F. ) ;
#47 = CARTESIAN_POINT ( 'NONE',  ( 13.85640646055102287, 8.908520778923806871E-16, -14.80000000000000071 ) ) ;
#48 = ORIENTED_EDGE ( 'NONE', *, *, #59, .T. ) ;
#49 = CC_DESIGN_DATE_AND_TIME_ASSIGNMENT ( #99, #139, ( #232 ) ) ;
#50 = ORIENTED_EDGE ( 'NONE', *, *, #634, .T. ) ;
#51 = AXIS2_PLACEMENT_3D ( 'NONE', #399, #101, #311 ) ;
#52 = DIRECTION ( 'NONE',  ( 1.000000000000000000, 0.000000000000000000, 0.000000000000000000 ) ) ;
#53 = VERTEX_POINT ( 'NONE', #315 ) ;
#54 = CIRCLE ( 'NONE', #260, 6.917500000000000426 ) ;
#55 = CIRCLE ( 'NONE', #632, 8.000000000000007105 ) ;
#56 = PERSON_AND_ORGANIZATION ( #637, #289 ) ;
#57 = ORIENTED_EDGE ( 'NONE', *, *, #215, .F. ) ;
#58 = VERTEX_POINT ( 'NONE', #363 ) ;
#59 = EDGE_CURVE ( 'NONE', #114, #441, #661, .T. ) ;
#60 = ADVANCED_FACE ( 'NONE', ( #628 ), #73, .T. ) ;
#61 = PERSON_AND_ORGANIZATION_ROLE ( 'design_supplier' ) ;
#62 = PERSON_AND_ORGANIZATION ( #637, #289 ) ;
#63 = AXIS2_PLACEMENT_3D ( 'NONE', #8, #592, #225 ) ;
#64 = CARTESIAN_POINT ( 'NONE',  ( 6.928203230275505220, 12.00000000000000355, -14.80000000000000071 ) ) ;
#65 = APPLICATION_CONTEXT ( 'configuration controlled 3d designs of mechanical parts and assemblies' ) ;
#66 = FACE_OUTER_BOUND ( 'NONE', #119, .T. ) ;
#67 = DIRECTION ( 'NONE',  ( 0.000000000000000000, 0.000000000000000000, 1.000000000000000000 ) ) ;
#68 = ORIENTED_EDGE ( 'NONE', *, *, #382, .T. ) ;
#69 = PLANE ( 'NONE',  #376 ) ;
#70 = PLANE ( 'NONE',  #161 ) ;
#71 = ORIENTED_EDGE ( 'NONE', *, *, #335, .F. ) ;
#72 = CARTESIAN_POINT ( 'NONE',  ( -13.29078434619339077, 0.9796862399519532527, -13.83825895931370020 ) ) ;
#73 = CONICAL_SURFACE ( 'NONE', #51, 11.62500000000000178, 1.047197551196603627 ) ;
#74 = AXIS2_PLACEMENT_3D ( 'NONE', #649, #397, #237 ) ;
#75 = CARTESIAN_POINT ( 'NONE',  ( -6.917500000000000426, 8.471494233101815233E-16, -14.80000000000000071 ) ) ;
#76 = ORIENTED_EDGE ( 'NONE', *, *, #547, .T. ) ;
#77 = CARTESIAN_POINT ( 'NONE',  ( -10.10441343713352680, 6.498642546203064363, -14.58386464917063918 ) ) ;
#78 = DIRECTION ( 'NONE',  ( 1.000000000000000000, 0.000000000000000000, 0.000000000000000000 ) ) ;
#79 = CARTESIAN_POINT ( 'NONE',  ( 6.928203230275517654, -11.99999999999999467, -1.288303120670580393 ) ) ;
#80 = ORIENTED_EDGE ( 'NONE', *, *, #611, .T. ) ;
#81 = PRODUCT ( 'GBT_6170-2000', 'GBT_6170-2000', '', ( #587 ) ) ;
#82 = CARTESIAN_POINT ( 'NONE',  ( -6.928203230275503444, -12.00000000000000355, -1.288303120670580393 ) ) ;
#83 = B_SPLINE_CURVE_WITH_KNOTS ( 'NONE', 3,
 ( #353, #85, #613, #675, #298, #251, #452, #563, #154, #256, #668, #197 ),
 .UNSPECIFIED., .F., .F.,
 ( 4, 2, 2, 2, 2, 4 ),
 ( 0.005114331975361176112, 0.008610849686848951259, 0.01035910854259283753, 0.01210736739833672554, 0.01560388510982450155, 0.01910040282131227757 ),
 .UNSPECIFIED. ) ;
#84 = B_SPLINE_CURVE_WITH_KNOTS ( 'NONE', 3,
 ( #404, #666, #615, #355, #97, #306, #513, #38, #148, #264, #43, #411 ),
 .UNSPECIFIED., .F., .F.,
 ( 4, 2, 2, 2, 2, 4 ),
 ( 2.380729645538574458E-07, 0.003498788443874745625, 0.006997338814784937952, 0.008746614000240036935, 0.01049588918569513245, 0.01399443955660532521 ),
 .UNSPECIFIED. ) ;
#85 = CARTESIAN_POINT ( 'NONE',  ( 5.808296473974269070, -11.99999999999999467, -13.83498611293833669 ) ) ;
#86 = CARTESIAN_POINT ( 'NONE',  ( 12.72103844362271019, 1.966515090608556893, -0.6925947604118061207 ) ) ;
#87 = AXIS2_PLACEMENT_3D ( 'NONE', #515, #505, #510 ) ;
#88 = CARTESIAN_POINT ( 'NONE',  ( 0.000000000000000000, 0.000000000000000000, -0.6249816663977704190 ) ) ;
#89 = VECTOR ( 'NONE', #461, 1000.000000000000000 ) ;
#90 = VECTOR ( 'NONE', #412, 999.9999999999998863 ) ;
#91 = LOCAL_TIME ( 23, 0, 9.000000000000000000, #537 ) ;
#92 = EDGE_CURVE ( 'NONE', #163, #577, #299, .T. ) ;
#93 = CARTESIAN_POINT ( 'NONE',  ( -12.72103844362270308, -1.966515090608555560, -0.6925947604118021239 ) ) ;
#94 = EDGE_CURVE ( 'NONE', #107, #277, #198, .T. ) ;
#95 = CARTESIAN_POINT ( 'NONE',  ( -4.646719482775524490, 12.00000000000000533, -14.10995222697397722 ) ) ;
#96 = ORIENTED_EDGE ( 'NONE', *, *, #457, .T. ) ;
#97 = CARTESIAN_POINT ( 'NONE',  ( 9.796661814811148616, -7.031683992177181430, -0.2172610024629846037 ) ) ;
#98 = CARTESIAN_POINT ( 'NONE',  ( -9.808515933465029590, -7.011152056389688525, -0.2411874177787895202 ) ) ;
#99 = DATE_AND_TIME ( #366, #91 ) ;
#100 = CARTESIAN_POINT ( 'NONE',  ( 1.174911444522769965, 12.00000000000000533, -14.55850518264043458 ) ) ;
#101 = DIRECTION ( 'NONE',  ( -0.000000000000000000, -0.000000000000000000, -1.000000000000000000 ) ) ;
#102 = CARTESIAN_POINT ( 'NONE',  ( -13.85640646055101932, 5.204170427930421283E-15, -13.51169687932941876 ) ) ;
#103 = CARTESIAN_POINT ( 'NONE',  ( 2.938426434559250566, 12.00000000000000711, -0.4139902494149553247 ) ) ;
#104 = LINE ( 'NONE', #468, #417 ) ;
#105 = CARTESIAN_POINT ( 'NONE',  ( -13.85640646055101932, 0.000000000000000000, -1.288303120670580393 ) ) ;
#106 = AXIS2_PLACEMENT_3D ( 'NONE', #186, #432, #78 ) ;
#107 = VERTEX_POINT ( 'NONE', #516 ) ;
#108 = CARTESIAN_POINT ( 'NONE',  ( -10.98794787601538481, -4.968316007822818570, -0.2172610024629813286 ) ) ;
#109 = ORIENTED_EDGE ( 'NONE', *, *, #426, .T. ) ;
#110 = APPROVAL_STATUS ( 'not_yet_approved' ) ;
#111 = ORIENTED_EDGE ( 'NONE', *, *, #598, .T. ) ;
#112 = EDGE_CURVE ( 'NONE', #489, #235, #104, .T. ) ;
#113 = PERSON_AND_ORGANIZATION_ROLE ( 'design_owner' ) ;
#114 = VERTEX_POINT ( 'NONE', #679 ) ;
#115 = ORIENTED_EDGE ( 'NONE', *, *, #231, .T. ) ;
#116 = EDGE_CURVE ( 'NONE', #577, #493, #124, .T. ) ;
#117 = CONICAL_SURFACE ( 'NONE', #176, 6.917500000000000426, 1.047197551196600296 ) ;
#118 = DATE_AND_TIME ( #326, #344 ) ;
#119 = EDGE_LOOP ( 'NONE', ( #183, #287 ) ) ;
#120 = CARTESIAN_POINT ( 'NONE',  ( 0.000000000000000000, 0.000000000000000000, 0.000000000000000000 ) ) ;
#121 = VECTOR ( 'NONE', #398, 1000.000000000000000 ) ;
#122 = CARTESIAN_POINT ( 'NONE',  ( -9.214945315055185660, -8.039246525355610018, -14.48026020232408584 ) ) ;
#123 = CIRCLE ( 'NONE', #106, 6.917500000000000426 ) ;
#124 = CIRCLE ( 'NONE', #434, 8.000000000000007105 ) ;
#125 = CARTESIAN_POINT ( 'NONE',  ( -12.71901821428607882, 1.970014230462549643, -0.6915215024811985911 ) ) ;
#126 = APPROVAL ( #317, '未指定' ) ;
#127 = DIRECTION ( 'NONE',  ( 0.000000000000000000, 0.000000000000000000, 1.000000000000000000 ) ) ;
#128 = CARTESIAN_POINT ( 'NONE',  ( 0.000000000000000000, 0.000000000000000000, 1.734723475976807094E-15 ) ) ;
#129 = VERTEX_POINT ( 'NONE', #354 ) ;
#130 = CARTESIAN_POINT ( 'NONE',  ( -13.85640646055101932, 5.204170427930421283E-15, -13.51169687932941876 ) ) ;
#131 = CARTESIAN_POINT ( 'NONE',  ( 10.97609375736149140, 4.988847943610315916, -14.55881258222120600 ) ) ;
#132 = ORIENTED_EDGE ( 'NONE', *, *, #530, .F. ) ;
#133 = EDGE_CURVE ( 'NONE', #489, #681, #506, .T. ) ;
#134 = CARTESIAN_POINT ( 'NONE',  ( 2.353276327645469124, -11.99999999999999467, -0.3404450384262456830 ) ) ;
#135 =( GEOMETRIC_REPRESENTATION_CONTEXT ( 3 ) GLOBAL_UNCERTAINTY_ASSIGNED_CONTEXT ( ( #595 ) ) GLOBAL_UNIT_ASSIGNED_CONTEXT ( ( #415, #522, #222 ) ) REPRESENTATION_CONTEXT ( 'NONE', 'WORKASPACE' ) );
#136 = FACE_OUTER_BOUND ( 'NONE', #228, .T. ) ;
#137 = DIRECTION ( 'NONE',  ( 0.000000000000000000, -0.000000000000000000, 1.000000000000000000 ) ) ;
#138 = CARTESIAN_POINT ( 'NONE',  ( -6.928203230275505220, 12.00000000000000355, -1.288303120670580393 ) ) ;
#139 = DATE_TIME_ROLE ( 'classification_date' ) ;
#140 = CARTESIAN_POINT ( 'NONE',  ( 7.494530456036374133, 11.01909247127264813, -0.9613339444279789259 ) ) ;
#141 = DIRECTION ( 'NONE',  ( -0.000000000000000000, 0.000000000000000000, -1.000000000000000000 ) ) ;
#142 = DIRECTION ( 'NONE',  ( 0.000000000000000000, 0.000000000000000000, 1.000000000000000000 ) ) ;
#143 = DIRECTION ( 'NONE',  ( -0.8660254037844415942, 0.000000000000000000, -0.4999999999999949485 ) ) ;
#144 = CARTESIAN_POINT ( 'NONE',  ( 0.5875554173653672052, -11.99999999999999822, -0.2165642075435008640 ) ) ;
#145 = ORIENTED_EDGE ( 'NONE', *, *, #571, .F. ) ;
#146 = CARTESIAN_POINT ( 'NONE',  ( 0.000000000000000000, 0.000000000000000000, -14.80000000000000071 ) ) ;
#147 = AXIS2_PLACEMENT_3D ( 'NONE', #128, #393, #333 ) ;
#148 = CARTESIAN_POINT ( 'NONE',  ( 11.85210605306949283, -3.471550139389019574, -0.4114160864365838943 ) ) ;
#149 = EDGE_CURVE ( 'NONE', #478, #421, #591, .T. ) ;
#150 = CARTESIAN_POINT ( 'NONE',  ( 0.000000000000000000, 0.000000000000000000, -14.80000000000000071 ) ) ;
#151 = CARTESIAN_POINT ( 'NONE',  ( 6.917500000000000426, 0.000000000000000000, -14.80000000000000071 ) ) ;
#152 = DIRECTION ( 'NONE',  ( 1.000000000000000000, -2.503857664561931390E-16, 0.000000000000000000 ) ) ;
#153 = CYLINDRICAL_SURFACE ( 'NONE', #684, 6.917500000000000426 ) ;
#154 = CARTESIAN_POINT ( 'NONE',  ( -2.332478525034196171, -11.99999999999999112, -14.48304300597743932 ) ) ;
#155 = ORIENTED_EDGE ( 'NONE', *, *, #496, .F. ) ;
#156 = LINE ( 'NONE', #319, #585 ) ;
#157 = B_SPLINE_CURVE_WITH_KNOTS ( 'NONE', 3,
 ( #105, #357, #93, #573, #108, #208, #98, #616, #570, #629, #160, #202 ),
 .UNSPECIFIED., .F., .F.,
 ( 4, 2, 2, 2, 2, 4 ),
 ( 2.380729645539493224E-07, 0.003498788443874751262, 0.006997338814784948360, 0.008746614000240045608, 0.01049588918569514459, 0.01399443955660533562 ),
 .UNSPECIFIED. ) ;
#158 = DIRECTION ( 'NONE',  ( -0.000000000000000000, -0.000000000000000000, -1.000000000000000000 ) ) ;
#159 = AXIS2_PLACEMENT_3D ( 'NONE', #443, #538, #485 ) ;
#160 = CARTESIAN_POINT ( 'NONE',  ( -7.494530456036368804, -11.01909247127264990, -0.9613339444279774826 ) ) ;
#161 = AXIS2_PLACEMENT_3D ( 'NONE', #64, #280, #67 ) ;
#162 = VERTEX_POINT ( 'NONE', #502 ) ;
#163 = VERTEX_POINT ( 'NONE', #243 ) ;
#164 = APPROVAL_ROLE ( '' ) ;
#165 = EDGE_LOOP ( 'NONE', ( #291, #325, #369, #544 ) ) ;
#166 = EDGE_CURVE ( 'NONE', #266, #58, #553, .T. ) ;
#167 = EDGE_LOOP ( 'NONE', ( #57, #481, #220, #1, #416, #386 ) ) ;
#168 = ORIENTED_EDGE ( 'NONE', *, *, #598, .F. ) ;
#169 = ORIENTED_EDGE ( 'NONE', *, *, #634, .F. ) ;
#170 = CIRCLE ( 'NONE', #210, 11.62500000000000178 ) ;
#171 = APPROVAL_DATE_TIME ( #377, #662 ) ;
#172 = CARTESIAN_POINT ( 'NONE',  ( -6.928203230275505220, 12.00000000000000355, -13.51169687932941876 ) ) ;
#173 = CC_DESIGN_PERSON_AND_ORGANIZATION_ASSIGNMENT ( #379, #328, ( #232 ) ) ;
#174 = DIRECTION ( 'NONE',  ( -0.8660254037844398178, 1.060575238724908394E-16, 0.4999999999999978351 ) ) ;
#175 = CARTESIAN_POINT ( 'NONE',  ( -8.063571247203810799, -10.03348490939144533, -14.10740523958819459 ) ) ;
#176 = AXIS2_PLACEMENT_3D ( 'NONE', #445, #394, #594 ) ;
#177 = AXIS2_PLACEMENT_3D ( 'NONE', #150, #618, #203 ) ;
#178 = CARTESIAN_POINT ( 'NONE',  ( 13.29007923479015041, 0.9809075287273568700, -13.83866605557201446 ) ) ;
#179 = ORIENTED_EDGE ( 'NONE', *, *, #335, .T. ) ;
#180 = CARTESIAN_POINT ( 'NONE',  ( -12.71901821428607526, -1.970014230462546090, -14.10847849751880645 ) ) ;
#181 = ADVANCED_FACE ( 'NONE', ( #193 ), #476, .F. ) ;
#182 = CARTESIAN_POINT ( 'NONE',  ( -8.000000000000007105, 9.797174393178835518E-16, 0.000000000000000000 ) ) ;
#183 = ORIENTED_EDGE ( 'NONE', *, *, #646, .T. ) ;
#184 = EDGE_CURVE ( 'NONE', #107, #129, #83, .T. ) ;
#185 = FACE_BOUND ( 'NONE', #374, .T. ) ;
#186 = CARTESIAN_POINT ( 'NONE',  ( 0.000000000000000000, 0.000000000000000000, -0.6249816663977704190 ) ) ;
#187 = FACE_OUTER_BOUND ( 'NONE', #13, .T. ) ;
#188 = CONICAL_SURFACE ( 'NONE', #147, 11.62500000000000178, 1.047197551196603627 ) ;
#189 = CARTESIAN_POINT ( 'NONE',  ( -13.85640646055101932, 0.000000000000000000, -1.288303120670580393 ) ) ;
#190 = LINE ( 'NONE', #310, #121 ) ;
#191 = CARTESIAN_POINT ( 'NONE',  ( 0.000000000000000000, 0.000000000000000000, 0.000000000000000000 ) ) ;
#192 = CARTESIAN_POINT ( 'NONE',  ( 12.72103844362271552, -1.966515090608551342, -14.10740523958819459 ) ) ;
#193 = FACE_OUTER_BOUND ( 'NONE', #339, .T. ) ;
#194 = CARTESIAN_POINT ( 'NONE',  ( 9.223199504759202583, 8.024949849412955416, -0.3388773611668900454 ) ) ;
#195 = CARTESIAN_POINT ( 'NONE',  ( 6.928203230275518543, -11.99999999999999645, -13.51169687932941876 ) ) ;
#196 = CC_DESIGN_PERSON_AND_ORGANIZATION_ASSIGNMENT ( #3, #61, ( #605 ) ) ;
#197 = CARTESIAN_POINT ( 'NONE',  ( -6.928203230275502555, -12.00000000000000711, -13.51169687932941876 ) ) ;
#198 = LINE ( 'NONE', #568, #29 ) ;
#199 = DIRECTION ( 'NONE',  ( 1.000000000000000000, 0.000000000000000000, 0.000000000000000000 ) ) ;
#200 = AXIS2_PLACEMENT_3D ( 'NONE', #27, #671, #400 ) ;
#201 = CC_DESIGN_APPROVAL ( #387, ( #605 ) ) ;
#202 = CARTESIAN_POINT ( 'NONE',  ( -6.928203230275503444, -12.00000000000000355, -1.288303120670580393 ) ) ;
#203 = DIRECTION ( 'NONE',  ( -1.000000000000000000, 0.000000000000000000, 0.000000000000000000 ) ) ;
#204 = DIRECTION ( 'NONE',  ( -0.5000000000000001110, -0.8660254037844385966, 0.000000000000000000 ) ) ;
#205 = CYLINDRICAL_SURFACE ( 'NONE', #200, 6.917500000000000426 ) ;
#206 = CARTESIAN_POINT ( 'NONE',  ( -6.917500000000000426, 8.471494233101815233E-16, -13.71749999999998515 ) ) ;
#207 = CARTESIAN_POINT ( 'NONE',  ( 0.000000000000000000, 0.000000000000000000, -14.80000000000000071 ) ) ;
#208 = CARTESIAN_POINT ( 'NONE',  ( -10.10441343713351792, -6.498642546203061698, -0.2161353508293570591 ) ) ;
#209 = EDGE_LOOP ( 'NONE', ( #168, #320, #238, #179 ) ) ;
#210 = AXIS2_PLACEMENT_3D ( 'NONE', #281, #9, #336 ) ;
#211 = CALENDAR_DATE ( 2026, 10, 5 ) ;
#212 = CC_DESIGN_APPROVAL ( #126, ( #232 ) ) ;
#213 = ORIENTED_EDGE ( 'NONE', *, *, #382, .F. ) ;
#214 = ADVANCED_FACE ( 'NONE', ( #40, #407 ), #304, .T. ) ;
#215 = EDGE_CURVE ( 'NONE', #478, #580, #294, .T. ) ;
#216 = EDGE_CURVE ( 'NONE', #114, #16, #392, .T. ) ;
#217 = ORIENTED_EDGE ( 'NONE', *, *, #92, .T. ) ;
#218 = ORIENTED_EDGE ( 'NONE', *, *, #6, .T. ) ;
#219 = APPROVAL_STATUS ( 'not_yet_approved' ) ;
#220 = ORIENTED_EDGE ( 'NONE', *, *, #571, .T. ) ;
#221 = EDGE_LOOP ( 'NONE', ( #444, #273, #324, #470, #109, #378 ) ) ;
#222 =( NAMED_UNIT ( * ) SI_UNIT ( $, .STERADIAN. ) SOLID_ANGLE_UNIT ( ) );
#223 = LOCAL_TIME ( 23, 0, 9.000000000000000000, #372 ) ;
#224 = DIRECTION ( 'NONE',  ( -1.000000000000000000, 0.000000000000000000, 0.000000000000000000 ) ) ;
#225 = DIRECTION ( 'NONE',  ( 0.5000000000000003331, -0.8660254037844384856, 0.000000000000000000 ) ) ;
#226 = CARTESIAN_POINT ( 'NONE',  ( -9.796661814811136182, -7.031683992177184095, -14.58273899753701386 ) ) ;
#227 = CARTESIAN_POINT ( 'NONE',  ( 10.68019625369299952, 5.501357453796943631, -14.58386464917063741 ) ) ;
#228 = EDGE_LOOP ( 'NONE', ( #601, #252, #536, #48 ) ) ;
#229 = AXIS2_PLACEMENT_3D ( 'NONE', #207, #158, #555 ) ;
#230 = CARTESIAN_POINT ( 'NONE',  ( 2.938426434559257672, -11.99999999999999467, -0.4139902494149522716 ) ) ;
#231 = EDGE_CURVE ( 'NONE', #681, #305, #190, .T. ) ;
#232 = SECURITY_CLASSIFICATION ( '', '', #279 ) ;
#233 = EDGE_CURVE ( 'NONE', #511, #277, #240, .T. ) ;
#234 = FACE_OUTER_BOUND ( 'NONE', #167, .T. ) ;
#235 = VERTEX_POINT ( 'NONE', #7 ) ;
#236 = DIRECTION ( 'NONE',  ( 0.000000000000000000, 0.000000000000000000, 1.000000000000000000 ) ) ;
#237 = DIRECTION ( 'NONE',  ( 1.000000000000000000, 0.000000000000000000, 0.000000000000000000 ) ) ;
#238 = ORIENTED_EDGE ( 'NONE', *, *, #581, .F. ) ;
#239 = CARTESIAN_POINT ( 'NONE',  ( 5.808296473974266405, -11.99999999999999645, -0.9650138870616611353 ) ) ;
#240 = B_SPLINE_CURVE_WITH_KNOTS ( 'NONE', 3,
 ( #247, #608, #348, #557, #664, #144, #540, #134, #230, #657, #239, #439 ),
 .UNSPECIFIED., .F., .F.,
 ( 4, 2, 2, 2, 2, 4 ),
 ( 0.01232750543401123396, 0.01583279788956472312, 0.01933809034511821054, 0.02109073657289495599, 0.02284338280067169796, 0.02634867525622518886 ),
 .UNSPECIFIED. ) ;
#241 = CARTESIAN_POINT ( 'NONE',  ( 11.62500000000000178, 0.000000000000000000, -14.80000000000000071 ) ) ;
#242 = CARTESIAN_POINT ( 'NONE',  ( 2.353276327645459798, 12.00000000000000711, -14.45955496157374931 ) ) ;
#243 = CARTESIAN_POINT ( 'NONE',  ( 6.917500000000000426, 0.000000000000000000, -0.6249816663977704190 ) ) ;
#244 = AXIS2_PLACEMENT_3D ( 'NONE', #39, #524, #561 ) ;
#245 = VECTOR ( 'NONE', #413, 1000.000000000000114 ) ;
#246 = DIRECTION ( 'NONE',  ( 0.8660254037844415942, 0.000000000000000000, 0.4999999999999949485 ) ) ;
#247 = CARTESIAN_POINT ( 'NONE',  ( -6.928203230275503444, -12.00000000000000355, -1.288303120670580393 ) ) ;
#248 = CARTESIAN_POINT ( 'NONE',  ( -6.928203230275507885, 12.00000000000000355, -14.80000000000000071 ) ) ;
#249 = CARTESIAN_POINT ( 'NONE',  ( 7.494530456036380350, -11.01909247127264102, -13.83866605557201623 ) ) ;
#250 = DIRECTION ( 'NONE',  ( 0.8660254037844415942, 1.060575238724910613E-16, -0.4999999999999949485 ) ) ;
#251 = CARTESIAN_POINT ( 'NONE',  ( 1.174911444522778403, -11.99999999999999645, -14.55850518264043814 ) ) ;
#252 = ORIENTED_EDGE ( 'NONE', *, *, #528, .F. ) ;
#253 = VERTEX_POINT ( 'NONE', #442 ) ;
#254 = CARTESIAN_POINT ( 'NONE',  ( 13.85640646055101932, 0.000000000000000000, -13.51169687932941876 ) ) ;
#255 = DIRECTION ( 'NONE',  ( 0.000000000000000000, 0.000000000000000000, 1.000000000000000000 ) ) ;
#256 = CARTESIAN_POINT ( 'NONE',  ( -4.646719482775519161, -11.99999999999999645, -14.10995222697398077 ) ) ;
#257 = DIRECTION ( 'NONE',  ( -0.000000000000000000, 0.000000000000000000, -1.000000000000000000 ) ) ;
#258 = EDGE_CURVE ( 'NONE', #129, #580, #641, .T. ) ;
#259 = CARTESIAN_POINT ( 'NONE',  ( 13.85640646055101932, 9.540979117872439019E-15, -13.51169687932941876 ) ) ;
#260 = AXIS2_PLACEMENT_3D ( 'NONE', #492, #15, #345 ) ;
#261 = CARTESIAN_POINT ( 'NONE',  ( -2.332478525034199279, 12.00000000000000533, -0.3169569940225644422 ) ) ;
#262 = PERSON_AND_ORGANIZATION ( #637, #289 ) ;
#263 = DIRECTION ( 'NONE',  ( 1.000000000000000000, 0.000000000000000000, 0.000000000000000000 ) ) ;
#264 = CARTESIAN_POINT ( 'NONE',  ( 12.71901821428607526, -1.970014230462545202, -0.6915215024811998124 ) ) ;
#265 = ORIENTED_EDGE ( 'NONE', *, *, #11, .F. ) ;
#266 = VERTEX_POINT ( 'NONE', #484 ) ;
#267 = CARTESIAN_POINT ( 'NONE',  ( 5.808296473974256635, 12.00000000000001066, -0.9650138870616622455 ) ) ;
#268 = ORIENTED_EDGE ( 'NONE', *, *, #337, .F. ) ;
#269 = ADVANCED_FACE ( 'NONE', ( #554 ), #490, .F. ) ;
#270 = AXIS2_PLACEMENT_3D ( 'NONE', #346, #590, #551 ) ;
#271 = APPROVAL_ROLE ( '' ) ;
#272 = CC_DESIGN_SECURITY_CLASSIFICATION ( #232, ( #605 ) ) ;
#273 = ORIENTED_EDGE ( 'NONE', *, *, #647, .T. ) ;
#274 = ADVANCED_BREP_SHAPE_REPRESENTATION ( 'GBT_6170-2000', ( #17, #617 ), #135 ) ;
#275 = PRODUCT_RELATED_PRODUCT_CATEGORY ( 'detail', '', ( #81 ) ) ;
#276 = PERSON_AND_ORGANIZATION_ROLE ( 'creator' ) ;
#277 = VERTEX_POINT ( 'NONE', #79 ) ;
#278 = ORIENTED_EDGE ( 'NONE', *, *, #426, .F. ) ;
#279 = SECURITY_CLASSIFICATION_LEVEL ( 'unclassified' ) ;
#280 = DIRECTION ( 'NONE',  ( 0.000000000000000000, 1.000000000000000000, -0.000000000000000000 ) ) ;
#281 = CARTESIAN_POINT ( 'NONE',  ( 0.000000000000000000, 0.000000000000000000, 1.734723475976807094E-15 ) ) ;
#282 = CARTESIAN_POINT ( 'NONE',  ( -7.493825344633137320, 11.02031376004805807, -0.9617410406862993977 ) ) ;
#283 = VERTEX_POINT ( 'NONE', #599 ) ;
#284 = CARTESIAN_POINT ( 'NONE',  ( -13.29007923479015219, -0.9809075287273484323, -13.83866605557201623 ) ) ;
#285 = ADVANCED_FACE ( 'NONE', ( #187 ), #117, .F. ) ;
#286 = FACE_OUTER_BOUND ( 'NONE', #609, .T. ) ;
#287 = ORIENTED_EDGE ( 'NONE', *, *, #149, .T. ) ;
#288 = CARTESIAN_POINT ( 'NONE',  ( -9.808515933465029590, 7.011152056389690301, -14.55881258222120245 ) ) ;
#289 = ORGANIZATION ( '未指定', '未指定', '' ) ;
#290 = CARTESIAN_POINT ( 'NONE',  ( -9.796661814811139735, 7.031683992177184095, -0.2172610024629847980 ) ) ;
#291 = ORIENTED_EDGE ( 'NONE', *, *, #356, .F. ) ;
#292 = LINE ( 'NONE', #332, #409 ) ;
#293 = CARTESIAN_POINT ( 'NONE',  ( -6.928203230275505220, 12.00000000000000355, -1.288303120670580393 ) ) ;
#294 = LINE ( 'NONE', #660, #90 ) ;
#295 = DIRECTION ( 'NONE',  ( -0.8660254037844385966, 0.5000000000000001110, 0.000000000000000000 ) ) ;
#296 = DIRECTION ( 'NONE',  ( -2.503857664561931390E-16, -1.000000000000000000, 0.000000000000000000 ) ) ;
#297 = EDGE_CURVE ( 'NONE', #580, #114, #520, .T. ) ;
#298 = CARTESIAN_POINT ( 'NONE',  ( 2.353276327645469568, -11.99999999999999467, -14.45955496157375286 ) ) ;
#299 = LINE ( 'NONE', #36, #245 ) ;
#300 = CIRCLE ( 'NONE', #74, 7.542481666397773843 ) ;
#301 = CARTESIAN_POINT ( 'NONE',  ( 10.98794787601539191, -4.968316007822814129, -14.58273899753701208 ) ) ;
#302 = PLANE ( 'NONE',  #244 ) ;
#303 = CALENDAR_DATE ( 2026, 10, 5 ) ;
#304 = PLANE ( 'NONE',  #87 ) ;
#305 = VERTEX_POINT ( 'NONE', #18 ) ;
#306 = CARTESIAN_POINT ( 'NONE',  ( 10.68019625369301018, -5.501357453796935637, -0.2161353508293607506 ) ) ;
#307 = PLANE ( 'NONE',  #475 ) ;
#308 = DATE_AND_TIME ( #303, #586 ) ;
#309 = ADVANCED_FACE ( 'NONE', ( #606 ), #465, .T. ) ;
#310 = CARTESIAN_POINT ( 'NONE',  ( -7.542481666397773843, 0.000000000000000000, -14.80000000000000071 ) ) ;
#311 = DIRECTION ( 'NONE',  ( -1.000000000000000000, 0.000000000000000000, 0.000000000000000000 ) ) ;
#312 = ADVANCED_FACE ( 'NONE', ( #185, #66 ), #69, .F. ) ;
#313 = CARTESIAN_POINT ( 'NONE',  ( 11.56966437577133888, -3.960753474644386429, -14.48026020232408229 ) ) ;
#314 = CARTESIAN_POINT ( 'NONE',  ( 1.174911444522769743, 12.00000000000000533, -0.2414948173595653502 ) ) ;
#315 = CARTESIAN_POINT ( 'NONE',  ( -11.62500000000000178, 0.000000000000000000, 1.734723475976807094E-15 ) ) ;
#316 = VECTOR ( 'NONE', #559, 1000.000000000000000 ) ;
#317 = APPROVAL_STATUS ( 'not_yet_approved' ) ;
#318 = ORIENTED_EDGE ( 'NONE', *, *, #297, .T. ) ;
#319 = CARTESIAN_POINT ( 'NONE',  ( 11.62500000000000178, 1.423651904008798267E-15, 1.734723475976807094E-15 ) ) ;
#320 = ORIENTED_EDGE ( 'NONE', *, *, #94, .F. ) ;
#321 = DATE_AND_TIME ( #211, #331 ) ;
#322 = ORIENTED_EDGE ( 'NONE', *, *, #457, .F. ) ;
#323 = PERSON_AND_ORGANIZATION_ROLE ( 'creator' ) ;
#324 = ORIENTED_EDGE ( 'NONE', *, *, #166, .T. ) ;
#325 = ORIENTED_EDGE ( 'NONE', *, *, #375, .T. ) ;
#326 = CALENDAR_DATE ( 2026, 10, 5 ) ;
#327 = ORIENTED_EDGE ( 'NONE', *, *, #545, .F. ) ;
#328 = PERSON_AND_ORGANIZATION_ROLE ( 'classification_officer' ) ;
#329 = AXIS2_PLACEMENT_3D ( 'NONE', #472, #368, #462 ) ;
#330 = CLOSED_SHELL ( 'NONE', ( #334, #269, #425, #309, #512, #622, #531, #405, #37, #455, #670, #312, #214, #651, #479, #60, #181, #285 ) ) ;
#331 = LOCAL_TIME ( 23, 0, 9.000000000000000000, #533 ) ;
#332 = CARTESIAN_POINT ( 'NONE',  ( 13.85640646055102287, 8.908520778923806871E-16, -14.80000000000000071 ) ) ;
#333 = DIRECTION ( 'NONE',  ( -1.000000000000000000, 0.000000000000000000, 0.000000000000000000 ) ) ;
#334 = ADVANCED_FACE ( 'NONE', ( #343 ), #648, .F. ) ;
#335 = EDGE_CURVE ( 'NONE', #162, #266, #292, .T. ) ;
#336 = DIRECTION ( 'NONE',  ( -1.000000000000000000, 0.000000000000000000, 0.000000000000000000 ) ) ;
#337 = EDGE_CURVE ( 'NONE', #619, #53, #170, .T. ) ;
#338 = CARTESIAN_POINT ( 'NONE',  ( -11.85210605306948395, 3.471550139389022682, -0.4114160864365822845 ) ) ;
#339 = EDGE_LOOP ( 'NONE', ( #371, #322, #115, #132 ) ) ;
#340 = CARTESIAN_POINT ( 'NONE',  ( -12.72103844362270841, 1.966515090608560445, -14.10740523958819814 ) ) ;
#341 = CARTESIAN_POINT ( 'NONE',  ( 0.000000000000000000, 0.000000000000000000, -13.51169687932941876 ) ) ;
#342 = ORIENTED_EDGE ( 'NONE', *, *, #530, .T. ) ;
#343 = FACE_OUTER_BOUND ( 'NONE', #165, .T. ) ;
#344 = LOCAL_TIME ( 23, 0, 9.000000000000000000, #427 ) ;
#345 = DIRECTION ( 'NONE',  ( 1.000000000000000000, 0.000000000000000000, 0.000000000000000000 ) ) ;
#346 = CARTESIAN_POINT ( 'NONE',  ( 0.000000000000000000, 0.000000000000000000, -0.6249816663977704190 ) ) ;
#347 = DIRECTION ( 'NONE',  ( 0.000000000000000000, 0.000000000000000000, 1.000000000000000000 ) ) ;
#348 = CARTESIAN_POINT ( 'NONE',  ( -4.646719482775518273, -11.99999999999999289, -0.6900477730260186071 ) ) ;
#349 = DIRECTION ( 'NONE',  ( 0.4999999999999969469, 6.123233995736729058E-17, -0.8660254037844403729 ) ) ;
#350 = FACE_OUTER_BOUND ( 'NONE', #584, .T. ) ;
#351 = VECTOR ( 'NONE', #572, 1000.000000000000000 ) ;
#352 = LINE ( 'NONE', #509, #449 ) ;
#353 = CARTESIAN_POINT ( 'NONE',  ( 6.928203230275518543, -11.99999999999999645, -13.51169687932941876 ) ) ;
#354 = CARTESIAN_POINT ( 'NONE',  ( -6.928203230275502555, -12.00000000000000711, -13.51169687932941876 ) ) ;
#355 = CARTESIAN_POINT ( 'NONE',  ( 9.214945315055199870, -8.039246525355604689, -0.3197397976759150384 ) ) ;
#356 = EDGE_CURVE ( 'NONE', #283, #163, #123, .T. ) ;
#357 = CARTESIAN_POINT ( 'NONE',  ( -13.29078434619338900, -0.9796862399519478126, -0.9617410406862979544 ) ) ;
#358 = EDGE_CURVE ( 'NONE', #305, #235, #300, .T. ) ;
#359 = CARTESIAN_POINT ( 'NONE',  ( -6.928203230275505220, 12.00000000000000355, -13.51169687932941876 ) ) ;
#360 = DIRECTION ( 'NONE',  ( 0.000000000000000000, 0.000000000000000000, 1.000000000000000000 ) ) ;
#361 = LINE ( 'NONE', #466, #367 ) ;
#362 = DIRECTION ( 'NONE',  ( 0.000000000000000000, 0.000000000000000000, 1.000000000000000000 ) ) ;
#363 = CARTESIAN_POINT ( 'NONE',  ( 6.928203230275507885, 12.00000000000000178, -1.288303120670580393 ) ) ;
#364 = CARTESIAN_POINT ( 'NONE',  ( -4.646719482775520937, 12.00000000000000533, -0.6900477730260243803 ) ) ;
#365 = ORIENTED_EDGE ( 'NONE', *, *, #337, .T. ) ;
#366 = CALENDAR_DATE ( 2026, 10, 5 ) ;
#367 = VECTOR ( 'NONE', #142, 1000.000000000000000 ) ;
#368 = DIRECTION ( 'NONE',  ( -0.000000000000000000, -0.000000000000000000, -1.000000000000000000 ) ) ;
#369 = ORIENTED_EDGE ( 'NONE', *, *, #116, .F. ) ;
#370 = APPLICATION_PROTOCOL_DEFINITION ( 'international standard', 'config_control_design', 1994, #560 ) ;
#371 = ORIENTED_EDGE ( 'NONE', *, *, #112, .F. ) ;
#372 = COORDINATED_UNIVERSAL_TIME_OFFSET ( 8, 0, .AHEAD. ) ;
#373 = ORIENTED_EDGE ( 'NONE', *, *, #297, .F. ) ;
#374 = EDGE_LOOP ( 'NONE', ( #21, #342 ) ) ;
#375 = EDGE_CURVE ( 'NONE', #283, #493, #23, .T. ) ;
#376 = AXIS2_PLACEMENT_3D ( 'NONE', #391, #137, #603 ) ;
#377 = DATE_AND_TIME ( #640, #223 ) ;
#378 = ORIENTED_EDGE ( 'NONE', *, *, #625, .F. ) ;
#379 = PERSON_AND_ORGANIZATION ( #637, #289 ) ;
#380 = DIRECTION ( 'NONE',  ( 1.000000000000000000, 0.000000000000000000, 0.000000000000000000 ) ) ;
#381 = CARTESIAN_POINT ( 'NONE',  ( 13.85640646055101932, 9.540979117872439019E-15, -13.51169687932941876 ) ) ;
#382 = EDGE_CURVE ( 'NONE', #16, #162, #19, .T. ) ;
#383 = CIRCLE ( 'NONE', #532, 6.917500000000000426 ) ;
#384 = CARTESIAN_POINT ( 'NONE',  ( 0.000000000000000000, 0.000000000000000000, -14.80000000000000071 ) ) ;
#385 = CARTESIAN_POINT ( 'NONE',  ( -6.917500000000000426, 8.471494233101815233E-16, -0.6249816663977704190 ) ) ;
#386 = ORIENTED_EDGE ( 'NONE', *, *, #258, .T. ) ;
#387 = APPROVAL ( #110, '未指定' ) ;
#388 = CARTESIAN_POINT ( 'NONE',  ( -13.85640646055101932, 5.204170427930421283E-15, -13.51169687932941876 ) ) ;
#389 = CARTESIAN_POINT ( 'NONE',  ( -10.68019625369300485, 5.501357453796940966, -0.2161353508293605841 ) ) ;
#390 = EDGE_LOOP ( 'NONE', ( #155, #96, #218, #76 ) ) ;
#391 = CARTESIAN_POINT ( 'NONE',  ( 13.85640646055102110, 3.374683541052329005E-15, -14.80000000000000071 ) ) ;
#392 = B_SPLINE_CURVE_WITH_KNOTS ( 'NONE', 3,
 ( #359, #567, #95, #463, #501, #24, #100, #242, #35, #447, #402, #459 ),
 .UNSPECIFIED., .F., .F.,
 ( 4, 2, 2, 2, 2, 4 ),
 ( 0.01232750543401124610, 0.01583279788956473005, 0.01933809034511821401, 0.02109073657289495946, 0.02284338280067169796, 0.02634867525622518886 ),
 .UNSPECIFIED. ) ;
#393 = DIRECTION ( 'NONE',  ( -0.000000000000000000, -0.000000000000000000, -1.000000000000000000 ) ) ;
#394 = DIRECTION ( 'NONE',  ( 0.000000000000000000, 0.000000000000000000, 1.000000000000000000 ) ) ;
#395 = APPROVAL_PERSON_ORGANIZATION ( #480, #387, #271 ) ;
#396 = B_SPLINE_CURVE_WITH_KNOTS ( 'NONE', 3,
 ( #259, #663, #192, #313, #301, #621, #456, #508, #33, #565, #249, #195 ),
 .UNSPECIFIED., .F., .F.,
 ( 4, 2, 2, 2, 2, 4 ),
 ( 2.380729645452633701E-07, 0.003498788443874739119, 0.006997338814784933615, 0.008746614000240029996, 0.01049588918569512724, 0.01399443955660532174 ),
 .UNSPECIFIED. ) ;
#397 = DIRECTION ( 'NONE',  ( 0.000000000000000000, -0.000000000000000000, 1.000000000000000000 ) ) ;
#398 = DIRECTION ( 'NONE',  ( -0.4999999999999969469, 0.000000000000000000, -0.8660254037844403729 ) ) ;
#399 = CARTESIAN_POINT ( 'NONE',  ( 0.000000000000000000, 0.000000000000000000, 1.734723475976807094E-15 ) ) ;
#400 = DIRECTION ( 'NONE',  ( 1.000000000000000000, 0.000000000000000000, 0.000000000000000000 ) ) ;
#401 = DIRECTION ( 'NONE',  ( 1.000000000000000000, 0.000000000000000000, 0.000000000000000000 ) ) ;
#402 = CARTESIAN_POINT ( 'NONE',  ( 5.808296473974256635, 12.00000000000000355, -13.83498611293833491 ) ) ;
#403 = CARTESIAN_POINT ( 'NONE',  ( 8.932503637757047699, 8.528449860610974653, -0.4114160864365807857 ) ) ;
#404 = CARTESIAN_POINT ( 'NONE',  ( 6.928203230275517654, -11.99999999999999467, -1.288303120670580393 ) ) ;
#405 = ADVANCED_FACE ( 'NONE', ( #286 ), #604, .T. ) ;
#406 = DIRECTION ( 'NONE',  ( -0.5000000000000004441, 0.8660254037844383745, 0.000000000000000000 ) ) ;
#407 = FACE_OUTER_BOUND ( 'NONE', #523, .T. ) ;
#408 = DIRECTION ( 'NONE',  ( 0.000000000000000000, 0.000000000000000000, 1.000000000000000000 ) ) ;
#409 = VECTOR ( 'NONE', #127, 1000.000000000000000 ) ;
#410 = LINE ( 'NONE', #42, #316 ) ;
#411 = CARTESIAN_POINT ( 'NONE',  ( 13.85640646055102287, 8.908520778923806871E-16, -1.288303120670580393 ) ) ;
#412 = DIRECTION ( 'NONE',  ( -0.8660254037844415942, 1.060575238724910613E-16, 0.4999999999999949485 ) ) ;
#413 = DIRECTION ( 'NONE',  ( 0.8660254037844398178, 0.000000000000000000, 0.4999999999999978351 ) ) ;
#414 = CARTESIAN_POINT ( 'NONE',  ( 0.000000000000000000, 0.000000000000000000, 0.000000000000000000 ) ) ;
#415 =( LENGTH_UNIT ( ) NAMED_UNIT ( * ) SI_UNIT ( .MILLI., .METRE. ) );
#416 = ORIENTED_EDGE ( 'NONE', *, *, #184, .T. ) ;
#417 = VECTOR ( 'NONE', #349, 1000.000000000000000 ) ;
#418 = CC_DESIGN_DATE_AND_TIME_ASSIGNMENT ( #118, #579, ( #487 ) ) ;
#419 = VECTOR ( 'NONE', #246, 999.9999999999998863 ) ;
#420 = PERSON_AND_ORGANIZATION ( #637, #289 ) ;
#421 = VERTEX_POINT ( 'NONE', #241 ) ;
#422 = APPLICATION_PROTOCOL_DEFINITION ( 'international standard', 'config_control_design', 1994, #65 ) ;
#423 = ORIENTED_EDGE ( 'NONE', *, *, #6, .F. ) ;
#424 = ORIENTED_EDGE ( 'NONE', *, *, #454, .F. ) ;
#425 = ADVANCED_FACE ( 'NONE', ( #596 ), #188, .T. ) ;
#426 = EDGE_CURVE ( 'NONE', #441, #253, #642, .T. ) ;
#427 = COORDINATED_UNIVERSAL_TIME_OFFSET ( 8, 0, .AHEAD. ) ;
#428 = EDGE_LOOP ( 'NONE', ( #278, #2, #373, #80 ) ) ;
#429 = VECTOR ( 'NONE', #143, 999.9999999999998863 ) ;
#430 = PERSON_AND_ORGANIZATION ( #637, #289 ) ;
#431 = CARTESIAN_POINT ( 'NONE',  ( -11.56966437577133355, 3.960753474644396643, -14.48026020232408229 ) ) ;
#432 = DIRECTION ( 'NONE',  ( 0.000000000000000000, 0.000000000000000000, 1.000000000000000000 ) ) ;
#433 = CARTESIAN_POINT ( 'NONE',  ( -9.223199504759202583, 8.024949849412957192, -14.46112263883310867 ) ) ;
#434 = AXIS2_PLACEMENT_3D ( 'NONE', #191, #141, #453 ) ;
#435 = CC_DESIGN_PERSON_AND_ORGANIZATION_ASSIGNMENT ( #62, #323, ( #487 ) ) ;
#436 = CARTESIAN_POINT ( 'NONE',  ( 7.493825344633136432, 11.02031376004806162, -13.83825895931370376 ) ) ;
#437 = EDGE_LOOP ( 'NONE', ( #477, #633, #318, #620, #68, #145 ) ) ;
#438 = CONICAL_SURFACE ( 'NONE', #494, 13.85640646055101932, 1.047197551196603627 ) ;
#439 = CARTESIAN_POINT ( 'NONE',  ( 6.928203230275517654, -11.99999999999999467, -1.288303120670580393 ) ) ;
#440 = DIRECTION ( 'NONE',  ( 1.000000000000000000, 0.000000000000000000, 0.000000000000000000 ) ) ;
#441 = VERTEX_POINT ( 'NONE', #293 ) ;
#442 = CARTESIAN_POINT ( 'NONE',  ( -13.85640646055101932, 0.000000000000000000, -1.288303120670580393 ) ) ;
#443 = CARTESIAN_POINT ( 'NONE',  ( 0.000000000000000000, 0.000000000000000000, 1.734723475976807094E-15 ) ) ;
#444 = ORIENTED_EDGE ( 'NONE', *, *, #454, .T. ) ;
#445 = CARTESIAN_POINT ( 'NONE',  ( 0.000000000000000000, 0.000000000000000000, -0.6249816663977704190 ) ) ;
#446 = CARTESIAN_POINT ( 'NONE',  ( -11.56141018606732196, 3.975050150587047249, -0.3388773611668916552 ) ) ;
#447 = CARTESIAN_POINT ( 'NONE',  ( 4.673664758034985489, 12.00000000000000533, -14.10425136133270385 ) ) ;
#448 = CARTESIAN_POINT ( 'NONE',  ( 13.29078434619339610, 0.9796862399519495890, -0.9617410406863008410 ) ) ;
#449 = VECTOR ( 'NONE', #255, 1000.000000000000000 ) ;
#450 = CARTESIAN_POINT ( 'NONE',  ( 8.000000000000007105, 0.000000000000000000, 0.000000000000000000 ) ) ;
#451 = SHAPE_DEFINITION_REPRESENTATION ( #589, #274 ) ;
#452 = CARTESIAN_POINT ( 'NONE',  ( 0.5875554173653688705, -11.99999999999999289, -14.58343579245649657 ) ) ;
#453 = DIRECTION ( 'NONE',  ( 1.000000000000000000, 0.000000000000000000, 0.000000000000000000 ) ) ;
#454 = EDGE_CURVE ( 'NONE', #53, #619, #550, .T. ) ;
#455 = ADVANCED_FACE ( 'NONE', ( #136 ), #70, .T. ) ;
#456 = CARTESIAN_POINT ( 'NONE',  ( 9.808515933465040249, -7.011152056389684972, -14.55881258222120778 ) ) ;
#457 = EDGE_CURVE ( 'NONE', #681, #489, #54, .T. ) ;
#458 = LINE ( 'NONE', #34, #429 ) ;
#459 = CARTESIAN_POINT ( 'NONE',  ( 6.928203230275505220, 12.00000000000000355, -13.51169687932941876 ) ) ;
#460 = ORIENTED_EDGE ( 'NONE', *, *, #356, .T. ) ;
#461 = DIRECTION ( 'NONE',  ( 0.000000000000000000, 0.000000000000000000, 1.000000000000000000 ) ) ;
#462 = DIRECTION ( 'NONE',  ( -1.000000000000000000, 0.000000000000000000, 0.000000000000000000 ) ) ;
#463 = CARTESIAN_POINT ( 'NONE',  ( -2.332478525034200612, 12.00000000000000178, -14.48304300597743222 ) ) ;
#464 = CARTESIAN_POINT ( 'NONE',  ( 6.928203230275505220, 12.00000000000000355, -13.51169687932941876 ) ) ;
#465 = CONICAL_SURFACE ( 'NONE', #483, 13.85640646055101932, 1.047197551196603627 ) ;
#466 = CARTESIAN_POINT ( 'NONE',  ( -6.928203230275506996, -11.99999999999999289, -14.80000000000000071 ) ) ;
#467 = DIRECTION ( 'NONE',  ( 0.8660254037844383745, 0.5000000000000004441, -0.000000000000000000 ) ) ;
#468 = CARTESIAN_POINT ( 'NONE',  ( 7.542481666397773843, 9.236876030381629458E-16, -14.80000000000000071 ) ) ;
#469 = CARTESIAN_POINT ( 'NONE',  ( 2.353276327645458910, 12.00000000000000533, -0.3404450384262490137 ) ) ;
#470 = ORIENTED_EDGE ( 'NONE', *, *, #672, .T. ) ;
#471 = EDGE_LOOP ( 'NONE', ( #46, #526, #683, #654 ) ) ;
#472 = CARTESIAN_POINT ( 'NONE',  ( 0.000000000000000000, 0.000000000000000000, -14.80000000000000071 ) ) ;
#473 = EDGE_LOOP ( 'NONE', ( #636, #71, #213, #529 ) ) ;
#474 = AXIS2_PLACEMENT_3D ( 'NONE', #627, #41, #519 ) ;
#475 = AXIS2_PLACEMENT_3D ( 'NONE', #47, #467, #406 ) ;
#476 = CONICAL_SURFACE ( 'NONE', #177, 7.542481666397773843, 0.5235987755982953740 ) ;
#477 = ORIENTED_EDGE ( 'NONE', *, *, #149, .F. ) ;
#478 = VERTEX_POINT ( 'NONE', #600 ) ;
#479 = ADVANCED_FACE ( 'NONE', ( #234 ), #438, .T. ) ;
#480 = PERSON_AND_ORGANIZATION ( #637, #289 ) ;
#481 = ORIENTED_EDGE ( 'NONE', *, *, #646, .F. ) ;
#482 = ORIENTED_EDGE ( 'NONE', *, *, #184, .F. ) ;
#483 = AXIS2_PLACEMENT_3D ( 'NONE', #542, #236, #380 ) ;
#484 = CARTESIAN_POINT ( 'NONE',  ( 13.85640646055102287, 8.908520778923806871E-16, -1.288303120670580393 ) ) ;
#485 = DIRECTION ( 'NONE',  ( -1.000000000000000000, 0.000000000000000000, 0.000000000000000000 ) ) ;
#486 = CARTESIAN_POINT ( 'NONE',  ( -11.56141018606732374, -3.975050150587042808, -14.46112263883310867 ) ) ;
#487 = PRODUCT_DEFINITION ( '未知', '', #605, #10 ) ;
#488 = CARTESIAN_POINT ( 'NONE',  ( -8.063571247203817904, 10.03348490939145066, -0.6925947604118061207 ) ) ;
#489 = VERTEX_POINT ( 'NONE', #653 ) ;
#490 = CONICAL_SURFACE ( 'NONE', #28, 7.542481666397773843, 0.5235987755982953740 ) ;
#491 = CARTESIAN_POINT ( 'NONE',  ( -6.928203230275502555, -12.00000000000000711, -13.51169687932941876 ) ) ;
#492 = CARTESIAN_POINT ( 'NONE',  ( 0.000000000000000000, 0.000000000000000000, -13.71749999999998515 ) ) ;
#493 = VERTEX_POINT ( 'NONE', #182 ) ;
#494 = AXIS2_PLACEMENT_3D ( 'NONE', #341, #552, #440 ) ;
#495 = CARTESIAN_POINT ( 'NONE',  ( -8.932503637757042370, 8.528449860610978206, -14.38858391356341571 ) ) ;
#496 = EDGE_CURVE ( 'NONE', #681, #283, #548, .T. ) ;
#497 = CARTESIAN_POINT ( 'NONE',  ( 9.214945315055190989, 8.039246525355617123, -14.48026020232408229 ) ) ;
#498 = ORIENTED_EDGE ( 'NONE', *, *, #233, .T. ) ;
#499 = CARTESIAN_POINT ( 'NONE',  ( -10.98794787601538658, 4.968316007822820346, -14.58273899753701563 ) ) ;
#500 = CARTESIAN_POINT ( 'NONE',  ( 6.928203230275505220, 12.00000000000000355, -13.51169687932941876 ) ) ;
#501 = CARTESIAN_POINT ( 'NONE',  ( -1.168960120184192819, 12.00000000000000533, -14.58360905888890002 ) ) ;
#502 = CARTESIAN_POINT ( 'NONE',  ( 13.85640646055101932, 9.540979117872439019E-15, -13.51169687932941876 ) ) ;
#503 = LINE ( 'NONE', #254, #419 ) ;
#504 = COORDINATED_UNIVERSAL_TIME_OFFSET ( 8, 0, .AHEAD. ) ;
#505 = DIRECTION ( 'NONE',  ( 0.000000000000000000, -0.000000000000000000, 1.000000000000000000 ) ) ;
#506 = CIRCLE ( 'NONE', #474, 6.917500000000000426 ) ;
#507 = CARTESIAN_POINT ( 'NONE',  ( 10.98794787601538481, 4.968316007822820346, -0.2172610024629847980 ) ) ;
#508 = CARTESIAN_POINT ( 'NONE',  ( 9.223199504759207912, -8.024949849412948311, -14.46112263883310867 ) ) ;
#509 = CARTESIAN_POINT ( 'NONE',  ( -13.85640646055101932, 3.365937437006366828E-15, -14.80000000000000071 ) ) ;
#510 = DIRECTION ( 'NONE',  ( 1.000000000000000000, 0.000000000000000000, -0.000000000000000000 ) ) ;
#511 = VERTEX_POINT ( 'NONE', #82 ) ;
#512 = ADVANCED_FACE ( 'NONE', ( #677 ), #205, .F. ) ;
#513 = CARTESIAN_POINT ( 'NONE',  ( 10.97609375736149673, -4.988847943610305258, -0.2411874177787934059 ) ) ;
#514 = CARTESIAN_POINT ( 'NONE',  ( 6.928203230275507885, 12.00000000000000178, -1.288303120670580393 ) ) ;
#515 = CARTESIAN_POINT ( 'NONE',  ( 13.85640646055102110, 3.374683541052329005E-15, 0.000000000000000000 ) ) ;
#516 = CARTESIAN_POINT ( 'NONE',  ( 6.928203230275518543, -11.99999999999999645, -13.51169687932941876 ) ) ;
#517 = DIRECTION ( 'NONE',  ( 0.000000000000000000, -0.000000000000000000, 1.000000000000000000 ) ) ;
#518 = CARTESIAN_POINT ( 'NONE',  ( 0.5875554173653583234, 12.00000000000000355, -0.2165642075435054992 ) ) ;
#519 = DIRECTION ( 'NONE',  ( 1.000000000000000000, 0.000000000000000000, 0.000000000000000000 ) ) ;
#520 = B_SPLINE_CURVE_WITH_KNOTS ( 'NONE', 3,
 ( #130, #72, #340, #431, #499, #77, #288, #433, #495, #655, #643, #172 ),
 .UNSPECIFIED., .F., .F.,
 ( 4, 2, 2, 2, 2, 4 ),
 ( 2.380729645535872423E-07, 0.003498788443874746492, 0.006997338814784938819, 0.008746614000240036935, 0.01049588918569513592, 0.01399443955660532521 ),
 .UNSPECIFIED. ) ;
#521 = APPROVAL_PERSON_ORGANIZATION ( #420, #662, #164 ) ;
#522 =( NAMED_UNIT ( * ) PLANE_ANGLE_UNIT ( ) SI_UNIT ( $, .RADIAN. ) );
#523 = EDGE_LOOP ( 'NONE', ( #424, #268 ) ) ;
#524 = DIRECTION ( 'NONE',  ( 0.8660254037844387076, -0.4999999999999999445, 0.000000000000000000 ) ) ;
#525 = ORIENTED_EDGE ( 'NONE', *, *, #94, .T. ) ;
#526 = ORIENTED_EDGE ( 'NONE', *, *, #112, .T. ) ;
#527 = APPROVAL_DATE_TIME ( #321, #387 ) ;
#528 = EDGE_CURVE ( 'NONE', #16, #58, #410, .T. ) ;
#529 = ORIENTED_EDGE ( 'NONE', *, *, #528, .T. ) ;
#530 = EDGE_CURVE ( 'NONE', #235, #305, #575, .T. ) ;
#531 = ADVANCED_FACE ( 'NONE', ( #350 ), #610, .T. ) ;
#532 = AXIS2_PLACEMENT_3D ( 'NONE', #88, #347, #556 ) ;
#533 = COORDINATED_UNIVERSAL_TIME_OFFSET ( 8, 0, .AHEAD. ) ;
#534 = ORIENTED_EDGE ( 'NONE', *, *, #116, .T. ) ;
#535 = ORIENTED_EDGE ( 'NONE', *, *, #496, .T. ) ;
#536 = ORIENTED_EDGE ( 'NONE', *, *, #216, .F. ) ;
#537 = COORDINATED_UNIVERSAL_TIME_OFFSET ( 8, 0, .AHEAD. ) ;
#538 = DIRECTION ( 'NONE',  ( -0.000000000000000000, -0.000000000000000000, -1.000000000000000000 ) ) ;
#539 = CC_DESIGN_PERSON_AND_ORGANIZATION_ASSIGNMENT ( #56, #276, ( #605 ) ) ;
#540 = CARTESIAN_POINT ( 'NONE',  ( 1.174911444522778625, -11.99999999999999467, -0.2414948173595611869 ) ) ;
#541 = CARTESIAN_POINT ( 'NONE',  ( -13.29007923479015751, 0.9809075287273536503, -0.9613339444279810353 ) ) ;
#542 = CARTESIAN_POINT ( 'NONE',  ( 0.000000000000000000, 0.000000000000000000, -13.51169687932941876 ) ) ;
#543 = CARTESIAN_POINT ( 'NONE',  ( 11.85210605306948217, 3.471550139389028011, -14.38858391356341748 ) ) ;
#544 = ORIENTED_EDGE ( 'NONE', *, *, #92, .F. ) ;
#545 = EDGE_CURVE ( 'NONE', #129, #511, #361, .T. ) ;
#546 = CARTESIAN_POINT ( 'NONE',  ( -10.97609375736148962, -4.988847943610309699, -14.55881258222120955 ) ) ;
#547 = EDGE_CURVE ( 'NONE', #163, #283, #383, .T. ) ;
#548 = LINE ( 'NONE', #75, #89 ) ;
#549 = EDGE_LOOP ( 'NONE', ( #534, #588 ) ) ;
#550 = CIRCLE ( 'NONE', #159, 11.62500000000000178 ) ;
#551 = DIRECTION ( 'NONE',  ( 1.000000000000000000, 0.000000000000000000, 0.000000000000000000 ) ) ;
#552 = DIRECTION ( 'NONE',  ( 0.000000000000000000, 0.000000000000000000, 1.000000000000000000 ) ) ;
#553 = B_SPLINE_CURVE_WITH_KNOTS ( 'NONE', 3,
 ( #558, #448, #86, #564, #507, #32, #665, #194, #403, #31, #140, #626 ),
 .UNSPECIFIED., .F., .F.,
 ( 4, 2, 2, 2, 2, 4 ),
 ( 2.380729645511434199E-07, 0.003498788443874748227, 0.006997338814784945758, 0.008746614000240043874, 0.01049588918569513939, 0.01399443955660532694 ),
 .UNSPECIFIED. ) ;
#554 = FACE_OUTER_BOUND ( 'NONE', #471, .T. ) ;
#555 = DIRECTION ( 'NONE',  ( -1.000000000000000000, 0.000000000000000000, 0.000000000000000000 ) ) ;
#556 = DIRECTION ( 'NONE',  ( 1.000000000000000000, 0.000000000000000000, 0.000000000000000000 ) ) ;
#557 = CARTESIAN_POINT ( 'NONE',  ( -2.332478525034194394, -11.99999999999998934, -0.3169569940225586691 ) ) ;
#558 = CARTESIAN_POINT ( 'NONE',  ( 13.85640646055102287, 8.908520778923806871E-16, -1.288303120670580393 ) ) ;
#559 = DIRECTION ( 'NONE',  ( 0.000000000000000000, 0.000000000000000000, 1.000000000000000000 ) ) ;
#560 = APPLICATION_CONTEXT ( 'configuration controlled 3d designs of mechanical parts and assemblies' ) ;
#561 = DIRECTION ( 'NONE',  ( 0.4999999999999999445, 0.8660254037844387076, 0.000000000000000000 ) ) ;
#562 = CC_DESIGN_PERSON_AND_ORGANIZATION_ASSIGNMENT ( #430, #113, ( #81 ) ) ;
#563 = CARTESIAN_POINT ( 'NONE',  ( -1.168960120184187046, -11.99999999999999645, -14.58360905888891246 ) ) ;
#564 = CARTESIAN_POINT ( 'NONE',  ( 11.56966437577133888, 3.960753474644391314, -0.3197397976759153160 ) ) ;
#565 = CARTESIAN_POINT ( 'NONE',  ( 8.065591476540465266, -10.02998576953744703, -14.10847849751880467 ) ) ;
#566 = FACE_OUTER_BOUND ( 'NONE', #473, .T. ) ;
#567 = CARTESIAN_POINT ( 'NONE',  ( -5.801156280751002647, 12.00000000000000533, -13.83704730917812498 ) ) ;
#568 = CARTESIAN_POINT ( 'NONE',  ( 6.928203230275514990, -11.99999999999999645, -14.80000000000000071 ) ) ;
#569 = CARTESIAN_POINT ( 'NONE',  ( -6.928203230275506996, -11.99999999999999289, -14.80000000000000071 ) ) ;
#570 = CARTESIAN_POINT ( 'NONE',  ( -8.932503637757040593, -8.528449860610979982, -0.4114160864365802306 ) ) ;
#571 = EDGE_CURVE ( 'NONE', #421, #162, #503, .T. ) ;
#572 = DIRECTION ( 'NONE',  ( 0.000000000000000000, 0.000000000000000000, 1.000000000000000000 ) ) ;
#573 = CARTESIAN_POINT ( 'NONE',  ( -11.56966437577133178, -3.960753474644390870, -0.3197397976759115412 ) ) ;
#574 = EDGE_LOOP ( 'NONE', ( #583, #365, #638, #50, #498, #111 ) ) ;
#575 = CIRCLE ( 'NONE', #659, 7.542481666397773843 ) ;
#576 = FACE_OUTER_BOUND ( 'NONE', #209, .T. ) ;
#577 = VERTEX_POINT ( 'NONE', #450 ) ;
#578 = ORIENTED_EDGE ( 'NONE', *, *, #233, .F. ) ;
#579 = DATE_TIME_ROLE ( 'creation_date' ) ;
#580 = VERTEX_POINT ( 'NONE', #102 ) ;
#581 = EDGE_CURVE ( 'NONE', #162, #107, #396, .T. ) ;
#582 = DIRECTION ( 'NONE',  ( 0.000000000000000000, 0.000000000000000000, 1.000000000000000000 ) ) ;
#583 = ORIENTED_EDGE ( 'NONE', *, *, #647, .F. ) ;
#584 = EDGE_LOOP ( 'NONE', ( #578, #327, #482, #525 ) ) ;
#585 = VECTOR ( 'NONE', #250, 999.9999999999998863 ) ;
#586 = LOCAL_TIME ( 23, 0, 9.000000000000000000, #504 ) ;
#587 = MECHANICAL_CONTEXT ( 'NONE', #65, 'mechanical' ) ;
#588 = ORIENTED_EDGE ( 'NONE', *, *, #11, .T. ) ;
#589 = PRODUCT_DEFINITION_SHAPE ( 'NONE', 'NONE',  #487 ) ;
#590 = DIRECTION ( 'NONE',  ( 0.000000000000000000, 0.000000000000000000, 1.000000000000000000 ) ) ;
#591 = CIRCLE ( 'NONE', #229, 11.62500000000000178 ) ;
#592 = DIRECTION ( 'NONE',  ( -0.8660254037844384856, -0.5000000000000003331, 0.000000000000000000 ) ) ;
#593 = APPROVAL_PERSON_ORGANIZATION ( #262, #126, #30 ) ;
#594 = DIRECTION ( 'NONE',  ( 1.000000000000000000, 0.000000000000000000, 0.000000000000000000 ) ) ;
#595 = UNCERTAINTY_MEASURE_WITH_UNIT (LENGTH_MEASURE( 1.000000000000000082E-05 ), #415, 'distance_accuracy_value', 'NONE');
#596 = FACE_OUTER_BOUND ( 'NONE', #221, .T. ) ;
#597 = ORIENTED_EDGE ( 'NONE', *, *, #133, .T. ) ;
#598 = EDGE_CURVE ( 'NONE', #277, #266, #84, .T. ) ;
#599 = CARTESIAN_POINT ( 'NONE',  ( -6.917500000000000426, 8.471494233101815233E-16, -0.6249816663977704190 ) ) ;
#600 = CARTESIAN_POINT ( 'NONE',  ( -11.62500000000000178, 1.561105948418177867E-15, -14.80000000000000071 ) ) ;
#601 = ORIENTED_EDGE ( 'NONE', *, *, #672, .F. ) ;
#602 = B_SPLINE_CURVE_WITH_KNOTS ( 'NONE', 3,
 ( #514, #267, #682, #103, #469, #314, #518, #612, #261, #364, #667, #680 ),
 .UNSPECIFIED., .F., .F.,
 ( 4, 2, 2, 2, 2, 4 ),
 ( 0.005114331975361202133, 0.008610849686848975545, 0.01035910854259286182, 0.01210736739833674636, 0.01560388510982451890, 0.01910040282131228798 ),
 .UNSPECIFIED. ) ;
#603 = DIRECTION ( 'NONE',  ( 1.000000000000000000, 0.000000000000000000, -0.000000000000000000 ) ) ;
#604 = PLANE ( 'NONE',  #63 ) ;
#605 = PRODUCT_DEFINITION_FORMATION_WITH_SPECIFIED_SOURCE ( '任何', '', #81, .NOT_KNOWN. ) ;
#606 = FACE_OUTER_BOUND ( 'NONE', #437, .T. ) ;
#607 = CARTESIAN_POINT ( 'NONE',  ( 8.063571247203817904, 10.03348490939145066, -14.10740523958819637 ) ) ;
#608 = CARTESIAN_POINT ( 'NONE',  ( -5.801156280751001759, -11.99999999999998934, -0.9629526908218699610 ) ) ;
#609 = EDGE_LOOP ( 'NONE', ( #169, #25, #4, #630 ) ) ;
#610 = PLANE ( 'NONE',  #639 ) ;
#611 = EDGE_CURVE ( 'NONE', #580, #253, #352, .T. ) ;
#612 = CARTESIAN_POINT ( 'NONE',  ( -1.168960120184195928, 12.00000000000000355, -0.2163909411110983838 ) ) ;
#613 = CARTESIAN_POINT ( 'NONE',  ( 4.673664758034994371, -11.99999999999999289, -14.10425136133269497 ) ) ;
#614 = LINE ( 'NONE', #151, #26 ) ;
#615 = CARTESIAN_POINT ( 'NONE',  ( 8.063571247203828563, -10.03348490939144000, -0.6925947604118045664 ) ) ;
#616 = CARTESIAN_POINT ( 'NONE',  ( -9.223199504759195477, -8.024949849412957192, -0.3388773611668892127 ) ) ;
#617 = AXIS2_PLACEMENT_3D ( 'NONE', #120, #582, #52 ) ;
#618 = DIRECTION ( 'NONE',  ( -0.000000000000000000, -0.000000000000000000, -1.000000000000000000 ) ) ;
#619 = VERTEX_POINT ( 'NONE', #673 ) ;
#620 = ORIENTED_EDGE ( 'NONE', *, *, #216, .T. ) ;
#621 = CARTESIAN_POINT ( 'NONE',  ( 10.10441343713353035, -6.498642546203058146, -14.58386464917064274 ) ) ;
#622 = ADVANCED_FACE ( 'NONE', ( #576 ), #302, .T. ) ;
#623 = FACE_OUTER_BOUND ( 'NONE', #390, .T. ) ;
#624 = APPROVAL_DATE_TIME ( #308, #126 ) ;
#625 = EDGE_CURVE ( 'NONE', #53, #253, #458, .T. ) ;
#626 = CARTESIAN_POINT ( 'NONE',  ( 6.928203230275507885, 12.00000000000000178, -1.288303120670580393 ) ) ;
#627 = CARTESIAN_POINT ( 'NONE',  ( 0.000000000000000000, 0.000000000000000000, -13.71749999999998515 ) ) ;
#628 = FACE_OUTER_BOUND ( 'NONE', #574, .T. ) ;
#629 = CARTESIAN_POINT ( 'NONE',  ( -8.065591476540451055, -10.02998576953745236, -0.6915215024811962596 ) ) ;
#630 = ORIENTED_EDGE ( 'NONE', *, *, #545, .T. ) ;
#631 = CIRCLE ( 'NONE', #329, 11.62500000000000178 ) ;
#632 = AXIS2_PLACEMENT_3D ( 'NONE', #414, #257, #263 ) ;
#633 = ORIENTED_EDGE ( 'NONE', *, *, #215, .T. ) ;
#634 = EDGE_CURVE ( 'NONE', #253, #511, #157, .T. ) ;
#635 = ORIENTED_EDGE ( 'NONE', *, *, #547, .F. ) ;
#636 = ORIENTED_EDGE ( 'NONE', *, *, #166, .F. ) ;
#637 = PERSON ( '未指定', '未指定', '未指定', ('未指定'), ('未指定'), ('未指定') ) ;
#638 = ORIENTED_EDGE ( 'NONE', *, *, #625, .T. ) ;
#639 = AXIS2_PLACEMENT_3D ( 'NONE', #569, #296, #152 ) ;
#640 = CALENDAR_DATE ( 2026, 10, 5 ) ;
#641 = B_SPLINE_CURVE_WITH_KNOTS ( 'NONE', 3,
 ( #491, #645, #175, #122, #226, #22, #546, #486, #652, #180, #284, #388 ),
 .UNSPECIFIED., .F., .F.,
 ( 4, 2, 2, 2, 2, 4 ),
 ( 2.380729645377275562E-07, 0.003498788443874736951, 0.006997338814784936217, 0.008746614000240035200, 0.01049588918569513245, 0.01399443955660532694 ),
 .UNSPECIFIED. ) ;
#642 = B_SPLINE_CURVE_WITH_KNOTS ( 'NONE', 3,
 ( #138, #282, #488, #644, #290, #389, #658, #446, #338, #125, #541, #189 ),
 .UNSPECIFIED., .F., .F.,
 ( 4, 2, 2, 2, 2, 4 ),
 ( 2.380729645499322951E-07, 0.003498788443874743456, 0.006997338814784937085, 0.008746614000240035200, 0.01049588918569513592, 0.01399443955660533215 ),
 .UNSPECIFIED. ) ;
#643 = CARTESIAN_POINT ( 'NONE',  ( -7.494530456036374133, 11.01909247127265346, -13.83866605557201979 ) ) ;
#644 = CARTESIAN_POINT ( 'NONE',  ( -9.214945315055190989, 8.039246525355610018, -0.3197397976759151494 ) ) ;
#645 = CARTESIAN_POINT ( 'NONE',  ( -7.493825344633129326, -11.02031376004805274, -13.83825895931370198 ) ) ;
#646 = EDGE_CURVE ( 'NONE', #421, #478, #631, .T. ) ;
#647 = EDGE_CURVE ( 'NONE', #619, #266, #156, .T. ) ;
#648 = CONICAL_SURFACE ( 'NONE', #270, 6.917500000000000426, 1.047197551196600296 ) ;
#649 = CARTESIAN_POINT ( 'NONE',  ( 0.000000000000000000, 0.000000000000000000, -14.80000000000000071 ) ) ;
#650 = ORIENTED_EDGE ( 'NONE', *, *, #375, .F. ) ;
#651 = ADVANCED_FACE ( 'NONE', ( #623 ), #153, .F. ) ;
#652 = CARTESIAN_POINT ( 'NONE',  ( -11.85210605306948395, -3.471550139389021350, -14.38858391356342281 ) ) ;
#653 = CARTESIAN_POINT ( 'NONE',  ( 6.917500000000000426, 0.000000000000000000, -13.71749999999998515 ) ) ;
#654 = ORIENTED_EDGE ( 'NONE', *, *, #231, .F. ) ;
#655 = CARTESIAN_POINT ( 'NONE',  ( -8.065591476540456384, 10.02998576953745058, -14.10847849751880645 ) ) ;
#656 = CARTESIAN_POINT ( 'NONE',  ( 9.796661814811136182, 7.031683992177188536, -14.58273899753701741 ) ) ;
#657 = CARTESIAN_POINT ( 'NONE',  ( 4.673664758034990818, -11.99999999999999822, -0.6957486386672966372 ) ) ;
#658 = CARTESIAN_POINT ( 'NONE',  ( -10.97609375736149673, 4.988847943610315028, -0.2411874177787920182 ) ) ;
#659 = AXIS2_PLACEMENT_3D ( 'NONE', #146, #517, #199 ) ;
#660 = CARTESIAN_POINT ( 'NONE',  ( -13.85640646055101932, 1.696920381959851261E-15, -13.51169687932941876 ) ) ;
#661 = LINE ( 'NONE', #248, #351 ) ;
#662 = APPROVAL ( #219, '未指定' ) ;
#663 = CARTESIAN_POINT ( 'NONE',  ( 13.29078434619339255, -0.9796862399519441489, -13.83825895931369665 ) ) ;
#664 = CARTESIAN_POINT ( 'NONE',  ( -1.168960120184187934, -11.99999999999999289, -0.2163909411110927217 ) ) ;
#665 = CARTESIAN_POINT ( 'NONE',  ( 9.808515933465031367, 7.011152056389684972, -0.2411874177787906859 ) ) ;
#666 = CARTESIAN_POINT ( 'NONE',  ( 7.493825344633147090, -11.02031376004804919, -0.9617410406862982875 ) ) ;
#667 = CARTESIAN_POINT ( 'NONE',  ( -5.801156280751001759, 12.00000000000000178, -0.9629526908218744019 ) ) ;
#668 = CARTESIAN_POINT ( 'NONE',  ( -5.801156280751002647, -11.99999999999999289, -13.83704730917812853 ) ) ;
#669 = PLANE ( 'NONE',  #685 ) ;
#670 = ADVANCED_FACE ( 'NONE', ( #566 ), #307, .T. ) ;
#671 = DIRECTION ( 'NONE',  ( 0.000000000000000000, 0.000000000000000000, 1.000000000000000000 ) ) ;
#672 = EDGE_CURVE ( 'NONE', #58, #441, #602, .T. ) ;
#673 = CARTESIAN_POINT ( 'NONE',  ( 11.62500000000000178, 1.561105948418177867E-15, 1.734723475976807094E-15 ) ) ;
#674 = CC_DESIGN_APPROVAL ( #662, ( #487 ) ) ;
#675 = CARTESIAN_POINT ( 'NONE',  ( 2.938426434559263445, -12.00000000000000000, -14.38600975058504616 ) ) ;
#676 = CARTESIAN_POINT ( 'NONE',  ( -6.928203230275507885, 12.00000000000000355, -14.80000000000000071 ) ) ;
#677 = FACE_OUTER_BOUND ( 'NONE', #5, .T. ) ;
#678 = CARTESIAN_POINT ( 'NONE',  ( 0.000000000000000000, 0.000000000000000000, -14.80000000000000071 ) ) ;
#679 = CARTESIAN_POINT ( 'NONE',  ( -6.928203230275505220, 12.00000000000000355, -13.51169687932941876 ) ) ;
#680 = CARTESIAN_POINT ( 'NONE',  ( -6.928203230275505220, 12.00000000000000355, -1.288303120670580393 ) ) ;
#681 = VERTEX_POINT ( 'NONE', #206 ) ;
#682 = CARTESIAN_POINT ( 'NONE',  ( 4.673664758034981048, 12.00000000000000533, -0.6957486386672980805 ) ) ;
#683 = ORIENTED_EDGE ( 'NONE', *, *, #358, .F. ) ;
#684 = AXIS2_PLACEMENT_3D ( 'NONE', #678, #362, #401 ) ;
#685 = AXIS2_PLACEMENT_3D ( 'NONE', #676, #295, #204 ) ;
ENDSEC;
END-ISO-10303-21;
