ISO-10303-21;
HEADER;
FILE_DESCRIPTION (( 'STEP AP203' ),
    '1' );
FILE_NAME ('GBT_897-1988_M12_32.STEP',
    '2026-05-10T15:04:48',
    ( '' ),
    ( '' ),
    'SwSTEP 2.0',
    'SolidWorks 2022',
    '' );
FILE_SCHEMA (( 'CONFIG_CONTROL_DESIGN' ));
ENDSEC;

DATA;
#1 = ORIENTED_EDGE ( 'NONE', *, *, #166, .T. ) ;
#2 = APPROVAL_PERSON_ORGANIZATION ( #490, #233, #451 ) ;
#3 = ADVANCED_FACE ( 'NONE', ( #258 ), #67, .T. ) ;
#4 = DIRECTION ( 'NONE',  ( 0.000000000000000000, 0.000000000000000000, -1.000000000000000000 ) ) ;
#5 = MECHANICAL_CONTEXT ( 'NONE', #155, 'mechanical' ) ;
#6 = PRODUCT_DEFINITION_SHAPE ( 'NONE', 'NONE',  #69 ) ;
#7 = ADVANCED_FACE ( 'NONE', ( #524 ), #120, .T. ) ;
#8 = CARTESIAN_POINT ( 'NONE',  ( 10.68749999999999822, 0.000000000000000000, 0.000000000000000000 ) ) ;
#9 = ORIENTED_EDGE ( 'NONE', *, *, #516, .T. ) ;
#10 = VECTOR ( 'NONE', #559, 1000.000000000000114 ) ;
#11 = CIRCLE ( 'NONE', #338, 6.000000000000000000 ) ;
#12 = CONICAL_SURFACE ( 'NONE', #116, 6.000000000000000000, 0.7853981633974514986 ) ;
#13 = CARTESIAN_POINT ( 'NONE',  ( 0.000000000000000000, 0.000000000000000000, 0.000000000000000000 ) ) ;
#14 = ORIENTED_EDGE ( 'NONE', *, *, #419, .F. ) ;
#15 = CARTESIAN_POINT ( 'NONE',  ( 12.00000000000000000, 0.000000000000000000, 5.431499999999999773 ) ) ;
#16 = DATE_AND_TIME ( #537, #434 ) ;
#17 = ORIENTED_EDGE ( 'NONE', *, *, #376, .F. ) ;
#18 = CARTESIAN_POINT ( 'NONE',  ( 0.9469999999999999529, 0.000000000000000000, 6.000000000000000000 ) ) ;
#19 = PERSON_AND_ORGANIZATION ( #497, #59 ) ;
#20 = CONICAL_SURFACE ( 'NONE', #73, 6.000000000000000000, 0.2132776726905073472 ) ;
#21 = CIRCLE ( 'NONE', #93, 6.000000000000000000 ) ;
#22 = DIRECTION ( 'NONE',  ( 0.9773423990707854614, 0.000000000000000000, -0.2116644395701875181 ) ) ;
#23 = DIRECTION ( 'NONE',  ( -1.000000000000000000, -0.000000000000000000, -0.000000000000000000 ) ) ;
#24 = CARTESIAN_POINT ( 'NONE',  ( 10.68749999999999822, 0.000000000000000000, 5.715749999999999886 ) ) ;
#25 = CC_DESIGN_PERSON_AND_ORGANIZATION_ASSIGNMENT ( #418, #57, ( #69 ) ) ;
#26 = CARTESIAN_POINT ( 'NONE',  ( -1.310841663519413114, 0.000000000000000000, 0.000000000000000000 ) ) ;
#27 = ADVANCED_FACE ( 'NONE', ( #517 ), #514, .F. ) ;
#28 = CARTESIAN_POINT ( 'NONE',  ( 24.00000000000000000, 0.000000000000000000, 0.000000000000000000 ) ) ;
#29 = AXIS2_PLACEMENT_3D ( 'NONE', #405, #546, #104 ) ;
#30 = DIRECTION ( 'NONE',  ( 1.000000000000000000, 0.000000000000000000, 0.000000000000000000 ) ) ;
#31 = FACE_OUTER_BOUND ( 'NONE', #179, .T. ) ;
#32 = CARTESIAN_POINT ( 'NONE',  ( 0.000000000000000000, 0.000000000000000000, 0.000000000000000000 ) ) ;
#33 = AXIS2_PLACEMENT_3D ( 'NONE', #26, #254, #378 ) ;
#34 = CIRCLE ( 'NONE', #191, 5.052999999999983949 ) ;
#35 = EDGE_LOOP ( 'NONE', ( #406, #172, #274, #14 ) ) ;
#36 = AXIS2_PLACEMENT_3D ( 'NONE', #495, #98, #234 ) ;
#37 = EDGE_LOOP ( 'NONE', ( #58, #302, #94, #17 ) ) ;
#38 = DIRECTION ( 'NONE',  ( -1.000000000000000000, -0.000000000000000000, -0.000000000000000000 ) ) ;
#39 = ORIENTED_EDGE ( 'NONE', *, *, #416, .F. ) ;
#40 = EDGE_LOOP ( 'NONE', ( #129, #521 ) ) ;
#41 = CARTESIAN_POINT ( 'NONE',  ( 11.99999999999999822, 0.000000000000000000, 0.000000000000000000 ) ) ;
#42 = ORIENTED_EDGE ( 'NONE', *, *, #131, .T. ) ;
#43 = CONICAL_SURFACE ( 'NONE', #328, 5.431499999999999773, 0.2132776726905073195 ) ;
#44 = DIRECTION ( 'NONE',  ( 0.000000000000000000, 0.000000000000000000, -1.000000000000000000 ) ) ;
#45 = EDGE_CURVE ( 'NONE', #196, #491, #21, .T. ) ;
#46 = CARTESIAN_POINT ( 'NONE',  ( 24.00000000000000000, 6.651669089568848699E-16, -5.431499999999999773 ) ) ;
#47 = DATE_AND_TIME ( #96, #332 ) ;
#48 = EDGE_LOOP ( 'NONE', ( #476, #185, #42, #454 ) ) ;
#49 = ADVANCED_FACE ( 'NONE', ( #117 ), #334, .T. ) ;
#50 = DIRECTION ( 'NONE',  ( -1.000000000000000000, -0.000000000000000000, -0.000000000000000000 ) ) ;
#51 = PERSON_AND_ORGANIZATION ( #497, #59 ) ;
#52 = ORIENTED_EDGE ( 'NONE', *, *, #395, .T. ) ;
#53 = CARTESIAN_POINT ( 'NONE',  ( 4.977430895459948879, 0.000000000000000000, 6.000000000000000000 ) ) ;
#54 = ORIENTED_EDGE ( 'NONE', *, *, #156, .T. ) ;
#55 = AXIS2_PLACEMENT_3D ( 'NONE', #536, #138, #404 ) ;
#56 = LINE ( 'NONE', #533, #162 ) ;
#57 = PERSON_AND_ORGANIZATION_ROLE ( 'creator' ) ;
#58 = ORIENTED_EDGE ( 'NONE', *, *, #416, .T. ) ;
#59 = ORGANIZATION ( '未指定', '未指定', '' ) ;
#60 = LINE ( 'NONE', #450, #264 ) ;
#61 = APPROVAL_DATE_TIME ( #101, #195 ) ;
#62 = EDGE_CURVE ( 'NONE', #365, #496, #65, .T. ) ;
#63 = DIRECTION ( 'NONE',  ( 0.000000000000000000, 0.000000000000000000, 1.000000000000000000 ) ) ;
#64 = DIRECTION ( 'NONE',  ( -1.000000000000000000, -0.000000000000000000, -0.000000000000000000 ) ) ;
#65 = CIRCLE ( 'NONE', #290, 5.715750000000000774 ) ;
#66 = VECTOR ( 'NONE', #463, 1000.000000000000000 ) ;
#67 = CONICAL_SURFACE ( 'NONE', #218, 5.431499999999999773, 0.2132776726905076803 ) ;
#68 = DIRECTION ( 'NONE',  ( 0.000000000000000000, 0.000000000000000000, 1.000000000000000000 ) ) ;
#69 = PRODUCT_DEFINITION ( '未知', '', #413, #532 ) ;
#70 = EDGE_CURVE ( 'NONE', #491, #196, #113, .T. ) ;
#71 = LINE ( 'NONE', #428, #10 ) ;
#72 = DIRECTION ( 'NONE',  ( -1.000000000000000000, -0.000000000000000000, -0.000000000000000000 ) ) ;
#73 = AXIS2_PLACEMENT_3D ( 'NONE', #568, #76, #124 ) ;
#74 = FACE_OUTER_BOUND ( 'NONE', #35, .T. ) ;
#75 = CC_DESIGN_APPROVAL ( #233, ( #506 ) ) ;
#76 = DIRECTION ( 'NONE',  ( 1.000000000000000000, 0.000000000000000000, 0.000000000000000000 ) ) ;
#77 = CARTESIAN_POINT ( 'NONE',  ( 9.375000000000000000, 0.000000000000000000, 0.000000000000000000 ) ) ;
#78 = ORIENTED_EDGE ( 'NONE', *, *, #239, .F. ) ;
#79 = ORIENTED_EDGE ( 'NONE', *, *, #478, .F. ) ;
#80 = ADVANCED_BREP_SHAPE_REPRESENTATION ( 'GBT_897-1988_M12_32', ( #402, #29 ), #531 ) ;
#81 = DIRECTION ( 'NONE',  ( 0.000000000000000000, 0.000000000000000000, 1.000000000000000000 ) ) ;
#82 = VECTOR ( 'NONE', #469, 1000.000000000000227 ) ;
#83 = CONICAL_SURFACE ( 'NONE', #410, 6.000000000000000000, 0.7853981633974514986 ) ;
#84 = EDGE_CURVE ( 'NONE', #500, #282, #438, .T. ) ;
#85 = DIRECTION ( 'NONE',  ( -1.000000000000000000, -0.000000000000000000, -0.000000000000000000 ) ) ;
#86 = ORIENTED_EDGE ( 'NONE', *, *, #257, .F. ) ;
#87 = ORIENTED_EDGE ( 'NONE', *, *, #426, .F. ) ;
#88 = EDGE_CURVE ( 'NONE', #496, #535, #204, .T. ) ;
#89 = DIRECTION ( 'NONE',  ( 1.000000000000000000, 0.000000000000000000, 0.000000000000000000 ) ) ;
#90 = CARTESIAN_POINT ( 'NONE',  ( 11.99999999999999822, 0.000000000000000000, 0.000000000000000000 ) ) ;
#91 = PERSON_AND_ORGANIZATION_ROLE ( 'creator' ) ;
#92 = ADVANCED_FACE ( 'NONE', ( #556 ), #245, .T. ) ;
#93 = AXIS2_PLACEMENT_3D ( 'NONE', #207, #470, #208 ) ;
#94 = ORIENTED_EDGE ( 'NONE', *, *, #212, .T. ) ;
#95 = CARTESIAN_POINT ( 'NONE',  ( 9.375000000000000000, 7.347880794884119736E-16, -6.000000000000000000 ) ) ;
#96 = CALENDAR_DATE ( 2026, 10, 5 ) ;
#97 = EDGE_LOOP ( 'NONE', ( #221, #571, #452, #488 ) ) ;
#98 = DIRECTION ( 'NONE',  ( -1.000000000000000000, -0.000000000000000000, -0.000000000000000000 ) ) ;
#99 = ORIENTED_EDGE ( 'NONE', *, *, #464, .F. ) ;
#100 = LINE ( 'NONE', #329, #528 ) ;
#101 = DATE_AND_TIME ( #493, #184 ) ;
#102 = ORIENTED_EDGE ( 'NONE', *, *, #474, .F. ) ;
#103 = CARTESIAN_POINT ( 'NONE',  ( -1.310841663519413114, 7.347880794884119736E-16, -6.000000000000000000 ) ) ;
#104 = DIRECTION ( 'NONE',  ( 1.000000000000000000, 0.000000000000000000, 0.000000000000000000 ) ) ;
#105 = EDGE_CURVE ( 'NONE', #496, #365, #384, .T. ) ;
#106 = CC_DESIGN_APPROVAL ( #543, ( #69 ) ) ;
#107 = CARTESIAN_POINT ( 'NONE',  ( 4.977430895459948879, 0.000000000000000000, 0.000000000000000000 ) ) ;
#108 = ADVANCED_FACE ( 'NONE', ( #561 ), #564, .T. ) ;
#109 = DIRECTION ( 'NONE',  ( 0.000000000000000000, 0.000000000000000000, 1.000000000000000000 ) ) ;
#110 = DIRECTION ( 'NONE',  ( -1.000000000000000000, -0.000000000000000000, -0.000000000000000000 ) ) ;
#111 = PRODUCT_RELATED_PRODUCT_CATEGORY ( 'detail', '', ( #449 ) ) ;
#112 = EDGE_CURVE ( 'NONE', #547, #386, #251, .T. ) ;
#113 = CIRCLE ( 'NONE', #422, 6.000000000000000000 ) ;
#114 = AXIS2_PLACEMENT_3D ( 'NONE', #424, #158, #249 ) ;
#115 = CARTESIAN_POINT ( 'NONE',  ( 24.00000000000000355, 0.000000000000000000, 6.000000000000000000 ) ) ;
#116 = AXIS2_PLACEMENT_3D ( 'NONE', #314, #360, #317 ) ;
#117 = FACE_OUTER_BOUND ( 'NONE', #97, .T. ) ;
#118 = APPLICATION_CONTEXT ( 'configuration controlled 3d designs of mechanical parts and assemblies' ) ;
#119 = CARTESIAN_POINT ( 'NONE',  ( 24.00000000000000355, 7.347880794884119736E-16, 6.000000000000000000 ) ) ;
#120 = CYLINDRICAL_SURFACE ( 'NONE', #33, 6.000000000000000000 ) ;
#121 = CARTESIAN_POINT ( 'NONE',  ( 44.00000000000000711, 0.000000000000000000, 0.000000000000000000 ) ) ;
#122 = DIRECTION ( 'NONE',  ( 1.000000000000000000, 0.000000000000000000, 0.000000000000000000 ) ) ;
#123 = DIRECTION ( 'NONE',  ( -1.000000000000000000, -0.000000000000000000, -0.000000000000000000 ) ) ;
#124 = DIRECTION ( 'NONE',  ( 0.000000000000000000, 0.000000000000000000, -1.000000000000000000 ) ) ;
#125 = EDGE_CURVE ( 'NONE', #265, #500, #71, .T. ) ;
#126 = ORIENTED_EDGE ( 'NONE', *, *, #45, .T. ) ;
#127 = EDGE_LOOP ( 'NONE', ( #403, #482, #309, #437 ) ) ;
#128 = CARTESIAN_POINT ( 'NONE',  ( 0.000000000000000000, 0.000000000000000000, -5.053000000000008818 ) ) ;
#129 = ORIENTED_EDGE ( 'NONE', *, *, #203, .T. ) ;
#130 = VECTOR ( 'NONE', #369, 1000.000000000000000 ) ;
#131 = EDGE_CURVE ( 'NONE', #535, #444, #140, .T. ) ;
#132 = CLOSED_SHELL ( 'NONE', ( #311, #504, #560, #534, #92, #152, #297, #518, #108, #320, #501, #49, #562, #253, #3, #519, #27, #473, #7, #341 ) ) ;
#133 = ORIENTED_EDGE ( 'NONE', *, *, #199, .T. ) ;
#134 = DIRECTION ( 'NONE',  ( 0.000000000000000000, 0.000000000000000000, 1.000000000000000000 ) ) ;
#135 = ORIENTED_EDGE ( 'NONE', *, *, #125, .F. ) ;
#136 = LINE ( 'NONE', #103, #308 ) ;
#137 = ORIENTED_EDGE ( 'NONE', *, *, #88, .F. ) ;
#138 = DIRECTION ( 'NONE',  ( -1.000000000000000000, -0.000000000000000000, -0.000000000000000000 ) ) ;
#139 = COORDINATED_UNIVERSAL_TIME_OFFSET ( 8, 0, .AHEAD. ) ;
#140 = CIRCLE ( 'NONE', #465, 6.000000000000000000 ) ;
#141 = VECTOR ( 'NONE', #310, 1000.000000000000000 ) ;
#142 = EDGE_LOOP ( 'NONE', ( #102, #391, #527, #176 ) ) ;
#143 = CYLINDRICAL_SURFACE ( 'NONE', #36, 6.000000000000000000 ) ;
#144 = APPROVAL_STATUS ( 'not_yet_approved' ) ;
#145 = VERTEX_POINT ( 'NONE', #24 ) ;
#146 = LINE ( 'NONE', #53, #178 ) ;
#147 = COORDINATED_UNIVERSAL_TIME_OFFSET ( 8, 0, .AHEAD. ) ;
#148 = ORIENTED_EDGE ( 'NONE', *, *, #84, .F. ) ;
#149 = CIRCLE ( 'NONE', #344, 5.052999999999983949 ) ;
#150 = FACE_OUTER_BOUND ( 'NONE', #268, .T. ) ;
#151 = COORDINATED_UNIVERSAL_TIME_OFFSET ( 8, 0, .AHEAD. ) ;
#152 = ADVANCED_FACE ( 'NONE', ( #74 ), #510, .T. ) ;
#153 = CARTESIAN_POINT ( 'NONE',  ( 43.05299999999999727, 0.000000000000000000, 0.000000000000000000 ) ) ;
#154 = DATE_AND_TIME ( #552, #255 ) ;
#155 = APPLICATION_CONTEXT ( 'configuration controlled 3d designs of mechanical parts and assemblies' ) ;
#156 = EDGE_CURVE ( 'NONE', #485, #491, #336, .T. ) ;
#157 = FACE_OUTER_BOUND ( 'NONE', #232, .T. ) ;
#158 = DIRECTION ( 'NONE',  ( -1.000000000000000000, -0.000000000000000000, -0.000000000000000000 ) ) ;
#159 = DIRECTION ( 'NONE',  ( -1.000000000000000000, -0.000000000000000000, -0.000000000000000000 ) ) ;
#160 = DIRECTION ( 'NONE',  ( -0.9773423990707854614, 2.592141784129483869E-17, -0.2116644395701873793 ) ) ;
#161 = CIRCLE ( 'NONE', #385, 6.000000000000000000 ) ;
#162 = VECTOR ( 'NONE', #322, 1000.000000000000000 ) ;
#163 = DIRECTION ( 'NONE',  ( 0.000000000000000000, 0.000000000000000000, 1.000000000000000000 ) ) ;
#164 = APPROVAL_PERSON_ORGANIZATION ( #367, #195, #503 ) ;
#165 = DIRECTION ( 'NONE',  ( -1.000000000000000000, -0.000000000000000000, -0.000000000000000000 ) ) ;
#166 = EDGE_CURVE ( 'NONE', #196, #535, #511, .T. ) ;
#167 = CARTESIAN_POINT ( 'NONE',  ( 43.05299999999999727, 7.347880794884119736E-16, -6.000000000000000000 ) ) ;
#168 = VECTOR ( 'NONE', #283, 1000.000000000000000 ) ;
#169 = AXIS2_PLACEMENT_3D ( 'NONE', #339, #299, #294 ) ;
#170 = AXIS2_PLACEMENT_3D ( 'NONE', #269, #227, #44 ) ;
#171 = DIRECTION ( 'NONE',  ( -1.000000000000000000, -0.000000000000000000, -0.000000000000000000 ) ) ;
#172 = ORIENTED_EDGE ( 'NONE', *, *, #426, .T. ) ;
#173 = EDGE_CURVE ( 'NONE', #574, #265, #216, .T. ) ;
#174 = CARTESIAN_POINT ( 'NONE',  ( 0.9469999999999999529, 7.347880794884119736E-16, -6.000000000000000000 ) ) ;
#175 = ORIENTED_EDGE ( 'NONE', *, *, #173, .F. ) ;
#176 = ORIENTED_EDGE ( 'NONE', *, *, #215, .F. ) ;
#177 = FACE_OUTER_BOUND ( 'NONE', #224, .T. ) ;
#178 = VECTOR ( 'NONE', #50, 1000.000000000000000 ) ;
#179 = EDGE_LOOP ( 'NONE', ( #137, #396, #415, #133 ) ) ;
#180 = DIRECTION ( 'NONE',  ( 1.000000000000000000, 0.000000000000000000, 0.000000000000000000 ) ) ;
#181 = VERTEX_POINT ( 'NONE', #429 ) ;
#182 = ORIENTED_EDGE ( 'NONE', *, *, #173, .T. ) ;
#183 = CARTESIAN_POINT ( 'NONE',  ( 11.99999999999999822, 0.000000000000000000, 0.000000000000000000 ) ) ;
#184 = LOCAL_TIME ( 23, 4, 48.00000000000000000, #198 ) ;
#185 = ORIENTED_EDGE ( 'NONE', *, *, #88, .T. ) ;
#186 = CARTESIAN_POINT ( 'NONE',  ( -1.310841663519413114, 0.000000000000000000, 6.000000000000000000 ) ) ;
#187 = DATE_AND_TIME ( #414, #356 ) ;
#188 = EDGE_LOOP ( 'NONE', ( #78, #392, #411, #567 ) ) ;
#189 = DIRECTION ( 'NONE',  ( 1.000000000000000000, 0.000000000000000000, 0.000000000000000000 ) ) ;
#190 = VECTOR ( 'NONE', #296, 999.9999999999998863 ) ;
#191 = AXIS2_PLACEMENT_3D ( 'NONE', #121, #390, #263 ) ;
#192 = ORIENTED_EDGE ( 'NONE', *, *, #478, .T. ) ;
#193 = LINE ( 'NONE', #186, #168 ) ;
#194 = APPROVAL_ROLE ( '' ) ;
#195 = APPROVAL ( #284, '未指定' ) ;
#196 = VERTEX_POINT ( 'NONE', #522 ) ;
#197 = DIRECTION ( 'NONE',  ( 0.000000000000000000, 0.000000000000000000, 1.000000000000000000 ) ) ;
#198 = COORDINATED_UNIVERSAL_TIME_OFFSET ( 8, 0, .AHEAD. ) ;
#199 = EDGE_CURVE ( 'NONE', #444, #535, #439, .T. ) ;
#200 = AXIS2_PLACEMENT_3D ( 'NONE', #487, #89, #442 ) ;
#201 = FACE_OUTER_BOUND ( 'NONE', #544, .T. ) ;
#202 = PERSON_AND_ORGANIZATION_ROLE ( 'design_owner' ) ;
#203 = EDGE_CURVE ( 'NONE', #181, #485, #34, .T. ) ;
#204 = LINE ( 'NONE', #119, #190 ) ;
#205 = CARTESIAN_POINT ( 'NONE',  ( 4.977430895459948879, 0.000000000000000000, 0.000000000000000000 ) ) ;
#206 = DIRECTION ( 'NONE',  ( 0.000000000000000000, 0.000000000000000000, -1.000000000000000000 ) ) ;
#207 = CARTESIAN_POINT ( 'NONE',  ( 43.05299999999999727, 0.000000000000000000, 0.000000000000000000 ) ) ;
#208 = DIRECTION ( 'NONE',  ( 0.000000000000000000, 0.000000000000000000, 1.000000000000000000 ) ) ;
#209 = EDGE_CURVE ( 'NONE', #399, #348, #540, .T. ) ;
#210 = CC_DESIGN_APPROVAL ( #195, ( #413 ) ) ;
#211 = CARTESIAN_POINT ( 'NONE',  ( 0.9469999999999999529, 0.000000000000000000, 0.000000000000000000 ) ) ;
#212 = EDGE_CURVE ( 'NONE', #282, #500, #11, .T. ) ;
#213 = DIRECTION ( 'NONE',  ( -1.000000000000000000, -0.000000000000000000, -0.000000000000000000 ) ) ;
#214 = CC_DESIGN_PERSON_AND_ORGANIZATION_ASSIGNMENT ( #51, #409, ( #506 ) ) ;
#215 = EDGE_CURVE ( 'NONE', #348, #399, #161, .T. ) ;
#216 = CIRCLE ( 'NONE', #114, 5.053000000000008818 ) ;
#217 = DIRECTION ( 'NONE',  ( 0.7071067811865507924, 0.000000000000000000, -0.7071067811865442421 ) ) ;
#218 = AXIS2_PLACEMENT_3D ( 'NONE', #569, #123, #351 ) ;
#219 = ORIENTED_EDGE ( 'NONE', *, *, #355, .F. ) ;
#220 = CARTESIAN_POINT ( 'NONE',  ( 4.977430895459948879, 7.347880794884119736E-16, -6.000000000000000000 ) ) ;
#221 = ORIENTED_EDGE ( 'NONE', *, *, #271, .F. ) ;
#222 = ORIENTED_EDGE ( 'NONE', *, *, #300, .T. ) ;
#223 = FACE_OUTER_BOUND ( 'NONE', #188, .T. ) ;
#224 = EDGE_LOOP ( 'NONE', ( #280, #304, #397, #86 ) ) ;
#225 = CIRCLE ( 'NONE', #298, 6.000000000000000000 ) ;
#226 = EDGE_LOOP ( 'NONE', ( #361, #54, #358, #99 ) ) ;
#227 = DIRECTION ( 'NONE',  ( -1.000000000000000000, -0.000000000000000000, -0.000000000000000000 ) ) ;
#228 = ORIENTED_EDGE ( 'NONE', *, *, #359, .F. ) ;
#229 = PLANE ( 'NONE',  #441 ) ;
#230 = CARTESIAN_POINT ( 'NONE',  ( 22.68750000000000711, 0.000000000000000000, 5.715750000000000774 ) ) ;
#231 = COORDINATED_UNIVERSAL_TIME_OFFSET ( 8, 0, .AHEAD. ) ;
#232 = EDGE_LOOP ( 'NONE', ( #135, #175, #222, #148 ) ) ;
#233 = APPROVAL ( #448, '未指定' ) ;
#234 = DIRECTION ( 'NONE',  ( 0.000000000000000000, 0.000000000000000000, 1.000000000000000000 ) ) ;
#235 = APPROVAL_DATE_TIME ( #187, #543 ) ;
#236 = EDGE_LOOP ( 'NONE', ( #126, #192, #267, #252 ) ) ;
#237 = AXIS2_PLACEMENT_3D ( 'NONE', #272, #458, #197 ) ;
#238 = CARTESIAN_POINT ( 'NONE',  ( 24.00000000000000355, 7.347880794884119736E-16, -6.000000000000000000 ) ) ;
#239 = EDGE_CURVE ( 'NONE', #265, #574, #423, .T. ) ;
#240 = ORIENTED_EDGE ( 'NONE', *, *, #156, .F. ) ;
#241 = CONICAL_SURFACE ( 'NONE', #558, 5.053000000000008818, 0.7853981633974437271 ) ;
#242 = DIRECTION ( 'NONE',  ( -1.000000000000000000, -0.000000000000000000, -0.000000000000000000 ) ) ;
#243 = PERSON_AND_ORGANIZATION ( #497, #59 ) ;
#244 = CARTESIAN_POINT ( 'NONE',  ( -1.310841663519413114, 0.000000000000000000, 6.000000000000000000 ) ) ;
#245 = CONICAL_SURFACE ( 'NONE', #539, 5.431499999999999773, 0.2132776726905076803 ) ;
#246 = CIRCLE ( 'NONE', #291, 6.000000000000000000 ) ;
#247 =( NAMED_UNIT ( * ) SI_UNIT ( $, .STERADIAN. ) SOLID_ANGLE_UNIT ( ) );
#248 = DIRECTION ( 'NONE',  ( -1.000000000000000000, -0.000000000000000000, -0.000000000000000000 ) ) ;
#249 = DIRECTION ( 'NONE',  ( 0.000000000000000000, 0.000000000000000000, -1.000000000000000000 ) ) ;
#250 = CIRCLE ( 'NONE', #237, 6.000000000000000000 ) ;
#251 = LINE ( 'NONE', #374, #315 ) ;
#252 = ORIENTED_EDGE ( 'NONE', *, *, #166, .F. ) ;
#253 = ADVANCED_FACE ( 'NONE', ( #349 ), #565, .T. ) ;
#254 = DIRECTION ( 'NONE',  ( -1.000000000000000000, -0.000000000000000000, -0.000000000000000000 ) ) ;
#255 = LOCAL_TIME ( 23, 4, 48.00000000000000000, #147 ) ;
#256 = LINE ( 'NONE', #220, #420 ) ;
#257 = EDGE_CURVE ( 'NONE', #386, #523, #246, .T. ) ;
#258 = FACE_OUTER_BOUND ( 'NONE', #142, .T. ) ;
#259 = DIRECTION ( 'NONE',  ( 0.000000000000000000, 0.000000000000000000, 1.000000000000000000 ) ) ;
#260 = ORIENTED_EDGE ( 'NONE', *, *, #209, .T. ) ;
#261 = AXIS2_PLACEMENT_3D ( 'NONE', #211, #30, #381 ) ;
#262 = AXIS2_PLACEMENT_3D ( 'NONE', #307, #171, #398 ) ;
#263 = DIRECTION ( 'NONE',  ( 0.000000000000000000, 0.000000000000000000, 1.000000000000000000 ) ) ;
#264 = VECTOR ( 'NONE', #545, 1000.000000000000000 ) ;
#265 = VERTEX_POINT ( 'NONE', #477 ) ;
#266 = DIRECTION ( 'NONE',  ( 0.000000000000000000, 0.000000000000000000, 1.000000000000000000 ) ) ;
#267 = ORIENTED_EDGE ( 'NONE', *, *, #131, .F. ) ;
#268 = EDGE_LOOP ( 'NONE', ( #240, #324, #353, #481 ) ) ;
#269 = CARTESIAN_POINT ( 'NONE',  ( 0.000000000000000000, 0.000000000000000000, 0.000000000000000000 ) ) ;
#270 = CONICAL_SURFACE ( 'NONE', #572, 5.053000000000008818, 0.7853981633974437271 ) ;
#271 = EDGE_CURVE ( 'NONE', #386, #282, #303, .T. ) ;
#272 = CARTESIAN_POINT ( 'NONE',  ( 9.375000000000000000, 0.000000000000000000, 0.000000000000000000 ) ) ;
#273 = SECURITY_CLASSIFICATION_LEVEL ( 'unclassified' ) ;
#274 = ORIENTED_EDGE ( 'NONE', *, *, #278, .T. ) ;
#275 = CYLINDRICAL_SURFACE ( 'NONE', #55, 6.000000000000000000 ) ;
#276 = ORIENTED_EDGE ( 'NONE', *, *, #355, .T. ) ;
#277 = CC_DESIGN_DATE_AND_TIME_ASSIGNMENT ( #154, #326, ( #506 ) ) ;
#278 = EDGE_CURVE ( 'NONE', #443, #432, #466, .T. ) ;
#279 = CARTESIAN_POINT ( 'NONE',  ( 44.00000000000000711, 6.768010535487837505E-16, -5.052999999999983949 ) ) ;
#280 = ORIENTED_EDGE ( 'NONE', *, *, #112, .F. ) ;
#281 = LINE ( 'NONE', #46, #541 ) ;
#282 = VERTEX_POINT ( 'NONE', #174 ) ;
#283 = DIRECTION ( 'NONE',  ( -1.000000000000000000, -0.000000000000000000, -0.000000000000000000 ) ) ;
#284 = APPROVAL_STATUS ( 'not_yet_approved' ) ;
#285 = VECTOR ( 'NONE', #22, 999.9999999999998863 ) ;
#286 = DIRECTION ( 'NONE',  ( 0.000000000000000000, 0.000000000000000000, -1.000000000000000000 ) ) ;
#287 = DIRECTION ( 'NONE',  ( 0.000000000000000000, 0.000000000000000000, 1.000000000000000000 ) ) ;
#288 = DIRECTION ( 'NONE',  ( 1.000000000000000000, 0.000000000000000000, 0.000000000000000000 ) ) ;
#289 = CARTESIAN_POINT ( 'NONE',  ( 12.00000000000000000, 0.000000000000000000, 0.000000000000000000 ) ) ;
#290 = AXIS2_PLACEMENT_3D ( 'NONE', #472, #23, #557 ) ;
#291 = AXIS2_PLACEMENT_3D ( 'NONE', #77, #85, #484 ) ;
#292 = CIRCLE ( 'NONE', #380, 5.715749999999999886 ) ;
#293 = CYLINDRICAL_SURFACE ( 'NONE', #512, 6.000000000000000000 ) ;
#294 = DIRECTION ( 'NONE',  ( -0.000000000000000000, 0.000000000000000000, 1.000000000000000000 ) ) ;
#295 = CC_DESIGN_PERSON_AND_ORGANIZATION_ASSIGNMENT ( #549, #202, ( #449 ) ) ;
#296 = DIRECTION ( 'NONE',  ( 0.9773423990707854614, 2.592141784129485101E-17, 0.2116644395701875181 ) ) ;
#297 = ADVANCED_FACE ( 'NONE', ( #223 ), #270, .T. ) ;
#298 = AXIS2_PLACEMENT_3D ( 'NONE', #90, #489, #366 ) ;
#299 = DIRECTION ( 'NONE',  ( -1.000000000000000000, 0.000000000000000000, -0.000000000000000000 ) ) ;
#300 = EDGE_CURVE ( 'NONE', #574, #282, #475, .T. ) ;
#301 = DIRECTION ( 'NONE',  ( 0.000000000000000000, 0.000000000000000000, -1.000000000000000000 ) ) ;
#302 = ORIENTED_EDGE ( 'NONE', *, *, #271, .T. ) ;
#303 = LINE ( 'NONE', #436, #141 ) ;
#304 = ORIENTED_EDGE ( 'NONE', *, *, #516, .F. ) ;
#305 = FACE_OUTER_BOUND ( 'NONE', #48, .T. ) ;
#306 = ORIENTED_EDGE ( 'NONE', *, *, #395, .F. ) ;
#307 = CARTESIAN_POINT ( 'NONE',  ( 21.37500000000000355, 0.000000000000000000, 0.000000000000000000 ) ) ;
#308 = VECTOR ( 'NONE', #242, 1000.000000000000000 ) ;
#309 = ORIENTED_EDGE ( 'NONE', *, *, #209, .F. ) ;
#310 = DIRECTION ( 'NONE',  ( -1.000000000000000000, -0.000000000000000000, -0.000000000000000000 ) ) ;
#311 = ADVANCED_FACE ( 'NONE', ( #305 ), #20, .T. ) ;
#312 = UNCERTAINTY_MEASURE_WITH_UNIT (LENGTH_MEASURE( 1.000000000000000082E-05 ), #505, 'distance_accuracy_value', 'NONE');
#313 = EDGE_CURVE ( 'NONE', #485, #181, #149, .T. ) ;
#314 = CARTESIAN_POINT ( 'NONE',  ( 43.05299999999999727, 0.000000000000000000, 0.000000000000000000 ) ) ;
#315 = VECTOR ( 'NONE', #160, 999.9999999999998863 ) ;
#316 = AXIS2_PLACEMENT_3D ( 'NONE', #183, #525, #301 ) ;
#317 = DIRECTION ( 'NONE',  ( 0.000000000000000000, 0.000000000000000000, 1.000000000000000000 ) ) ;
#318 = DATE_TIME_ROLE ( 'creation_date' ) ;
#319 = CC_DESIGN_PERSON_AND_ORGANIZATION_ASSIGNMENT ( #19, #373, ( #413 ) ) ;
#320 = ADVANCED_FACE ( 'NONE', ( #177 ), #43, .T. ) ;
#321 = EDGE_LOOP ( 'NONE', ( #219, #479, #52, #350 ) ) ;
#322 = DIRECTION ( 'NONE',  ( 0.9773423990707855724, 2.592141784129481095E-17, 0.2116644395701871850 ) ) ;
#323 = SHAPE_DEFINITION_REPRESENTATION ( #6, #80 ) ;
#324 = ORIENTED_EDGE ( 'NONE', *, *, #203, .F. ) ;
#325 = DIRECTION ( 'NONE',  ( -0.9773423990707854614, 0.000000000000000000, 0.2116644395701873793 ) ) ;
#326 = DATE_TIME_ROLE ( 'classification_date' ) ;
#327 = ORIENTED_EDGE ( 'NONE', *, *, #112, .T. ) ;
#328 = AXIS2_PLACEMENT_3D ( 'NONE', #435, #38, #81 ) ;
#329 = CARTESIAN_POINT ( 'NONE',  ( 43.05299999999999727, 0.000000000000000000, 6.000000000000000000 ) ) ;
#330 = PERSON_AND_ORGANIZATION ( #497, #59 ) ;
#331 = CARTESIAN_POINT ( 'NONE',  ( 10.68749999999999822, 7.173827868555300498E-16, -5.715749999999999886 ) ) ;
#332 = LOCAL_TIME ( 23, 4, 48.00000000000000000, #231 ) ;
#333 = FACE_OUTER_BOUND ( 'NONE', #321, .T. ) ;
#334 = CYLINDRICAL_SURFACE ( 'NONE', #346, 6.000000000000000000 ) ;
#335 = FACE_OUTER_BOUND ( 'NONE', #486, .T. ) ;
#336 = LINE ( 'NONE', #167, #82 ) ;
#337 = AXIS2_PLACEMENT_3D ( 'NONE', #289, #248, #287 ) ;
#338 = AXIS2_PLACEMENT_3D ( 'NONE', #347, #393, #387 ) ;
#339 = CARTESIAN_POINT ( 'NONE',  ( 44.00000000000000711, 6.000000000000000000, 0.000000000000000000 ) ) ;
#340 = CC_DESIGN_SECURITY_CLASSIFICATION ( #506, ( #413 ) ) ;
#341 = ADVANCED_FACE ( 'NONE', ( #31 ), #471, .T. ) ;
#342 = DIRECTION ( 'NONE',  ( 0.000000000000000000, 0.000000000000000000, 1.000000000000000000 ) ) ;
#343 = ORIENTED_EDGE ( 'NONE', *, *, #239, .T. ) ;
#344 = AXIS2_PLACEMENT_3D ( 'NONE', #480, #575, #134 ) ;
#345 = CARTESIAN_POINT ( 'NONE',  ( 11.99999999999999822, 0.000000000000000000, 0.000000000000000000 ) ) ;
#346 = AXIS2_PLACEMENT_3D ( 'NONE', #508, #513, #379 ) ;
#347 = CARTESIAN_POINT ( 'NONE',  ( 0.9469999999999999529, 0.000000000000000000, 0.000000000000000000 ) ) ;
#348 = VERTEX_POINT ( 'NONE', #520 ) ;
#349 = FACE_OUTER_BOUND ( 'NONE', #526, .T. ) ;
#350 = ORIENTED_EDGE ( 'NONE', *, *, #400, .F. ) ;
#351 = DIRECTION ( 'NONE',  ( 0.000000000000000000, 0.000000000000000000, 1.000000000000000000 ) ) ;
#352 = CARTESIAN_POINT ( 'NONE',  ( 24.00000000000000355, 0.000000000000000000, 0.000000000000000000 ) ) ;
#353 = ORIENTED_EDGE ( 'NONE', *, *, #464, .T. ) ;
#354 = DIRECTION ( 'NONE',  ( 0.000000000000000000, 0.000000000000000000, 1.000000000000000000 ) ) ;
#355 = EDGE_CURVE ( 'NONE', #348, #432, #256, .T. ) ;
#356 = LOCAL_TIME ( 23, 4, 48.00000000000000000, #139 ) ;
#357 = DIRECTION ( 'NONE',  ( -1.000000000000000000, -0.000000000000000000, -0.000000000000000000 ) ) ;
#358 = ORIENTED_EDGE ( 'NONE', *, *, #45, .F. ) ;
#359 = EDGE_CURVE ( 'NONE', #547, #145, #550, .T. ) ;
#360 = DIRECTION ( 'NONE',  ( -1.000000000000000000, -0.000000000000000000, -0.000000000000000000 ) ) ;
#361 = ORIENTED_EDGE ( 'NONE', *, *, #313, .F. ) ;
#362 = AXIS2_PLACEMENT_3D ( 'NONE', #431, #72, #68 ) ;
#363 = AXIS2_PLACEMENT_3D ( 'NONE', #345, #382, #206 ) ;
#364 = FACE_OUTER_BOUND ( 'NONE', #37, .T. ) ;
#365 = VERTEX_POINT ( 'NONE', #570 ) ;
#366 = DIRECTION ( 'NONE',  ( 0.000000000000000000, 0.000000000000000000, 1.000000000000000000 ) ) ;
#367 = PERSON_AND_ORGANIZATION ( #497, #59 ) ;
#368 = ORIENTED_EDGE ( 'NONE', *, *, #199, .F. ) ;
#369 = DIRECTION ( 'NONE',  ( -0.9773423990707853504, 0.000000000000000000, 0.2116644395701877679 ) ) ;
#370 = AXIS2_PLACEMENT_3D ( 'NONE', #41, #573, #266 ) ;
#371 = EDGE_CURVE ( 'NONE', #145, #523, #455, .T. ) ;
#372 = DIRECTION ( 'NONE',  ( -1.000000000000000000, -0.000000000000000000, -0.000000000000000000 ) ) ;
#373 = PERSON_AND_ORGANIZATION_ROLE ( 'design_supplier' ) ;
#374 = CARTESIAN_POINT ( 'NONE',  ( 12.00000000000000000, 6.651669089568848699E-16, -5.431499999999999773 ) ) ;
#375 = CC_DESIGN_DATE_AND_TIME_ASSIGNMENT ( #16, #318, ( #69 ) ) ;
#376 = EDGE_CURVE ( 'NONE', #523, #500, #193, .T. ) ;
#377 = CARTESIAN_POINT ( 'NONE',  ( 9.375000000000000000, 0.000000000000000000, 6.000000000000000000 ) ) ;
#378 = DIRECTION ( 'NONE',  ( 0.000000000000000000, 0.000000000000000000, 1.000000000000000000 ) ) ;
#379 = DIRECTION ( 'NONE',  ( 0.000000000000000000, 0.000000000000000000, 1.000000000000000000 ) ) ;
#380 = AXIS2_PLACEMENT_3D ( 'NONE', #8, #189, #453 ) ;
#381 = DIRECTION ( 'NONE',  ( 0.000000000000000000, 0.000000000000000000, -1.000000000000000000 ) ) ;
#382 = DIRECTION ( 'NONE',  ( 1.000000000000000000, 0.000000000000000000, 0.000000000000000000 ) ) ;
#383 = CARTESIAN_POINT ( 'NONE',  ( 10.68749999999999822, 0.000000000000000000, 0.000000000000000000 ) ) ;
#384 = CIRCLE ( 'NONE', #362, 5.715750000000000774 ) ;
#385 = AXIS2_PLACEMENT_3D ( 'NONE', #445, #446, #259 ) ;
#386 = VERTEX_POINT ( 'NONE', #95 ) ;
#387 = DIRECTION ( 'NONE',  ( 0.000000000000000000, 0.000000000000000000, -1.000000000000000000 ) ) ;
#388 = ORIENTED_EDGE ( 'NONE', *, *, #419, .T. ) ;
#389 = EDGE_LOOP ( 'NONE', ( #79, #457, #1, #368 ) ) ;
#390 = DIRECTION ( 'NONE',  ( 1.000000000000000000, 0.000000000000000000, 0.000000000000000000 ) ) ;
#391 = ORIENTED_EDGE ( 'NONE', *, *, #62, .T. ) ;
#392 = ORIENTED_EDGE ( 'NONE', *, *, #125, .T. ) ;
#393 = DIRECTION ( 'NONE',  ( 1.000000000000000000, 0.000000000000000000, 0.000000000000000000 ) ) ;
#394 = VECTOR ( 'NONE', #325, 999.9999999999998863 ) ;
#395 = EDGE_CURVE ( 'NONE', #399, #443, #146, .T. ) ;
#396 = ORIENTED_EDGE ( 'NONE', *, *, #62, .F. ) ;
#397 = ORIENTED_EDGE ( 'NONE', *, *, #371, .T. ) ;
#398 = DIRECTION ( 'NONE',  ( 0.000000000000000000, 0.000000000000000000, 1.000000000000000000 ) ) ;
#399 = VERTEX_POINT ( 'NONE', #542 ) ;
#400 = EDGE_CURVE ( 'NONE', #432, #443, #225, .T. ) ;
#401 = DIRECTION ( 'NONE',  ( 1.000000000000000000, 0.000000000000000000, 0.000000000000000000 ) ) ;
#402 = MANIFOLD_SOLID_BREP ( 'BaseBody', #132 ) ;
#403 = ORIENTED_EDGE ( 'NONE', *, *, #105, .T. ) ;
#404 = DIRECTION ( 'NONE',  ( 0.000000000000000000, 0.000000000000000000, 1.000000000000000000 ) ) ;
#405 = CARTESIAN_POINT ( 'NONE',  ( 0.000000000000000000, 0.000000000000000000, 0.000000000000000000 ) ) ;
#406 = ORIENTED_EDGE ( 'NONE', *, *, #359, .T. ) ;
#407 = AXIS2_PLACEMENT_3D ( 'NONE', #352, #357, #354 ) ;
#408 = CARTESIAN_POINT ( 'NONE',  ( 24.00000000000000000, 0.000000000000000000, 5.431499999999999773 ) ) ;
#409 = PERSON_AND_ORGANIZATION_ROLE ( 'classification_officer' ) ;
#410 = AXIS2_PLACEMENT_3D ( 'NONE', #153, #462, #63 ) ;
#411 = ORIENTED_EDGE ( 'NONE', *, *, #212, .F. ) ;
#412 = DIRECTION ( 'NONE',  ( -0.9773423990707853504, 2.592141784129488183E-17, -0.2116644395701877679 ) ) ;
#413 = PRODUCT_DEFINITION_FORMATION_WITH_SPECIFIED_SOURCE ( '任何', '', #449, .NOT_KNOWN. ) ;
#414 = CALENDAR_DATE ( 2026, 10, 5 ) ;
#415 = ORIENTED_EDGE ( 'NONE', *, *, #566, .T. ) ;
#416 = EDGE_CURVE ( 'NONE', #523, #386, #250, .T. ) ;
#417 = CARTESIAN_POINT ( 'NONE',  ( 43.05299999999999727, 7.347880794884119736E-16, -6.000000000000000000 ) ) ;
#418 = PERSON_AND_ORGANIZATION ( #497, #59 ) ;
#419 = EDGE_CURVE ( 'NONE', #547, #432, #60, .T. ) ;
#420 = VECTOR ( 'NONE', #213, 1000.000000000000000 ) ;
#421 = LINE ( 'NONE', #555, #285 ) ;
#422 = AXIS2_PLACEMENT_3D ( 'NONE', #433, #64, #163 ) ;
#423 = CIRCLE ( 'NONE', #170, 5.053000000000008818 ) ;
#424 = CARTESIAN_POINT ( 'NONE',  ( 0.000000000000000000, 0.000000000000000000, 0.000000000000000000 ) ) ;
#425 = CC_DESIGN_PERSON_AND_ORGANIZATION_ASSIGNMENT ( #243, #91, ( #413 ) ) ;
#426 = EDGE_CURVE ( 'NONE', #145, #443, #56, .T. ) ;
#427 = CYLINDRICAL_SURFACE ( 'NONE', #483, 6.000000000000000000 ) ;
#428 = CARTESIAN_POINT ( 'NONE',  ( 0.000000000000000000, 6.188140276091586829E-16, 5.053000000000008818 ) ) ;
#429 = CARTESIAN_POINT ( 'NONE',  ( 44.00000000000000711, 0.000000000000000000, 5.052999999999983949 ) ) ;
#430 = VECTOR ( 'NONE', #217, 1000.000000000000114 ) ;
#431 = CARTESIAN_POINT ( 'NONE',  ( 22.68750000000000711, 0.000000000000000000, 0.000000000000000000 ) ) ;
#432 = VERTEX_POINT ( 'NONE', #502 ) ;
#433 = CARTESIAN_POINT ( 'NONE',  ( 43.05299999999999727, 0.000000000000000000, 0.000000000000000000 ) ) ;
#434 = LOCAL_TIME ( 23, 4, 48.00000000000000000, #151 ) ;
#435 = CARTESIAN_POINT ( 'NONE',  ( 12.00000000000000000, 0.000000000000000000, 0.000000000000000000 ) ) ;
#436 = CARTESIAN_POINT ( 'NONE',  ( -1.310841663519413114, 7.347880794884119736E-16, -6.000000000000000000 ) ) ;
#437 = ORIENTED_EDGE ( 'NONE', *, *, #461, .F. ) ;
#438 = CIRCLE ( 'NONE', #261, 6.000000000000000000 ) ;
#439 = CIRCLE ( 'NONE', #407, 6.000000000000000000 ) ;
#440 = ORIENTED_EDGE ( 'NONE', *, *, #278, .F. ) ;
#441 = AXIS2_PLACEMENT_3D ( 'NONE', #13, #401, #4 ) ;
#442 = DIRECTION ( 'NONE',  ( 0.000000000000000000, 0.000000000000000000, -1.000000000000000000 ) ) ;
#443 = VERTEX_POINT ( 'NONE', #498 ) ;
#444 = VERTEX_POINT ( 'NONE', #238 ) ;
#445 = CARTESIAN_POINT ( 'NONE',  ( 21.37500000000000355, 0.000000000000000000, 0.000000000000000000 ) ) ;
#446 = DIRECTION ( 'NONE',  ( -1.000000000000000000, -0.000000000000000000, -0.000000000000000000 ) ) ;
#447 = LINE ( 'NONE', #408, #130 ) ;
#448 = APPROVAL_STATUS ( 'not_yet_approved' ) ;
#449 = PRODUCT ( 'GBT_897-1988_M12_32', 'GBT_897-1988_M12_32', '', ( #5 ) ) ;
#450 = CARTESIAN_POINT ( 'NONE',  ( 11.99999999999999822, 0.000000000000000000, -6.000000000000000000 ) ) ;
#451 = APPROVAL_ROLE ( '' ) ;
#452 = ORIENTED_EDGE ( 'NONE', *, *, #376, .T. ) ;
#453 = DIRECTION ( 'NONE',  ( 0.000000000000000000, 0.000000000000000000, -1.000000000000000000 ) ) ;
#454 = ORIENTED_EDGE ( 'NONE', *, *, #566, .F. ) ;
#455 = LINE ( 'NONE', #15, #394 ) ;
#456 = APPLICATION_PROTOCOL_DEFINITION ( 'international standard', 'config_control_design', 1994, #118 ) ;
#457 = ORIENTED_EDGE ( 'NONE', *, *, #70, .T. ) ;
#458 = DIRECTION ( 'NONE',  ( -1.000000000000000000, -0.000000000000000000, -0.000000000000000000 ) ) ;
#459 = APPROVAL_PERSON_ORGANIZATION ( #330, #543, #194 ) ;
#460 = APPLICATION_PROTOCOL_DEFINITION ( 'international standard', 'config_control_design', 1994, #155 ) ;
#461 = EDGE_CURVE ( 'NONE', #496, #399, #447, .T. ) ;
#462 = DIRECTION ( 'NONE',  ( -1.000000000000000000, -0.000000000000000000, -0.000000000000000000 ) ) ;
#463 = DIRECTION ( 'NONE',  ( -1.000000000000000000, -0.000000000000000000, -0.000000000000000000 ) ) ;
#464 = EDGE_CURVE ( 'NONE', #181, #196, #100, .T. ) ;
#465 = AXIS2_PLACEMENT_3D ( 'NONE', #554, #165, #342 ) ;
#466 = CIRCLE ( 'NONE', #370, 6.000000000000000000 ) ;
#467 = DIRECTION ( 'NONE',  ( 0.000000000000000000, 0.000000000000000000, 1.000000000000000000 ) ) ;
#468 = DIRECTION ( 'NONE',  ( 0.000000000000000000, 0.000000000000000000, 1.000000000000000000 ) ) ;
#469 = DIRECTION ( 'NONE',  ( -0.7071067811865452413, 8.659560562354959975E-17, -0.7071067811865497932 ) ) ;
#470 = DIRECTION ( 'NONE',  ( -1.000000000000000000, -0.000000000000000000, -0.000000000000000000 ) ) ;
#471 = CONICAL_SURFACE ( 'NONE', #200, 6.000000000000000000, 0.2132776726905073472 ) ;
#472 = CARTESIAN_POINT ( 'NONE',  ( 22.68750000000000711, 0.000000000000000000, 0.000000000000000000 ) ) ;
#473 = ADVANCED_FACE ( 'NONE', ( #150 ), #12, .T. ) ;
#474 = EDGE_CURVE ( 'NONE', #365, #348, #281, .T. ) ;
#475 = LINE ( 'NONE', #128, #430 ) ;
#476 = ORIENTED_EDGE ( 'NONE', *, *, #105, .F. ) ;
#477 = CARTESIAN_POINT ( 'NONE',  ( 0.000000000000000000, 6.768010535487853282E-16, 5.053000000000008818 ) ) ;
#478 = EDGE_CURVE ( 'NONE', #491, #444, #136, .T. ) ;
#479 = ORIENTED_EDGE ( 'NONE', *, *, #215, .T. ) ;
#480 = CARTESIAN_POINT ( 'NONE',  ( 44.00000000000000711, 0.000000000000000000, 0.000000000000000000 ) ) ;
#481 = ORIENTED_EDGE ( 'NONE', *, *, #70, .F. ) ;
#482 = ORIENTED_EDGE ( 'NONE', *, *, #474, .T. ) ;
#483 = AXIS2_PLACEMENT_3D ( 'NONE', #205, #159, #109 ) ;
#484 = DIRECTION ( 'NONE',  ( 0.000000000000000000, 0.000000000000000000, 1.000000000000000000 ) ) ;
#485 = VERTEX_POINT ( 'NONE', #279 ) ;
#486 = EDGE_LOOP ( 'NONE', ( #260, #276, #440, #306 ) ) ;
#487 = CARTESIAN_POINT ( 'NONE',  ( 24.00000000000000355, 0.000000000000000000, 0.000000000000000000 ) ) ;
#488 = ORIENTED_EDGE ( 'NONE', *, *, #84, .T. ) ;
#489 = DIRECTION ( 'NONE',  ( -1.000000000000000000, -0.000000000000000000, -0.000000000000000000 ) ) ;
#490 = PERSON_AND_ORGANIZATION ( #497, #59 ) ;
#491 = VERTEX_POINT ( 'NONE', #417 ) ;
#492 = FACE_OUTER_BOUND ( 'NONE', #236, .T. ) ;
#493 = CALENDAR_DATE ( 2026, 10, 5 ) ;
#494 = ORIENTED_EDGE ( 'NONE', *, *, #371, .F. ) ;
#495 = CARTESIAN_POINT ( 'NONE',  ( -1.310841663519413114, 0.000000000000000000, 0.000000000000000000 ) ) ;
#496 = VERTEX_POINT ( 'NONE', #230 ) ;
#497 = PERSON ( '未指定', '未指定', '未指定', ('未指定'), ('未指定'), ('未指定') ) ;
#498 = CARTESIAN_POINT ( 'NONE',  ( 11.99999999999999822, 7.347880794884119736E-16, 6.000000000000000000 ) ) ;
#499 = APPROVAL_DATE_TIME ( #47, #233 ) ;
#500 = VERTEX_POINT ( 'NONE', #18 ) ;
#501 = ADVANCED_FACE ( 'NONE', ( #201 ), #229, .F. ) ;
#502 = CARTESIAN_POINT ( 'NONE',  ( 11.99999999999999822, 0.000000000000000000, -6.000000000000000000 ) ) ;
#503 = APPROVAL_ROLE ( '' ) ;
#504 = ADVANCED_FACE ( 'NONE', ( #492 ), #275, .T. ) ;
#505 =( LENGTH_UNIT ( ) NAMED_UNIT ( * ) SI_UNIT ( .MILLI., .METRE. ) );
#506 = SECURITY_CLASSIFICATION ( '', '', #273 ) ;
#507 = FACE_OUTER_BOUND ( 'NONE', #226, .T. ) ;
#508 = CARTESIAN_POINT ( 'NONE',  ( -1.310841663519413114, 0.000000000000000000, 0.000000000000000000 ) ) ;
#509 = CARTESIAN_POINT ( 'NONE',  ( 0.000000000000000000, 0.000000000000000000, 0.000000000000000000 ) ) ;
#510 = CONICAL_SURFACE ( 'NONE', #363, 6.000000000000000000, 0.2132776726905070697 ) ;
#511 = LINE ( 'NONE', #244, #66 ) ;
#512 = AXIS2_PLACEMENT_3D ( 'NONE', #107, #372, #468 ) ;
#513 = DIRECTION ( 'NONE',  ( -1.000000000000000000, -0.000000000000000000, -0.000000000000000000 ) ) ;
#514 = PLANE ( 'NONE',  #169 ) ;
#515 = AXIS2_PLACEMENT_3D ( 'NONE', #383, #122, #563 ) ;
#516 = EDGE_CURVE ( 'NONE', #145, #547, #292, .T. ) ;
#517 = FACE_OUTER_BOUND ( 'NONE', #40, .T. ) ;
#518 = ADVANCED_FACE ( 'NONE', ( #364 ), #143, .T. ) ;
#519 = ADVANCED_FACE ( 'NONE', ( #333 ), #427, .T. ) ;
#520 = CARTESIAN_POINT ( 'NONE',  ( 21.37500000000000355, 7.347880794884119736E-16, -6.000000000000000000 ) ) ;
#521 = ORIENTED_EDGE ( 'NONE', *, *, #313, .T. ) ;
#522 = CARTESIAN_POINT ( 'NONE',  ( 43.05299999999999727, 0.000000000000000000, 6.000000000000000000 ) ) ;
#523 = VERTEX_POINT ( 'NONE', #377 ) ;
#524 = FACE_OUTER_BOUND ( 'NONE', #389, .T. ) ;
#525 = DIRECTION ( 'NONE',  ( 1.000000000000000000, 0.000000000000000000, 0.000000000000000000 ) ) ;
#526 = EDGE_LOOP ( 'NONE', ( #87, #9, #388, #530 ) ) ;
#527 = ORIENTED_EDGE ( 'NONE', *, *, #461, .T. ) ;
#528 = VECTOR ( 'NONE', #548, 1000.000000000000227 ) ;
#529 = DIRECTION ( 'NONE',  ( 0.000000000000000000, 0.000000000000000000, -1.000000000000000000 ) ) ;
#530 = ORIENTED_EDGE ( 'NONE', *, *, #400, .T. ) ;
#531 =( GEOMETRIC_REPRESENTATION_CONTEXT ( 3 ) GLOBAL_UNCERTAINTY_ASSIGNED_CONTEXT ( ( #312 ) ) GLOBAL_UNIT_ASSIGNED_CONTEXT ( ( #505, #553, #247 ) ) REPRESENTATION_CONTEXT ( 'NONE', 'WORKASPACE' ) );
#532 = DESIGN_CONTEXT ( 'detailed design', #118, 'design' ) ;
#533 = CARTESIAN_POINT ( 'NONE',  ( 11.99999999999999822, 7.347880794884119736E-16, 6.000000000000000000 ) ) ;
#534 = ADVANCED_FACE ( 'NONE', ( #335 ), #293, .T. ) ;
#535 = VERTEX_POINT ( 'NONE', #115 ) ;
#536 = CARTESIAN_POINT ( 'NONE',  ( -1.310841663519413114, 0.000000000000000000, 0.000000000000000000 ) ) ;
#537 = CALENDAR_DATE ( 2026, 10, 5 ) ;
#538 = EDGE_LOOP ( 'NONE', ( #228, #327, #39, #494 ) ) ;
#539 = AXIS2_PLACEMENT_3D ( 'NONE', #28, #110, #467 ) ;
#540 = CIRCLE ( 'NONE', #262, 6.000000000000000000 ) ;
#541 = VECTOR ( 'NONE', #412, 1000.000000000000000 ) ;
#542 = CARTESIAN_POINT ( 'NONE',  ( 21.37500000000000355, 0.000000000000000000, 6.000000000000000000 ) ) ;
#543 = APPROVAL ( #144, '未指定' ) ;
#544 = EDGE_LOOP ( 'NONE', ( #182, #343 ) ) ;
#545 = DIRECTION ( 'NONE',  ( 0.9773423990707855724, 0.000000000000000000, -0.2116644395701871850 ) ) ;
#546 = DIRECTION ( 'NONE',  ( 0.000000000000000000, 0.000000000000000000, 1.000000000000000000 ) ) ;
#547 = VERTEX_POINT ( 'NONE', #331 ) ;
#548 = DIRECTION ( 'NONE',  ( -0.7071067811865452413, 0.000000000000000000, 0.7071067811865497932 ) ) ;
#549 = PERSON_AND_ORGANIZATION ( #497, #59 ) ;
#550 = CIRCLE ( 'NONE', #515, 5.715749999999999886 ) ;
#551 = CARTESIAN_POINT ( 'NONE',  ( 0.000000000000000000, 0.000000000000000000, -5.053000000000008818 ) ) ;
#552 = CALENDAR_DATE ( 2026, 10, 5 ) ;
#553 =( NAMED_UNIT ( * ) PLANE_ANGLE_UNIT ( ) SI_UNIT ( $, .RADIAN. ) );
#554 = CARTESIAN_POINT ( 'NONE',  ( 24.00000000000000355, 0.000000000000000000, 0.000000000000000000 ) ) ;
#555 = CARTESIAN_POINT ( 'NONE',  ( 24.00000000000000355, 0.000000000000000000, -6.000000000000000000 ) ) ;
#556 = FACE_OUTER_BOUND ( 'NONE', #127, .T. ) ;
#557 = DIRECTION ( 'NONE',  ( 0.000000000000000000, 0.000000000000000000, 1.000000000000000000 ) ) ;
#558 = AXIS2_PLACEMENT_3D ( 'NONE', #509, #288, #286 ) ;
#559 = DIRECTION ( 'NONE',  ( 0.7071067811865507924, 8.659560562354893415E-17, 0.7071067811865442421 ) ) ;
#560 = ADVANCED_FACE ( 'NONE', ( #507 ), #83, .T. ) ;
#561 = FACE_OUTER_BOUND ( 'NONE', #538, .T. ) ;
#562 = ADVANCED_FACE ( 'NONE', ( #157 ), #241, .T. ) ;
#563 = DIRECTION ( 'NONE',  ( 0.000000000000000000, 0.000000000000000000, -1.000000000000000000 ) ) ;
#564 = CONICAL_SURFACE ( 'NONE', #337, 5.431499999999999773, 0.2132776726905073195 ) ;
#565 = CONICAL_SURFACE ( 'NONE', #316, 6.000000000000000000, 0.2132776726905070697 ) ;
#566 = EDGE_CURVE ( 'NONE', #365, #444, #421, .T. ) ;
#567 = ORIENTED_EDGE ( 'NONE', *, *, #300, .F. ) ;
#568 = CARTESIAN_POINT ( 'NONE',  ( 24.00000000000000355, 0.000000000000000000, 0.000000000000000000 ) ) ;
#569 = CARTESIAN_POINT ( 'NONE',  ( 24.00000000000000000, 0.000000000000000000, 0.000000000000000000 ) ) ;
#570 = CARTESIAN_POINT ( 'NONE',  ( 22.68750000000000711, 7.173827868555301484E-16, -5.715750000000000774 ) ) ;
#571 = ORIENTED_EDGE ( 'NONE', *, *, #257, .T. ) ;
#572 = AXIS2_PLACEMENT_3D ( 'NONE', #32, #180, #529 ) ;
#573 = DIRECTION ( 'NONE',  ( -1.000000000000000000, -0.000000000000000000, -0.000000000000000000 ) ) ;
#574 = VERTEX_POINT ( 'NONE', #551 ) ;
#575 = DIRECTION ( 'NONE',  ( 1.000000000000000000, 0.000000000000000000, 0.000000000000000000 ) ) ;
ENDSEC;
END-ISO-10303-21;
