ISO-10303-21;
HEADER;
FILE_DESCRIPTION (( 'STEP AP203' ),
    '1' );
FILE_NAME ('GBT_6170-2000_M12.STEP',
    '2026-05-10T15:05:56',
    ( '' ),
    ( '' ),
    'SwSTEP 2.0',
    'SolidWorks 2022',
    '' );
FILE_SCHEMA (( 'CONFIG_CONTROL_DESIGN' ));
ENDSEC;

DATA;
#1 = EDGE_LOOP ( 'NONE', ( #380, #28, #170, #164, #284, #254 ) ) ;
#2 = CARTESIAN_POINT ( 'NONE',  ( -4.350893199631578057, -9.000000000000000000, -10.02365139174927577 ) ) ;
#3 = APPROVAL_PERSON_ORGANIZATION ( #547, #406, #174 ) ;
#4 = VERTEX_POINT ( 'NONE', #612 ) ;
#5 = LINE ( 'NONE', #420, #581 ) ;
#6 = ORIENTED_EDGE ( 'NONE', *, *, #109, .F. ) ;
#7 = APPROVAL_STATUS ( 'not_yet_approved' ) ;
#8 = CARTESIAN_POINT ( 'NONE',  ( 6.911209019339111137, 6.029434836776387030, -10.50606857797689742 ) ) ;
#9 = CARTESIAN_POINT ( 'NONE',  ( -8.671058061587169519, 2.981286881951316303, -0.3082847048765419151 ) ) ;
#10 = ORIENTED_EDGE ( 'NONE', *, *, #494, .F. ) ;
#11 = CARTESIAN_POINT ( 'NONE',  ( -4.350893199631576280, -9.000000000000000000, -0.7763486082507258246 ) ) ;
#12 = DIRECTION ( 'NONE',  ( 1.000000000000000000, 0.000000000000000000, 0.000000000000000000 ) ) ;
#13 = CONICAL_SURFACE ( 'NONE', #654, 5.599750704922564104, 0.5235987755982962621 ) ;
#14 = EDGE_LOOP ( 'NONE', ( #621, #607, #168, #192 ) ) ;
#15 = CARTESIAN_POINT ( 'NONE',  ( 0.8811440202992387727, -8.999999999999996447, -0.2352461337041237832 ) ) ;
#16 = CARTESIAN_POINT ( 'NONE',  ( -4.350893199631574504, 9.000000000000001776, -0.7763486082507271568 ) ) ;
#17 = ORIENTED_EDGE ( 'NONE', *, *, #214, .T. ) ;
#18 = COORDINATED_UNIVERSAL_TIME_OFFSET ( 8, 0, .AHEAD. ) ;
#19 = LINE ( 'NONE', #347, #234 ) ;
#20 = ORIENTED_EDGE ( 'NONE', *, *, #661, .F. ) ;
#21 = FACE_OUTER_BOUND ( 'NONE', #121, .T. ) ;
#22 = CARTESIAN_POINT ( 'NONE',  ( 10.39230484541327115, -1.847212893524762823E-15, -1.020353928239460917 ) ) ;
#23 = AXIS2_PLACEMENT_3D ( 'NONE', #676, #611, #353 ) ;
#24 = FACE_OUTER_BOUND ( 'NONE', #114, .T. ) ;
#25 = CARTESIAN_POINT ( 'NONE',  ( -5.196152422706624918, -8.999999999999998224, -1.020353928239457364 ) ) ;
#26 = FACE_OUTER_BOUND ( 'NONE', #448, .T. ) ;
#27 = B_SPLINE_CURVE_WITH_KNOTS ( 'NONE', 3,
 ( #22, #488, #658, #444, #598, #485, #57, #595, #118, #230, #602, #65 ),
 .UNSPECIFIED., .F., .F.,
 ( 4, 2, 2, 2, 2, 4 ),
 ( 2.380730968227874443E-07, 0.002624151387325926888, 0.005248064701555030416, 0.006560021358669581963, 0.007871978015784132643, 0.01049589133001323227 ),
 .UNSPECIFIED. ) ;
#28 = ORIENTED_EDGE ( 'NONE', *, *, #603, .T. ) ;
#29 = CARTESIAN_POINT ( 'NONE',  ( -8.677248248780777828, -2.970565163223619187, -0.2939314220230966335 ) ) ;
#30 = DIRECTION ( 'NONE',  ( 1.000000000000000000, 0.000000000000000000, 0.000000000000000000 ) ) ;
#31 = ORIENTED_EDGE ( 'NONE', *, *, #249, .T. ) ;
#32 = CC_DESIGN_PERSON_AND_ORGANIZATION_ASSIGNMENT ( #338, #538, ( #388 ) ) ;
#33 = CARTESIAN_POINT ( 'NONE',  ( -6.699377358084672274, -6.396338036720782938, -0.3626887565398619895 ) ) ;
#34 = CARTESIAN_POINT ( 'NONE',  ( 0.000000000000000000, 0.000000000000000000, -0.5467507049225790450 ) ) ;
#35 = CONICAL_SURFACE ( 'NONE', #357, 5.052999999999999936, 1.047197551196600518 ) ;
#36 = ADVANCED_FACE ( 'NONE', ( #24 ), #664, .T. ) ;
#37 = CARTESIAN_POINT ( 'NONE',  ( 10.39230484541327115, -1.847212893524762823E-15, -10.80000000000000071 ) ) ;
#38 = CARTESIAN_POINT ( 'NONE',  ( -5.052999999999999936, 6.188140276091574996E-16, -10.80000000000000071 ) ) ;
#39 = CARTESIAN_POINT ( 'NONE',  ( 0.000000000000000000, 0.000000000000000000, -9.779646071760542014 ) ) ;
#40 = ADVANCED_FACE ( 'NONE', ( #625 ), #527, .F. ) ;
#41 = DIRECTION ( 'NONE',  ( -1.000000000000000000, 0.000000000000000000, 0.000000000000000000 ) ) ;
#42 = APPROVAL ( #640, '未指定' ) ;
#43 = LINE ( 'NONE', #475, #135 ) ;
#44 = CARTESIAN_POINT ( 'NONE',  ( -5.196152422706628471, -8.999999999999998224, -9.779646071760542014 ) ) ;
#45 = AXIS2_PLACEMENT_3D ( 'NONE', #501, #653, #12 ) ;
#46 = AXIS2_PLACEMENT_3D ( 'NONE', #37, #559, #672 ) ;
#47 = CARTESIAN_POINT ( 'NONE',  ( 0.8811440202992383286, 9.000000000000003553, -0.2352461337041264477 ) ) ;
#48 = DATE_AND_TIME ( #104, #423 ) ;
#49 = EDGE_CURVE ( 'NONE', #396, #217, #252, .T. ) ;
#50 = FACE_OUTER_BOUND ( 'NONE', #354, .T. ) ;
#51 = ORIENTED_EDGE ( 'NONE', *, *, #86, .T. ) ;
#52 = APPROVAL_DATE_TIME ( #589, #406 ) ;
#53 = ADVANCED_FACE ( 'NONE', ( #481 ), #35, .F. ) ;
#54 = ORIENTED_EDGE ( 'NONE', *, *, #93, .F. ) ;
#55 = SECURITY_CLASSIFICATION_LEVEL ( 'unclassified' ) ;
#56 = CARTESIAN_POINT ( 'NONE',  ( -5.196152422706624918, -8.999999999999998224, -1.020353928239457364 ) ) ;
#57 = CARTESIAN_POINT ( 'NONE',  ( 7.356386425527808193, 5.258364950875836108, -0.2350172127956611789 ) ) ;
#58 = ORIENTED_EDGE ( 'NONE', *, *, #440, .T. ) ;
#59 = CARTESIAN_POINT ( 'NONE',  ( 0.000000000000000000, 0.000000000000000000, -10.80000000000000071 ) ) ;
#60 = CARTESIAN_POINT ( 'NONE',  ( 6.000000000000012434, 0.000000000000000000, 0.000000000000000000 ) ) ;
#61 = PRODUCT_DEFINITION ( '未知', '', #388, #73 ) ;
#62 = ORIENTED_EDGE ( 'NONE', *, *, #401, .T. ) ;
#63 = UNCERTAINTY_MEASURE_WITH_UNIT (LENGTH_MEASURE( 1.000000000000000082E-05 ), #632, 'distance_accuracy_value', 'NONE');
#64 = CARTESIAN_POINT ( 'NONE',  ( -4.350893199631572728, 9.000000000000001776, -10.02365139174927755 ) ) ;
#65 = CARTESIAN_POINT ( 'NONE',  ( 5.196152422706630247, 8.999999999999996447, -1.020353928239457364 ) ) ;
#66 = VECTOR ( 'NONE', #360, 1000.000000000000000 ) ;
#67 = AXIS2_PLACEMENT_3D ( 'NONE', #88, #306, #130 ) ;
#68 = VERTEX_POINT ( 'NONE', #257 ) ;
#69 = APPROVAL_ROLE ( '' ) ;
#70 = CARTESIAN_POINT ( 'NONE',  ( -3.485064651459173213, -8.999999999999998224, -0.5716666925390613274 ) ) ;
#71 = FACE_OUTER_BOUND ( 'NONE', #667, .T. ) ;
#72 = ORIENTED_EDGE ( 'NONE', *, *, #610, .T. ) ;
#73 = DESIGN_CONTEXT ( 'detailed design', #601, 'design' ) ;
#74 = CARTESIAN_POINT ( 'NONE',  ( 10.39230484541327293, -3.613773744960424884E-15, 0.000000000000000000 ) ) ;
#75 = VERTEX_POINT ( 'NONE', #671 ) ;
#76 = CARTESIAN_POINT ( 'NONE',  ( -6.049193393864829460, -7.522489697016096599, -0.5727678148919288503 ) ) ;
#77 = CARTESIAN_POINT ( 'NONE',  ( 10.39230484541326049, 1.821459649775647449E-14, -9.779646071760542014 ) ) ;
#78 = PRODUCT_RELATED_PRODUCT_CATEGORY ( 'detail', '', ( #541 ) ) ;
#79 = AXIS2_PLACEMENT_3D ( 'NONE', #149, #530, #378 ) ;
#80 = DIRECTION ( 'NONE',  ( 0.000000000000000000, 0.000000000000000000, 1.000000000000000000 ) ) ;
#81 = LINE ( 'NONE', #626, #399 ) ;
#82 = FACE_OUTER_BOUND ( 'NONE', #394, .T. ) ;
#83 = ORIENTED_EDGE ( 'NONE', *, *, #518, .F. ) ;
#84 = DIRECTION ( 'NONE',  ( 0.000000000000000000, 0.000000000000000000, 1.000000000000000000 ) ) ;
#85 = CARTESIAN_POINT ( 'NONE',  ( 8.671058061587180177, -2.981286881951316747, -0.3082847048765485209 ) ) ;
#86 = EDGE_CURVE ( 'NONE', #217, #159, #412, .T. ) ;
#87 = VERTEX_POINT ( 'NONE', #675 ) ;
#88 = CARTESIAN_POINT ( 'NONE',  ( 0.000000000000000000, 0.000000000000000000, -10.80000000000000071 ) ) ;
#89 = DIRECTION ( 'NONE',  ( -0.8660254037844387076, -0.4999999999999999445, 0.000000000000000000 ) ) ;
#90 = CONICAL_SURFACE ( 'NONE', #222, 10.39230484541325872, 1.047197551196603627 ) ;
#91 = DIRECTION ( 'NONE',  ( -0.000000000000000000, -0.000000000000000000, -1.000000000000000000 ) ) ;
#92 = CARTESIAN_POINT ( 'NONE',  ( 7.347496549500762697, -5.273762667827677220, -0.2170722872947761228 ) ) ;
#93 = EDGE_CURVE ( 'NONE', #537, #558, #195, .T. ) ;
#94 = CARTESIAN_POINT ( 'NONE',  ( -5.196152422706626695, -8.999999999999998224, -10.80000000000000071 ) ) ;
#95 = DIRECTION ( 'NONE',  ( 0.000000000000000000, 0.000000000000000000, 1.000000000000000000 ) ) ;
#96 = EDGE_CURVE ( 'NONE', #568, #396, #198, .T. ) ;
#97 = CARTESIAN_POINT ( 'NONE',  ( 6.917399206532730993, -6.018713118048683697, -10.49171529512344847 ) ) ;
#98 = DIRECTION ( 'NONE',  ( 0.000000000000000000, 0.000000000000000000, 1.000000000000000000 ) ) ;
#99 = CARTESIAN_POINT ( 'NONE',  ( 5.196152422706629359, 9.000000000000001776, -9.779646071760538462 ) ) ;
#100 = CARTESIAN_POINT ( 'NONE',  ( -0.8767046892072396513, 9.000000000000005329, -0.2164203050678064899 ) ) ;
#101 = CARTESIAN_POINT ( 'NONE',  ( 0.000000000000000000, 0.000000000000000000, 0.000000000000000000 ) ) ;
#102 = VECTOR ( 'NONE', #642, 999.9999999999998863 ) ;
#103 = AXIS2_PLACEMENT_3D ( 'NONE', #144, #295, #366 ) ;
#104 = CALENDAR_DATE ( 2026, 10, 5 ) ;
#105 = ORIENTED_EDGE ( 'NONE', *, *, #401, .F. ) ;
#106 = VERTEX_POINT ( 'NONE', #369 ) ;
#107 = APPROVAL_DATE_TIME ( #439, #42 ) ;
#108 = CARTESIAN_POINT ( 'NONE',  ( -1.749343523779815612, 9.000000000000003553, -10.50815838292710502 ) ) ;
#109 = EDGE_CURVE ( 'NONE', #4, #637, #43, .T. ) ;
#110 = AXIS2_PLACEMENT_3D ( 'NONE', #145, #573, #408 ) ;
#111 = AXIS2_PLACEMENT_3D ( 'NONE', #101, #95, #422 ) ;
#112 = EDGE_CURVE ( 'NONE', #106, #129, #5, .T. ) ;
#113 = CARTESIAN_POINT ( 'NONE',  ( -6.000000000000012434, 7.347880794884133541E-16, 0.000000000000000000 ) ) ;
#114 = EDGE_LOOP ( 'NONE', ( #596, #10, #647, #651 ) ) ;
#115 = ADVANCED_FACE ( 'NONE', ( #373 ), #146, .T. ) ;
#116 = CARTESIAN_POINT ( 'NONE',  ( 4.356225351405586643, -8.999999999999996447, -0.7778878678817907621 ) ) ;
#117 = PRODUCT_DEFINITION_SHAPE ( 'NONE', 'NONE',  #61 ) ;
#118 = CARTESIAN_POINT ( 'NONE',  ( 6.699377358084680267, 6.396338036720782050, -0.3626887565398648205 ) ) ;
#119 = ORIENTED_EDGE ( 'NONE', *, *, #236, .F. ) ;
#120 = DIRECTION ( 'NONE',  ( 0.000000000000000000, -0.000000000000000000, 1.000000000000000000 ) ) ;
#121 = EDGE_LOOP ( 'NONE', ( #72, #212 ) ) ;
#122 = DATE_AND_TIME ( #330, #574 ) ;
#123 = CARTESIAN_POINT ( 'NONE',  ( 1.764868941695452831, 9.000000000000001776, -10.49054880345786245 ) ) ;
#124 = CARTESIAN_POINT ( 'NONE',  ( -5.196152422706624030, 8.999999999999998224, -1.020353928239457364 ) ) ;
#125 = VECTOR ( 'NONE', #340, 1000.000000000000000 ) ;
#126 = VERTEX_POINT ( 'NONE', #203 ) ;
#127 = B_SPLINE_CURVE_WITH_KNOTS ( 'NONE', 3,
 ( #313, #426, #207, #519, #255, #266, #525, #430, #635, #522, #2, #44 ),
 .UNSPECIFIED., .F., .F.,
 ( 4, 2, 2, 2, 2, 4 ),
 ( 0.003844717419923058231, 0.006467105964842147919, 0.007778300237301693197, 0.009089494509761240210, 0.01171188305468033250, 0.01433427159959942479 ),
 .UNSPECIFIED. ) ;
#128 = DIRECTION ( 'NONE',  ( 1.000000000000000000, 0.000000000000000000, 0.000000000000000000 ) ) ;
#129 = VERTEX_POINT ( 'NONE', #428 ) ;
#130 = DIRECTION ( 'NONE',  ( -1.000000000000000000, 0.000000000000000000, 0.000000000000000000 ) ) ;
#131 = PLANE ( 'NONE',  #515 ) ;
#132 = VERTEX_POINT ( 'NONE', #513 ) ;
#133 = CARTESIAN_POINT ( 'NONE',  ( -8.240960718619135150, 3.726237332172323669, -10.58292771270522969 ) ) ;
#134 = CARTESIAN_POINT ( 'NONE',  ( 7.578309483308705019, -4.873982939428287864, -10.58377187387438845 ) ) ;
#135 = VECTOR ( 'NONE', #147, 1000.000000000000000 ) ;
#136 = B_SPLINE_CURVE_WITH_KNOTS ( 'NONE', 3,
 ( #189, #302, #562, #29, #618, #232, #250, #355, #33, #76, #569, #657 ),
 .UNSPECIFIED., .F., .F.,
 ( 4, 2, 2, 2, 2, 4 ),
 ( 2.380730968235944020E-07, 0.002624151387325924720, 0.005248064701555025212, 0.006560021358669575892, 0.007871978015784127439, 0.01049589133001322533 ),
 .UNSPECIFIED. ) ;
#137 = ORIENTED_EDGE ( 'NONE', *, *, #109, .T. ) ;
#138 = DIRECTION ( 'NONE',  ( 1.000000000000000000, 0.000000000000000000, 0.000000000000000000 ) ) ;
#139 = CARTESIAN_POINT ( 'NONE',  ( 5.196152422706632024, -8.999999999999994671, -1.020353928239457364 ) ) ;
#140 = ORIENTED_EDGE ( 'NONE', *, *, #638, .T. ) ;
#141 = CARTESIAN_POINT ( 'NONE',  ( 10.39230484541327115, -1.847212893524762823E-15, -1.020353928239460917 ) ) ;
#142 = CARTESIAN_POINT ( 'NONE',  ( -5.196152422706628471, -8.999999999999998224, -9.779646071760542014 ) ) ;
#143 = DIRECTION ( 'NONE',  ( 0.8660254037844400399, 0.000000000000000000, 0.4999999999999975575 ) ) ;
#144 = CARTESIAN_POINT ( 'NONE',  ( 0.000000000000000000, 0.000000000000000000, 1.734723475976807094E-15 ) ) ;
#145 = CARTESIAN_POINT ( 'NONE',  ( 0.000000000000000000, 0.000000000000000000, 1.734723475976807094E-15 ) ) ;
#146 = PLANE ( 'NONE',  #397 ) ;
#147 = DIRECTION ( 'NONE',  ( -0.4999999999999977240, 0.000000000000000000, -0.8660254037844399289 ) ) ;
#148 = LINE ( 'NONE', #202, #261 ) ;
#149 = CARTESIAN_POINT ( 'NONE',  ( 0.000000000000000000, 0.000000000000000000, 1.734723475976807094E-15 ) ) ;
#150 = CARTESIAN_POINT ( 'NONE',  ( 2.203781362756334961, 9.000000000000003553, -0.3646136910354047522 ) ) ;
#151 = CC_DESIGN_PERSON_AND_ORGANIZATION_ASSIGNMENT ( #160, #533, ( #388 ) ) ;
#152 = AXIS2_PLACEMENT_3D ( 'NONE', #251, #673, #197 ) ;
#153 =( NAMED_UNIT ( * ) SI_UNIT ( $, .STERADIAN. ) SOLID_ANGLE_UNIT ( ) );
#154 = AXIS2_PLACEMENT_3D ( 'NONE', #504, #91, #310 ) ;
#155 = FACE_OUTER_BOUND ( 'NONE', #605, .T. ) ;
#156 = EDGE_CURVE ( 'NONE', #184, #173, #316, .T. ) ;
#157 = EDGE_LOOP ( 'NONE', ( #119, #502, #387, #290 ) ) ;
#158 = CARTESIAN_POINT ( 'NONE',  ( -7.356386425527802864, 5.258364950875840549, -10.56498278720434136 ) ) ;
#159 = VERTEX_POINT ( 'NONE', #113 ) ;
#160 = PERSON_AND_ORGANIZATION ( #577, #479 ) ;
#161 = CARTESIAN_POINT ( 'NONE',  ( 8.671058061587165966, 2.981286881951327405, -10.49171529512345202 ) ) ;
#162 = DIRECTION ( 'NONE',  ( 1.000000000000000000, 0.000000000000000000, 0.000000000000000000 ) ) ;
#163 = CC_DESIGN_DATE_AND_TIME_ASSIGNMENT ( #122, #392, ( #61 ) ) ;
#164 = ORIENTED_EDGE ( 'NONE', *, *, #156, .T. ) ;
#165 = ADVANCED_FACE ( 'NONE', ( #71 ), #404, .T. ) ;
#166 = CARTESIAN_POINT ( 'NONE',  ( 7.347496549500752039, 5.273762667827687878, -10.58292771270522792 ) ) ;
#167 = AXIS2_PLACEMENT_3D ( 'NONE', #74, #389, #291 ) ;
#168 = ORIENTED_EDGE ( 'NONE', *, *, #683, .F. ) ;
#169 = CARTESIAN_POINT ( 'NONE',  ( -7.347496549500751151, 5.273762667827677220, -0.2170722872947711823 ) ) ;
#170 = ORIENTED_EDGE ( 'NONE', *, *, #205, .T. ) ;
#171 = CARTESIAN_POINT ( 'NONE',  ( 5.196152422706632024, -8.999999999999994671, -1.020353928239457364 ) ) ;
#172 = CARTESIAN_POINT ( 'NONE',  ( 5.196152422706630247, 8.999999999999996447, -1.020353928239457364 ) ) ;
#173 = VERTEX_POINT ( 'NONE', #393 ) ;
#174 = APPROVAL_ROLE ( '' ) ;
#175 = CARTESIAN_POINT ( 'NONE',  ( 3.505244785865575974, 9.000000000000003553, -10.22406387075510281 ) ) ;
#176 = CARTESIAN_POINT ( 'NONE',  ( -5.620368929830032556, 8.265235456252865376, -0.7754324136566801418 ) ) ;
#177 = AXIS2_PLACEMENT_3D ( 'NONE', #436, #467, #162 ) ;
#178 = CC_DESIGN_APPROVAL ( #471, ( #61 ) ) ;
#179 = ADVANCED_FACE ( 'NONE', ( #400 ), #13, .F. ) ;
#180 = ORIENTED_EDGE ( 'NONE', *, *, #494, .T. ) ;
#181 = CARTESIAN_POINT ( 'NONE',  ( 10.39230484541327293, -3.613773744960424884E-15, -10.80000000000000071 ) ) ;
#182 = APPLICATION_CONTEXT ( 'configuration controlled 3d designs of mechanical parts and assemblies' ) ;
#183 = CARTESIAN_POINT ( 'NONE',  ( -10.39230484541325872, 1.778478956182026666E-15, -10.80000000000000071 ) ) ;
#184 = VERTEX_POINT ( 'NONE', #172 ) ;
#185 = CARTESIAN_POINT ( 'NONE',  ( -9.540778932479154761, 1.474886145163340156, -10.22642730637981323 ) ) ;
#186 = CARTESIAN_POINT ( 'NONE',  ( 8.240960718619149361, -3.726237332172316563, -10.58292771270521904 ) ) ;
#187 = EDGE_LOOP ( 'NONE', ( #270, #542, #334, #358 ) ) ;
#188 = CC_DESIGN_PERSON_AND_ORGANIZATION_ASSIGNMENT ( #370, #684, ( #541 ) ) ;
#189 = CARTESIAN_POINT ( 'NONE',  ( -10.39230484541325872, 0.000000000000000000, -1.020353928239457364 ) ) ;
#190 = CARTESIAN_POINT ( 'NONE',  ( 5.620368929830041438, -8.265235456252863600, -0.7754324136566832504 ) ) ;
#191 = AXIS2_PLACEMENT_3D ( 'NONE', #39, #512, #30 ) ;
#192 = ORIENTED_EDGE ( 'NONE', *, *, #364, .T. ) ;
#193 = DIRECTION ( 'NONE',  ( 0.8660254037844415942, 1.060575238724910613E-16, -0.4999999999999949485 ) ) ;
#194 = CARTESIAN_POINT ( 'NONE',  ( -6.047678335640733316, -7.525113854836659399, -10.22642730637981501 ) ) ;
#195 = LINE ( 'NONE', #524, #102 ) ;
#196 = CARTESIAN_POINT ( 'NONE',  ( 5.196152422706629359, 9.000000000000001776, -9.779646071760538462 ) ) ;
#197 = DIRECTION ( 'NONE',  ( 0.4999999999999998890, 0.8660254037844385966, 0.000000000000000000 ) ) ;
#198 = LINE ( 'NONE', #529, #221 ) ;
#199 = CARTESIAN_POINT ( 'NONE',  ( -8.889079910035217580, -2.603661963279211733, -10.43731124346013672 ) ) ;
#200 = DIRECTION ( 'NONE',  ( 1.000000000000000000, 0.000000000000000000, 0.000000000000000000 ) ) ;
#201 = SECURITY_CLASSIFICATION ( '', '', #55 ) ;
#202 = CARTESIAN_POINT ( 'NONE',  ( -5.196152422706627583, 9.000000000000001776, -10.80000000000000071 ) ) ;
#203 = CARTESIAN_POINT ( 'NONE',  ( -5.196152422706628471, -8.999999999999998224, -9.779646071760542014 ) ) ;
#204 = CARTESIAN_POINT ( 'NONE',  ( -6.049193393864828572, 7.522489697016101040, -10.22723218510806653 ) ) ;
#205 = EDGE_CURVE ( 'NONE', #551, #184, #27, .T. ) ;
#206 = CARTESIAN_POINT ( 'NONE',  ( 6.699377358084683820, -6.396338036720781162, -10.43731124346012784 ) ) ;
#207 = CARTESIAN_POINT ( 'NONE',  ( 3.505244785865568868, -8.999999999999998224, -10.22406387075510814 ) ) ;
#208 = CIRCLE ( 'NONE', #308, 5.052999999999999936 ) ;
#209 = ORIENTED_EDGE ( 'NONE', *, *, #372, .F. ) ;
#210 = DIRECTION ( 'NONE',  ( 0.000000000000000000, 0.000000000000000000, 1.000000000000000000 ) ) ;
#211 = EDGE_CURVE ( 'NONE', #486, #637, #342, .T. ) ;
#212 = ORIENTED_EDGE ( 'NONE', *, *, #587, .T. ) ;
#213 = CARTESIAN_POINT ( 'NONE',  ( -5.196152422706619589, 9.000000000000001776, -9.779646071760542014 ) ) ;
#214 = EDGE_CURVE ( 'NONE', #637, #486, #535, .T. ) ;
#215 = DIRECTION ( 'NONE',  ( 0.000000000000000000, 0.000000000000000000, 1.000000000000000000 ) ) ;
#216 = EDGE_CURVE ( 'NONE', #126, #639, #447, .T. ) ;
#217 = VERTEX_POINT ( 'NONE', #60 ) ;
#218 = CARTESIAN_POINT ( 'NONE',  ( 5.196152422706629359, 9.000000000000001776, -9.779646071760538462 ) ) ;
#219 = DIRECTION ( 'NONE',  ( -1.000000000000000000, 0.000000000000000000, 0.000000000000000000 ) ) ;
#220 = ORIENTED_EDGE ( 'NONE', *, *, #518, .T. ) ;
#221 = VECTOR ( 'NONE', #682, 1000.000000000000000 ) ;
#222 = AXIS2_PLACEMENT_3D ( 'NONE', #381, #210, #469 ) ;
#223 = DIRECTION ( 'NONE',  ( -0.000000000000000000, -0.000000000000000000, -1.000000000000000000 ) ) ;
#224 = ORIENTED_EDGE ( 'NONE', *, *, #286, .F. ) ;
#225 = FACE_OUTER_BOUND ( 'NONE', #438, .T. ) ;
#226 = CARTESIAN_POINT ( 'NONE',  ( -8.232070842592086990, 3.741635049124164336, -0.2350172127956585977 ) ) ;
#227 = ORIENTED_EDGE ( 'NONE', *, *, #214, .F. ) ;
#228 = CARTESIAN_POINT ( 'NONE',  ( 5.599750704922564104, 6.857716776806553521E-16, -10.80000000000000071 ) ) ;
#229 = EDGE_CURVE ( 'NONE', #173, #68, #253, .T. ) ;
#230 = CARTESIAN_POINT ( 'NONE',  ( 6.049193393864836565, 7.522489697016098376, -0.5727678148919311818 ) ) ;
#231 = VERTEX_POINT ( 'NONE', #289 ) ;
#232 = CARTESIAN_POINT ( 'NONE',  ( -7.578309483308689920, -4.873982939428290528, -0.2162281261256028542 ) ) ;
#233 = CARTESIAN_POINT ( 'NONE',  ( -5.052999999999999936, 6.188140276091575982E-16, -0.5467507049225790450 ) ) ;
#234 = VECTOR ( 'NONE', #292, 1000.000000000000000 ) ;
#235 = CC_DESIGN_APPROVAL ( #42, ( #388 ) ) ;
#236 = EDGE_CURVE ( 'NONE', #132, #159, #606, .T. ) ;
#237 = ORIENTED_EDGE ( 'NONE', *, *, #382, .T. ) ;
#238 = EDGE_CURVE ( 'NONE', #129, #551, #19, .T. ) ;
#239 = CARTESIAN_POINT ( 'NONE',  ( -10.39230484541326049, 4.336808689942017736E-15, -9.779646071760542014 ) ) ;
#240 = CARTESIAN_POINT ( 'NONE',  ( -6.911209019339108472, -6.029434836776376372, -10.50606857797690097 ) ) ;
#241 = ORIENTED_EDGE ( 'NONE', *, *, #348, .F. ) ;
#242 = CARTESIAN_POINT ( 'NONE',  ( 0.000000000000000000, 0.000000000000000000, -10.80000000000000071 ) ) ;
#243 = DIRECTION ( 'NONE',  ( 1.000000000000000000, 0.000000000000000000, 0.000000000000000000 ) ) ;
#244 = ORIENTED_EDGE ( 'NONE', *, *, #112, .T. ) ;
#245 = CARTESIAN_POINT ( 'NONE',  ( -8.625000000000001776, 1.165123372633856159E-15, -10.80000000000000071 ) ) ;
#246 = CARTESIAN_POINT ( 'NONE',  ( 9.967559533482969414, -0.7356804605399752672, -0.7751271080592689877 ) ) ;
#247 = CIRCLE ( 'NONE', #23, 5.052999999999999936 ) ;
#248 = DIRECTION ( 'NONE',  ( 1.000000000000000000, 1.669238443041287922E-16, 0.000000000000000000 ) ) ;
#249 = EDGE_CURVE ( 'NONE', #558, #68, #453, .T. ) ;
#250 = CARTESIAN_POINT ( 'NONE',  ( -7.356386425527802864, -5.258364950875835220, -0.2350172127956579593 ) ) ;
#251 = CARTESIAN_POINT ( 'NONE',  ( 5.196152422706640905, -8.999999999999996447, -10.80000000000000071 ) ) ;
#252 = LINE ( 'NONE', #321, #269 ) ;
#253 = B_SPLINE_CURVE_WITH_KNOTS ( 'NONE', 3,
 ( #124, #176, #544, #540, #169, #344, #226, #9, #283, #554, #650, #557 ),
 .UNSPECIFIED., .F., .F.,
 ( 4, 2, 2, 2, 2, 4 ),
 ( 2.380730968240198243E-07, 0.002624151387325927755, 0.005248064701555031283, 0.006560021358669581096, 0.007871978015784129173, 0.01049589133001322880 ),
 .UNSPECIFIED. ) ;
#254 = ORIENTED_EDGE ( 'NONE', *, *, #564, .F. ) ;
#255 = CARTESIAN_POINT ( 'NONE',  ( 1.764868941695448834, -8.999999999999996447, -10.49054880345786778 ) ) ;
#256 = FACE_OUTER_BOUND ( 'NONE', #599, .T. ) ;
#257 = CARTESIAN_POINT ( 'NONE',  ( -10.39230484541325872, 0.000000000000000000, -1.020353928239457364 ) ) ;
#258 = CARTESIAN_POINT ( 'NONE',  ( 0.000000000000000000, 0.000000000000000000, -0.5467507049225790450 ) ) ;
#259 = EDGE_CURVE ( 'NONE', #4, #132, #460, .T. ) ;
#260 = AXIS2_PLACEMENT_3D ( 'NONE', #441, #332, #539 ) ;
#261 = VECTOR ( 'NONE', #98, 1000.000000000000000 ) ;
#262 = APPLICATION_PROTOCOL_DEFINITION ( 'international standard', 'config_control_design', 1994, #182 ) ;
#263 = B_SPLINE_CURVE_WITH_KNOTS ( 'NONE', 3,
 ( #142, #563, #194, #240, #416, #620, #300, #363, #199, #307, #516, #456 ),
 .UNSPECIFIED., .F., .F.,
 ( 4, 2, 2, 2, 2, 4 ),
 ( 2.380730968240198243E-07, 0.002624151387325924286, 0.005248064701555024344, 0.006560021358669575892, 0.007871978015784127439, 0.01049589133001323227 ),
 .UNSPECIFIED. ) ;
#264 = CARTESIAN_POINT ( 'NONE',  ( -1.749343523779818943, 9.000000000000001776, -0.2918416170728937442 ) ) ;
#265 = APPROVAL_DATE_TIME ( #48, #471 ) ;
#266 = CARTESIAN_POINT ( 'NONE',  ( 0.8811440202992364412, -9.000000000000000000, -10.56475386629588087 ) ) ;
#267 = EDGE_CURVE ( 'NONE', #87, #565, #322, .T. ) ;
#268 = EDGE_CURVE ( 'NONE', #568, #486, #567, .T. ) ;
#269 = VECTOR ( 'NONE', #143, 1000.000000000000114 ) ;
#270 = ORIENTED_EDGE ( 'NONE', *, *, #315, .F. ) ;
#271 = CALENDAR_DATE ( 2026, 10, 5 ) ;
#272 = LOCAL_TIME ( 23, 5, 56.00000000000000000, #552 ) ;
#273 = ORIENTED_EDGE ( 'NONE', *, *, #249, .F. ) ;
#274 = PERSON_AND_ORGANIZATION_ROLE ( 'classification_officer' ) ;
#275 = DIRECTION ( 'NONE',  ( -1.000000000000000000, 0.000000000000000000, 0.000000000000000000 ) ) ;
#276 = CARTESIAN_POINT ( 'NONE',  ( 0.000000000000000000, 0.000000000000000000, -10.80000000000000071 ) ) ;
#277 = ORIENTED_EDGE ( 'NONE', *, *, #638, .F. ) ;
#278 = ORIENTED_EDGE ( 'NONE', *, *, #211, .T. ) ;
#279 = VECTOR ( 'NONE', #367, 1000.000000000000000 ) ;
#280 = CARTESIAN_POINT ( 'NONE',  ( -0.8767046892072354325, 9.000000000000001776, -10.58357969493219386 ) ) ;
#281 = AXIS2_PLACEMENT_3D ( 'NONE', #34, #463, #243 ) ;
#282 = CIRCLE ( 'NONE', #536, 6.000000000000012434 ) ;
#283 = CARTESIAN_POINT ( 'NONE',  ( -8.889079910035214027, 2.603661963279217506, -0.3626887565398624336 ) ) ;
#284 = ORIENTED_EDGE ( 'NONE', *, *, #229, .T. ) ;
#285 = CALENDAR_DATE ( 2026, 10, 5 ) ;
#286 = EDGE_CURVE ( 'NONE', #231, #551, #545, .T. ) ;
#287 = CC_DESIGN_DATE_AND_TIME_ASSIGNMENT ( #496, #384, ( #201 ) ) ;
#288 = CARTESIAN_POINT ( 'NONE',  ( -1.749343523779817611, -8.999999999999996447, -0.2918416170728912462 ) ) ;
#289 = CARTESIAN_POINT ( 'NONE',  ( 5.196152422706632024, -8.999999999999994671, -1.020353928239457364 ) ) ;
#290 = ORIENTED_EDGE ( 'NONE', *, *, #678, .F. ) ;
#291 = DIRECTION ( 'NONE',  ( 1.000000000000000000, 0.000000000000000000, -0.000000000000000000 ) ) ;
#292 = DIRECTION ( 'NONE',  ( 0.000000000000000000, 0.000000000000000000, 1.000000000000000000 ) ) ;
#293 = ADVANCED_FACE ( 'NONE', ( #26 ), #503, .T. ) ;
#294 = ORIENTED_EDGE ( 'NONE', *, *, #371, .T. ) ;
#295 = DIRECTION ( 'NONE',  ( -0.000000000000000000, -0.000000000000000000, -1.000000000000000000 ) ) ;
#296 = CARTESIAN_POINT ( 'NONE',  ( 8.010147784811209704, -4.126017060571705919, -0.2162281261256091547 ) ) ;
#297 = AXIS2_PLACEMENT_3D ( 'NONE', #312, #424, #317 ) ;
#298 = ORIENTED_EDGE ( 'NONE', *, *, #259, .T. ) ;
#299 = LINE ( 'NONE', #465, #655 ) ;
#300 = CARTESIAN_POINT ( 'NONE',  ( -8.232070842592088766, -3.741635049124158563, -10.56498278720434314 ) ) ;
#301 = ORIENTED_EDGE ( 'NONE', *, *, #229, .F. ) ;
#302 = CARTESIAN_POINT ( 'NONE',  ( -9.968088338289854633, -0.7347645437471357344, -0.7754324136566781434 ) ) ;
#303 = CARTESIAN_POINT ( 'NONE',  ( 9.539263874255070164, -1.477510302983902957, -0.5727678148919360668 ) ) ;
#304 = CARTESIAN_POINT ( 'NONE',  ( -3.485064651459172769, 9.000000000000003553, -0.5716666925390634368 ) ) ;
#305 = MANIFOLD_SOLID_BREP ( 'EndChamfer', #572 ) ;
#306 = DIRECTION ( 'NONE',  ( -0.000000000000000000, -0.000000000000000000, -1.000000000000000000 ) ) ;
#307 = CARTESIAN_POINT ( 'NONE',  ( -9.539263874255057729, -1.477510302983897628, -10.22723218510807186 ) ) ;
#308 = AXIS2_PLACEMENT_3D ( 'NONE', #258, #473, #680 ) ;
#309 = CC_DESIGN_SECURITY_CLASSIFICATION ( #201, ( #388 ) ) ;
#310 = DIRECTION ( 'NONE',  ( 1.000000000000000000, 0.000000000000000000, 0.000000000000000000 ) ) ;
#311 = CARTESIAN_POINT ( 'NONE',  ( 8.889079910035224685, -2.603661963279216174, -0.3626887565398692614 ) ) ;
#312 = CARTESIAN_POINT ( 'NONE',  ( 0.000000000000000000, 0.000000000000000000, -0.5467507049225790450 ) ) ;
#313 = CARTESIAN_POINT ( 'NONE',  ( 5.196152422706626695, -8.999999999999998224, -9.779646071760542014 ) ) ;
#314 = CARTESIAN_POINT ( 'NONE',  ( 0.000000000000000000, 0.000000000000000000, 1.734723475976807094E-15 ) ) ;
#315 = EDGE_CURVE ( 'NONE', #132, #396, #582, .T. ) ;
#316 = B_SPLINE_CURVE_WITH_KNOTS ( 'NONE', 3,
 ( #521, #590, #633, #150, #375, #47, #579, #100, #264, #304, #16, #333 ),
 .UNSPECIFIED., .F., .F.,
 ( 4, 2, 2, 2, 2, 4 ),
 ( 0.003844717419923064303, 0.006467105964842154858, 0.007778300237301700136, 0.009089494509761245414, 0.01171188305468033597, 0.01433427159959942652 ),
 .UNSPECIFIED. ) ;
#317 = DIRECTION ( 'NONE',  ( 1.000000000000000000, 0.000000000000000000, 0.000000000000000000 ) ) ;
#318 = DIRECTION ( 'NONE',  ( -0.000000000000000000, 0.000000000000000000, -1.000000000000000000 ) ) ;
#319 = CARTESIAN_POINT ( 'NONE',  ( 5.620368929830031668, 8.265235456252863600, -10.02456758634331990 ) ) ;
#320 = ADVANCED_FACE ( 'NONE', ( #82 ), #131, .T. ) ;
#321 = CARTESIAN_POINT ( 'NONE',  ( 5.052999999999999936, 0.000000000000000000, -0.5467507049225790450 ) ) ;
#322 = CIRCLE ( 'NONE', #110, 8.625000000000001776 ) ;
#323 = CIRCLE ( 'NONE', #67, 8.625000000000001776 ) ;
#324 = COORDINATED_UNIVERSAL_TIME_OFFSET ( 8, 0, .AHEAD. ) ;
#325 = CARTESIAN_POINT ( 'NONE',  ( 6.049193393864838342, -7.522489697016096599, -10.22723218510805943 ) ) ;
#326 = ORIENTED_EDGE ( 'NONE', *, *, #112, .F. ) ;
#327 = COORDINATED_UNIVERSAL_TIME_OFFSET ( 8, 0, .AHEAD. ) ;
#328 = VECTOR ( 'NONE', #627, 1000.000000000000000 ) ;
#329 = ORIENTED_EDGE ( 'NONE', *, *, #268, .T. ) ;
#330 = CALENDAR_DATE ( 2026, 10, 5 ) ;
#331 = LOCAL_TIME ( 23, 5, 56.00000000000000000, #644 ) ;
#332 = DIRECTION ( 'NONE',  ( 0.000000000000000000, 0.000000000000000000, 1.000000000000000000 ) ) ;
#333 = CARTESIAN_POINT ( 'NONE',  ( -5.196152422706624030, 8.999999999999998224, -1.020353928239457364 ) ) ;
#334 = ORIENTED_EDGE ( 'NONE', *, *, #86, .F. ) ;
#335 = CARTESIAN_POINT ( 'NONE',  ( 3.505244785865571977, -9.000000000000000000, -0.5759361292448937908 ) ) ;
#336 = CARTESIAN_POINT ( 'NONE',  ( 0.000000000000000000, 0.000000000000000000, -10.80000000000000071 ) ) ;
#337 = EDGE_LOOP ( 'NONE', ( #277, #329, #227, #6 ) ) ;
#338 = PERSON_AND_ORGANIZATION ( #577, #479 ) ;
#339 = FACE_BOUND ( 'NONE', #555, .T. ) ;
#340 = DIRECTION ( 'NONE',  ( 0.000000000000000000, 0.000000000000000000, 1.000000000000000000 ) ) ;
#341 = ORIENTED_EDGE ( 'NONE', *, *, #677, .F. ) ;
#342 = CIRCLE ( 'NONE', #442, 5.599750704922564104 ) ;
#343 = CARTESIAN_POINT ( 'NONE',  ( -3.485064651459169660, 9.000000000000001776, -10.22833330746093772 ) ) ;
#344 = CARTESIAN_POINT ( 'NONE',  ( -8.010147784811195493, 4.126017060571706807, -0.2162281261256037423 ) ) ;
#345 = ORIENTED_EDGE ( 'NONE', *, *, #267, .F. ) ;
#346 = PLANE ( 'NONE',  #167 ) ;
#347 = CARTESIAN_POINT ( 'NONE',  ( 10.39230484541327115, -1.847212893524762823E-15, -10.80000000000000071 ) ) ;
#348 = EDGE_CURVE ( 'NONE', #126, #558, #263, .T. ) ;
#349 = ORIENTED_EDGE ( 'NONE', *, *, #205, .F. ) ;
#350 = FACE_OUTER_BOUND ( 'NONE', #490, .T. ) ;
#351 = B_SPLINE_CURVE_WITH_KNOTS ( 'NONE', 3,
 ( #239, #455, #185, #613, #133, #472, #158, #679, #478, #204, #576, #476 ),
 .UNSPECIFIED., .F., .F.,
 ( 4, 2, 2, 2, 2, 4 ),
 ( 2.380730968233669472E-07, 0.002624151387325926021, 0.005248064701555028681, 0.006560021358669577626, 0.007871978015784129173, 0.01049589133001322880 ),
 .UNSPECIFIED. ) ;
#352 = ADVANCED_FACE ( 'NONE', ( #256 ), #663, .T. ) ;
#353 = DIRECTION ( 'NONE',  ( 1.000000000000000000, 0.000000000000000000, 0.000000000000000000 ) ) ;
#354 = EDGE_LOOP ( 'NONE', ( #54, #656, #244, #414, #643, #495 ) ) ;
#355 = CARTESIAN_POINT ( 'NONE',  ( -6.917399206532720335, -6.018713118048681920, -0.3082847048765414710 ) ) ;
#356 = CARTESIAN_POINT ( 'NONE',  ( 7.356386425527814410, -5.258364950875834332, -10.56498278720433603 ) ) ;
#357 = AXIS2_PLACEMENT_3D ( 'NONE', #365, #215, #200 ) ;
#358 = ORIENTED_EDGE ( 'NONE', *, *, #49, .F. ) ;
#359 = CARTESIAN_POINT ( 'NONE',  ( 5.196152422706629359, 9.000000000000001776, -10.80000000000000071 ) ) ;
#360 = DIRECTION ( 'NONE',  ( 0.000000000000000000, 0.000000000000000000, 1.000000000000000000 ) ) ;
#361 = ORIENTED_EDGE ( 'NONE', *, *, #371, .F. ) ;
#362 = DIRECTION ( 'NONE',  ( -1.000000000000000000, 0.000000000000000000, 0.000000000000000000 ) ) ;
#363 = CARTESIAN_POINT ( 'NONE',  ( -8.671058061587169519, -2.981286881951310974, -10.49171529512345913 ) ) ;
#364 = EDGE_CURVE ( 'NONE', #499, #231, #470, .T. ) ;
#365 = CARTESIAN_POINT ( 'NONE',  ( 0.000000000000000000, 0.000000000000000000, -0.5467507049225790450 ) ) ;
#366 = DIRECTION ( 'NONE',  ( -1.000000000000000000, 0.000000000000000000, 0.000000000000000000 ) ) ;
#367 = DIRECTION ( 'NONE',  ( 0.000000000000000000, 0.000000000000000000, 1.000000000000000000 ) ) ;
#368 = CONICAL_SURFACE ( 'NONE', #103, 8.625000000000001776, 1.047197551196603627 ) ;
#369 = CARTESIAN_POINT ( 'NONE',  ( 8.625000000000001776, 0.000000000000000000, -10.80000000000000071 ) ) ;
#370 = PERSON_AND_ORGANIZATION ( #577, #479 ) ;
#371 = EDGE_CURVE ( 'NONE', #4, #568, #247, .T. ) ;
#372 = EDGE_CURVE ( 'NONE', #129, #499, #457, .T. ) ;
#373 = FACE_OUTER_BOUND ( 'NONE', #14, .T. ) ;
#374 = ADVANCED_FACE ( 'NONE', ( #155 ), #636, .T. ) ;
#375 = CARTESIAN_POINT ( 'NONE',  ( 1.764868941695450388, 9.000000000000001776, -0.3094511965421359312 ) ) ;
#376 = APPROVAL_STATUS ( 'not_yet_approved' ) ;
#377 = MECHANICAL_CONTEXT ( 'NONE', #182, 'mechanical' ) ;
#378 = DIRECTION ( 'NONE',  ( -1.000000000000000000, 0.000000000000000000, 0.000000000000000000 ) ) ;
#379 = EDGE_CURVE ( 'NONE', #565, #87, #386, .T. ) ;
#380 = ORIENTED_EDGE ( 'NONE', *, *, #267, .T. ) ;
#381 = CARTESIAN_POINT ( 'NONE',  ( 0.000000000000000000, 0.000000000000000000, -9.779646071760542014 ) ) ;
#382 = EDGE_CURVE ( 'NONE', #396, #132, #208, .T. ) ;
#383 = EDGE_LOOP ( 'NONE', ( #140, #298, #443, #391 ) ) ;
#384 = DATE_TIME_ROLE ( 'classification_date' ) ;
#385 = FACE_OUTER_BOUND ( 'NONE', #585, .T. ) ;
#386 = CIRCLE ( 'NONE', #474, 8.625000000000001776 ) ;
#387 = ORIENTED_EDGE ( 'NONE', *, *, #49, .T. ) ;
#388 = PRODUCT_DEFINITION_FORMATION_WITH_SPECIFIED_SOURCE ( '任何', '', #541, .NOT_KNOWN. ) ;
#389 = DIRECTION ( 'NONE',  ( 0.000000000000000000, -0.000000000000000000, 1.000000000000000000 ) ) ;
#390 = DIRECTION ( 'NONE',  ( -0.4999999999999998890, -0.8660254037844385966, 0.000000000000000000 ) ) ;
#391 = ORIENTED_EDGE ( 'NONE', *, *, #96, .F. ) ;
#392 = DATE_TIME_ROLE ( 'creation_date' ) ;
#393 = CARTESIAN_POINT ( 'NONE',  ( -5.196152422706624030, 8.999999999999998224, -1.020353928239457364 ) ) ;
#394 = EDGE_LOOP ( 'NONE', ( #83, #273, #241, #480 ) ) ;
#395 = CARTESIAN_POINT ( 'NONE',  ( -5.196152422706626695, -8.999999999999998224, -10.80000000000000071 ) ) ;
#396 = VERTEX_POINT ( 'NONE', #578 ) ;
#397 = AXIS2_PLACEMENT_3D ( 'NONE', #94, #575, #248 ) ;
#398 = CARTESIAN_POINT ( 'NONE',  ( 4.356225351405587531, 9.000000000000003553, -10.02211213211820606 ) ) ;
#399 = VECTOR ( 'NONE', #193, 999.9999999999998863 ) ;
#400 = FACE_OUTER_BOUND ( 'NONE', #431, .T. ) ;
#401 = EDGE_CURVE ( 'NONE', #616, #129, #534, .T. ) ;
#402 = ORIENTED_EDGE ( 'NONE', *, *, #211, .F. ) ;
#403 = FACE_BOUND ( 'NONE', #510, .T. ) ;
#404 = PLANE ( 'NONE',  #451 ) ;
#405 = ORIENTED_EDGE ( 'NONE', *, *, #238, .T. ) ;
#406 = APPROVAL ( #7, '未指定' ) ;
#407 = LINE ( 'NONE', #359, #645 ) ;
#408 = DIRECTION ( 'NONE',  ( -1.000000000000000000, 0.000000000000000000, 0.000000000000000000 ) ) ;
#409 = CARTESIAN_POINT ( 'NONE',  ( 5.196152422706629359, 9.000000000000001776, -10.80000000000000071 ) ) ;
#410 = DIRECTION ( 'NONE',  ( 0.000000000000000000, 0.000000000000000000, 1.000000000000000000 ) ) ;
#411 = CARTESIAN_POINT ( 'NONE',  ( 10.39230484541327115, -1.847212893524762823E-15, -1.020353928239460917 ) ) ;
#412 = CIRCLE ( 'NONE', #177, 6.000000000000012434 ) ;
#413 = AXIS2_PLACEMENT_3D ( 'NONE', #59, #446, #275 ) ;
#414 = ORIENTED_EDGE ( 'NONE', *, *, #372, .T. ) ;
#415 = PLANE ( 'NONE',  #464 ) ;
#416 = CARTESIAN_POINT ( 'NONE',  ( -7.347496549500751151, -5.273762667827673667, -10.58292771270522969 ) ) ;
#417 = ADVANCED_FACE ( 'NONE', ( #339, #385 ), #346, .T. ) ;
#418 = DIRECTION ( 'NONE',  ( -0.000000000000000000, -0.000000000000000000, -1.000000000000000000 ) ) ;
#419 = CARTESIAN_POINT ( 'NONE',  ( 5.196152422706640905, -8.999999999999996447, -10.80000000000000071 ) ) ;
#420 = CARTESIAN_POINT ( 'NONE',  ( 10.39230484541325872, 0.000000000000000000, -9.779646071760542014 ) ) ;
#421 = EDGE_CURVE ( 'NONE', #75, #616, #591, .T. ) ;
#422 = DIRECTION ( 'NONE',  ( 1.000000000000000000, 0.000000000000000000, 0.000000000000000000 ) ) ;
#423 = LOCAL_TIME ( 23, 5, 56.00000000000000000, #324 ) ;
#424 = DIRECTION ( 'NONE',  ( 0.000000000000000000, 0.000000000000000000, 1.000000000000000000 ) ) ;
#425 = ADVANCED_FACE ( 'NONE', ( #225 ), #641, .F. ) ;
#426 = CARTESIAN_POINT ( 'NONE',  ( 4.356225351405583979, -8.999999999999994671, -10.02211213211820606 ) ) ;
#427 = CARTESIAN_POINT ( 'NONE',  ( 5.196152422706626695, -8.999999999999998224, -9.779646071760542014 ) ) ;
#428 = CARTESIAN_POINT ( 'NONE',  ( 10.39230484541326049, 1.821459649775647449E-14, -9.779646071760542014 ) ) ;
#429 = CARTESIAN_POINT ( 'NONE',  ( 0.000000000000000000, 0.000000000000000000, 0.000000000000000000 ) ) ;
#430 = CARTESIAN_POINT ( 'NONE',  ( -0.8767046892072400954, -8.999999999999994671, -10.58357969493219208 ) ) ;
#431 = EDGE_LOOP ( 'NONE', ( #507, #361, #137, #402 ) ) ;
#432 = CARTESIAN_POINT ( 'NONE',  ( 5.620897734636939092, -8.264319539460027286, -10.02487289194073128 ) ) ;
#433 = ORIENTED_EDGE ( 'NONE', *, *, #96, .T. ) ;
#434 = CALENDAR_DATE ( 2026, 10, 5 ) ;
#435 = CARTESIAN_POINT ( 'NONE',  ( 0.8811440202992417703, 9.000000000000003553, -10.56475386629587554 ) ) ;
#436 = CARTESIAN_POINT ( 'NONE',  ( 0.000000000000000000, 0.000000000000000000, 0.000000000000000000 ) ) ;
#437 = ADVANCED_FACE ( 'NONE', ( #543 ), #619, .F. ) ;
#438 = EDGE_LOOP ( 'NONE', ( #546, #294, #433, #237 ) ) ;
#439 = DATE_AND_TIME ( #285, #272 ) ;
#440 = EDGE_CURVE ( 'NONE', #639, #231, #622, .T. ) ;
#441 = CARTESIAN_POINT ( 'NONE',  ( 0.000000000000000000, 0.000000000000000000, -10.80000000000000071 ) ) ;
#442 = AXIS2_PLACEMENT_3D ( 'NONE', #336, #120, #128 ) ;
#443 = ORIENTED_EDGE ( 'NONE', *, *, #315, .T. ) ;
#444 = CARTESIAN_POINT ( 'NONE',  ( 8.677248248780784934, 2.970565163223616967, -0.2939314220231010744 ) ) ;
#445 = ORIENTED_EDGE ( 'NONE', *, *, #238, .F. ) ;
#446 = DIRECTION ( 'NONE',  ( -0.000000000000000000, -0.000000000000000000, -1.000000000000000000 ) ) ;
#447 = LINE ( 'NONE', #395, #125 ) ;
#448 = EDGE_LOOP ( 'NONE', ( #592, #482, #458, #660, #62, #326 ) ) ;
#449 = CARTESIAN_POINT ( 'NONE',  ( 8.232070842592085214, 3.741635049124174994, -10.56498278720433781 ) ) ;
#450 = ORIENTED_EDGE ( 'NONE', *, *, #286, .T. ) ;
#451 = AXIS2_PLACEMENT_3D ( 'NONE', #493, #549, #390 ) ;
#452 = DIRECTION ( 'NONE',  ( -0.8660254037844415942, 0.000000000000000000, -0.4999999999999949485 ) ) ;
#453 = LINE ( 'NONE', #183, #279 ) ;
#454 = ORIENTED_EDGE ( 'NONE', *, *, #603, .F. ) ;
#455 = CARTESIAN_POINT ( 'NONE',  ( -9.968088338289856409, 0.7347645437471392871, -10.02456758634331813 ) ) ;
#456 = CARTESIAN_POINT ( 'NONE',  ( -10.39230484541326049, 4.336808689942017736E-15, -9.779646071760542014 ) ) ;
#457 = B_SPLINE_CURVE_WITH_KNOTS ( 'NONE', 3,
 ( #77, #506, #615, #509, #186, #134, #356, #97, #206, #325, #432, #427 ),
 .UNSPECIFIED., .F., .F.,
 ( 4, 2, 2, 2, 2, 4 ),
 ( 2.380730968114370440E-07, 0.002624151387325913444, 0.005248064701555013069, 0.006560021358669566351, 0.007871978015784118765, 0.01049589133001322706 ),
 .UNSPECIFIED. ) ;
#458 = ORIENTED_EDGE ( 'NONE', *, *, #661, .T. ) ;
#459 = CARTESIAN_POINT ( 'NONE',  ( -10.39230484541326049, 4.336808689942017736E-15, -9.779646071760542014 ) ) ;
#460 = LINE ( 'NONE', #38, #66 ) ;
#461 = ORIENTED_EDGE ( 'NONE', *, *, #379, .F. ) ;
#462 = CARTESIAN_POINT ( 'NONE',  ( 5.052999999999999936, 0.000000000000000000, -9.853000000000013969 ) ) ;
#463 = DIRECTION ( 'NONE',  ( 0.000000000000000000, 0.000000000000000000, 1.000000000000000000 ) ) ;
#464 = AXIS2_PLACEMENT_3D ( 'NONE', #181, #511, #566 ) ;
#465 = CARTESIAN_POINT ( 'NONE',  ( -8.625000000000001776, 0.000000000000000000, 1.734723475976807094E-15 ) ) ;
#466 = CARTESIAN_POINT ( 'NONE',  ( 5.599750704922564104, 6.857716776806553521E-16, -10.80000000000000071 ) ) ;
#467 = DIRECTION ( 'NONE',  ( -0.000000000000000000, 0.000000000000000000, -1.000000000000000000 ) ) ;
#468 = ORIENTED_EDGE ( 'NONE', *, *, #678, .T. ) ;
#469 = DIRECTION ( 'NONE',  ( 1.000000000000000000, 0.000000000000000000, 0.000000000000000000 ) ) ;
#470 = LINE ( 'NONE', #419, #328 ) ;
#471 = APPROVAL ( #376, '未指定' ) ;
#472 = CARTESIAN_POINT ( 'NONE',  ( -7.578309483308690808, 4.873982939428294969, -10.58377187387439733 ) ) ;
#473 = DIRECTION ( 'NONE',  ( 0.000000000000000000, 0.000000000000000000, 1.000000000000000000 ) ) ;
#474 = AXIS2_PLACEMENT_3D ( 'NONE', #314, #523, #41 ) ;
#475 = CARTESIAN_POINT ( 'NONE',  ( -5.599750704922564104, 0.000000000000000000, -10.80000000000000071 ) ) ;
#476 = CARTESIAN_POINT ( 'NONE',  ( -5.196152422706619589, 9.000000000000001776, -9.779646071760542014 ) ) ;
#477 = CC_DESIGN_PERSON_AND_ORGANIZATION_ASSIGNMENT ( #597, #274, ( #201 ) ) ;
#478 = CARTESIAN_POINT ( 'NONE',  ( -6.699377358084671386, 6.396338036720786491, -10.43731124346013672 ) ) ;
#479 = ORGANIZATION ( '未指定', '未指定', '' ) ;
#480 = ORIENTED_EDGE ( 'NONE', *, *, #216, .T. ) ;
#481 = FACE_OUTER_BOUND ( 'NONE', #187, .T. ) ;
#482 = ORIENTED_EDGE ( 'NONE', *, *, #93, .T. ) ;
#483 = SHAPE_DEFINITION_REPRESENTATION ( #117, #528 ) ;
#484 = CARTESIAN_POINT ( 'NONE',  ( 0.4406452846033384607, -8.999999999999998224, -0.2165494863097556510 ) ) ;
#485 = CARTESIAN_POINT ( 'NONE',  ( 7.578309483308698802, 4.873982939428289640, -0.2162281261256069897 ) ) ;
#486 = VERTEX_POINT ( 'NONE', #228 ) ;
#487 = CARTESIAN_POINT ( 'NONE',  ( 9.967559533482958756, 0.7356804605399906993, -10.02487289194073483 ) ) ;
#488 = CARTESIAN_POINT ( 'NONE',  ( 9.968088338289870620, 0.7347645437471347352, -0.7754324136566840275 ) ) ;
#489 = VECTOR ( 'NONE', #498, 1000.000000000000114 ) ;
#490 = EDGE_LOOP ( 'NONE', ( #349, #445, #105, #180 ) ) ;
#491 = CIRCLE ( 'NONE', #681, 8.625000000000001776 ) ;
#492 = CARTESIAN_POINT ( 'NONE',  ( 0.4406452846033408477, 9.000000000000001776, -10.58345051369023970 ) ) ;
#493 = CARTESIAN_POINT ( 'NONE',  ( -5.196152422706627583, 9.000000000000001776, -10.80000000000000071 ) ) ;
#494 = EDGE_CURVE ( 'NONE', #616, #184, #407, .T. ) ;
#495 = ORIENTED_EDGE ( 'NONE', *, *, #348, .T. ) ;
#496 = DATE_AND_TIME ( #434, #331 ) ;
#497 = CARTESIAN_POINT ( 'NONE',  ( 1.764868941695451721, -8.999999999999998224, -0.3094511965421332111 ) ) ;
#498 = DIRECTION ( 'NONE',  ( -0.8660254037844400399, 1.060575238724908640E-16, 0.4999999999999975575 ) ) ;
#499 = VERTEX_POINT ( 'NONE', #508 ) ;
#500 = ADVANCED_FACE ( 'NONE', ( #403, #21 ), #415, .F. ) ;
#501 = CARTESIAN_POINT ( 'NONE',  ( 0.000000000000000000, 0.000000000000000000, -10.80000000000000071 ) ) ;
#502 = ORIENTED_EDGE ( 'NONE', *, *, #382, .F. ) ;
#503 = CONICAL_SURFACE ( 'NONE', #191, 10.39230484541325872, 1.047197551196603627 ) ;
#504 = CARTESIAN_POINT ( 'NONE',  ( 0.000000000000000000, 0.000000000000000000, -9.853000000000013969 ) ) ;
#505 = APPROVAL_PERSON_ORGANIZATION ( #648, #42, #69 ) ;
#506 = CARTESIAN_POINT ( 'NONE',  ( 9.968088338289872397, -0.7347645437471296281, -10.02456758634331635 ) ) ;
#507 = ORIENTED_EDGE ( 'NONE', *, *, #268, .F. ) ;
#508 = CARTESIAN_POINT ( 'NONE',  ( 5.196152422706626695, -8.999999999999998224, -9.779646071760542014 ) ) ;
#509 = CARTESIAN_POINT ( 'NONE',  ( 8.677248248780788487, -2.970565163223613858, -10.50606857797689209 ) ) ;
#510 = EDGE_LOOP ( 'NONE', ( #17, #278 ) ) ;
#511 = DIRECTION ( 'NONE',  ( 0.000000000000000000, -0.000000000000000000, 1.000000000000000000 ) ) ;
#512 = DIRECTION ( 'NONE',  ( 0.000000000000000000, 0.000000000000000000, 1.000000000000000000 ) ) ;
#513 = CARTESIAN_POINT ( 'NONE',  ( -5.052999999999999936, 6.188140276091574996E-16, -0.5467507049225790450 ) ) ;
#514 = PLANE ( 'NONE',  #46 ) ;
#515 = AXIS2_PLACEMENT_3D ( 'NONE', #624, #89, #670 ) ;
#516 = CARTESIAN_POINT ( 'NONE',  ( -9.967559533482962308, -0.7356804605399683838, -10.02487289194073483 ) ) ;
#517 = CIRCLE ( 'NONE', #154, 5.052999999999999936 ) ;
#518 = EDGE_CURVE ( 'NONE', #68, #639, #136, .T. ) ;
#519 = CARTESIAN_POINT ( 'NONE',  ( 2.203781362756332740, -8.999999999999998224, -10.43538630896460084 ) ) ;
#520 = DIRECTION ( 'NONE',  ( 0.4999999999999977240, 6.123233995736737686E-17, -0.8660254037844399289 ) ) ;
#521 = CARTESIAN_POINT ( 'NONE',  ( 5.196152422706630247, 8.999999999999996447, -1.020353928239457364 ) ) ;
#522 = CARTESIAN_POINT ( 'NONE',  ( -3.485064651459175433, -9.000000000000000000, -10.22833330746093594 ) ) ;
#523 = DIRECTION ( 'NONE',  ( -0.000000000000000000, -0.000000000000000000, -1.000000000000000000 ) ) ;
#524 = CARTESIAN_POINT ( 'NONE',  ( -10.39230484541325872, 1.272690286469887608E-15, -9.779646071760542014 ) ) ;
#525 = CARTESIAN_POINT ( 'NONE',  ( 0.4406452846033364623, -8.999999999999998224, -10.58345051369024681 ) ) ;
#526 = CARTESIAN_POINT ( 'NONE',  ( 6.047678335640730651, 7.525113854836662064, -10.22642730637980968 ) ) ;
#527 = CONICAL_SURFACE ( 'NONE', #297, 5.052999999999999936, 1.047197551196600518 ) ;
#528 = ADVANCED_BREP_SHAPE_REPRESENTATION ( 'GBT_6170-2000_M12', ( #305, #111 ), #550 ) ;
#529 = CARTESIAN_POINT ( 'NONE',  ( 5.052999999999999936, 0.000000000000000000, -10.80000000000000071 ) ) ;
#530 = DIRECTION ( 'NONE',  ( -0.000000000000000000, -0.000000000000000000, -1.000000000000000000 ) ) ;
#531 = PERSON_AND_ORGANIZATION ( #577, #479 ) ;
#532 = ORIENTED_EDGE ( 'NONE', *, *, #379, .T. ) ;
#533 = PERSON_AND_ORGANIZATION_ROLE ( 'creator' ) ;
#534 = B_SPLINE_CURVE_WITH_KNOTS ( 'NONE', 3,
 ( #99, #319, #526, #8, #166, #600, #449, #161, #556, #652, #487, #548 ),
 .UNSPECIFIED., .F., .F.,
 ( 4, 2, 2, 2, 2, 4 ),
 ( 2.380730968235905110E-07, 0.002624151387325922985, 0.005248064701555021742, 0.006560021358669568953, 0.007871978015784115296, 0.01049589133001321319 ),
 .UNSPECIFIED. ) ;
#535 = CIRCLE ( 'NONE', #45, 5.599750704922564104 ) ;
#536 = AXIS2_PLACEMENT_3D ( 'NONE', #429, #318, #685 ) ;
#537 = VERTEX_POINT ( 'NONE', #245 ) ;
#538 = PERSON_AND_ORGANIZATION_ROLE ( 'design_supplier' ) ;
#539 = DIRECTION ( 'NONE',  ( 1.000000000000000000, 0.000000000000000000, 0.000000000000000000 ) ) ;
#540 = CARTESIAN_POINT ( 'NONE',  ( -6.911209019339110249, 6.029434836776381701, -0.2939314220230972996 ) ) ;
#541 = PRODUCT ( 'GBT_6170-2000_M12', 'GBT_6170-2000_M12', '', ( #377 ) ) ;
#542 = ORIENTED_EDGE ( 'NONE', *, *, #236, .T. ) ;
#543 = FACE_OUTER_BOUND ( 'NONE', #337, .T. ) ;
#544 = CARTESIAN_POINT ( 'NONE',  ( -6.047678335640731540, 7.525113854836662064, -0.5735726936201852588 ) ) ;
#545 = B_SPLINE_CURVE_WITH_KNOTS ( 'NONE', 3,
 ( #139, #190, #666, #560, #92, #296, #570, #85, #311, #303, #246, #411 ),
 .UNSPECIFIED., .F., .F.,
 ( 4, 2, 2, 2, 2, 4 ),
 ( 2.380730968200946472E-07, 0.002624151387325920817, 0.005248064701555021742, 0.006560021358669572422, 0.007871978015784123969, 0.01049589133001322186 ),
 .UNSPECIFIED. ) ;
#546 = ORIENTED_EDGE ( 'NONE', *, *, #259, .F. ) ;
#547 = PERSON_AND_ORGANIZATION ( #577, #479 ) ;
#548 = CARTESIAN_POINT ( 'NONE',  ( 10.39230484541326049, 1.821459649775647449E-14, -9.779646071760542014 ) ) ;
#549 = DIRECTION ( 'NONE',  ( -0.8660254037844387076, 0.4999999999999999445, 0.000000000000000000 ) ) ;
#550 =( GEOMETRIC_REPRESENTATION_CONTEXT ( 3 ) GLOBAL_UNCERTAINTY_ASSIGNED_CONTEXT ( ( #63 ) ) GLOBAL_UNIT_ASSIGNED_CONTEXT ( ( #632, #586, #153 ) ) REPRESENTATION_CONTEXT ( 'NONE', 'WORKASPACE' ) );
#551 = VERTEX_POINT ( 'NONE', #141 ) ;
#552 = COORDINATED_UNIVERSAL_TIME_OFFSET ( 8, 0, .AHEAD. ) ;
#553 = CARTESIAN_POINT ( 'NONE',  ( 2.203781362756338957, 9.000000000000001776, -10.43538630896459196 ) ) ;
#554 = CARTESIAN_POINT ( 'NONE',  ( -9.539263874255059505, 1.477510302983905177, -0.5727678148919286283 ) ) ;
#555 = EDGE_LOOP ( 'NONE', ( #51, #468 ) ) ;
#556 = CARTESIAN_POINT ( 'NONE',  ( 8.889079910035215804, 2.603661963279229052, -10.43731124346013139 ) ) ;
#557 = CARTESIAN_POINT ( 'NONE',  ( -10.39230484541325872, 0.000000000000000000, -1.020353928239457364 ) ) ;
#558 = VERTEX_POINT ( 'NONE', #459 ) ;
#559 = DIRECTION ( 'NONE',  ( 0.8660254037844383745, 0.5000000000000006661, -0.000000000000000000 ) ) ;
#560 = CARTESIAN_POINT ( 'NONE',  ( 6.911209019339120019, -6.029434836776379925, -0.2939314220231025176 ) ) ;
#561 = DIRECTION ( 'NONE',  ( 0.000000000000000000, 1.000000000000000000, -0.000000000000000000 ) ) ;
#562 = CARTESIAN_POINT ( 'NONE',  ( -9.540778932479154761, -1.474886145163337492, -0.5735726936201840376 ) ) ;
#563 = CARTESIAN_POINT ( 'NONE',  ( -5.620368929830030780, -8.265235456252861823, -10.02456758634332346 ) ) ;
#564 = EDGE_CURVE ( 'NONE', #87, #68, #299, .T. ) ;
#565 = VERTEX_POINT ( 'NONE', #609 ) ;
#566 = DIRECTION ( 'NONE',  ( 1.000000000000000000, 0.000000000000000000, -0.000000000000000000 ) ) ;
#567 = LINE ( 'NONE', #466, #630 ) ;
#568 = VERTEX_POINT ( 'NONE', #462 ) ;
#569 = CARTESIAN_POINT ( 'NONE',  ( -5.620897734636929322, -8.264319539460021957, -0.7751271080592631035 ) ) ;
#570 = CARTESIAN_POINT ( 'NONE',  ( 8.232070842592099424, -3.741635049124163892, -0.2350172127956649815 ) ) ;
#571 = CARTESIAN_POINT ( 'NONE',  ( -5.599750704922564104, 0.000000000000000000, -10.80000000000000071 ) ) ;
#572 = CLOSED_SHELL ( 'NONE', ( #53, #437, #628, #293, #608, #352, #115, #320, #165, #36, #614, #500, #417, #425, #674, #374, #179, #40 ) ) ;
#573 = DIRECTION ( 'NONE',  ( -0.000000000000000000, -0.000000000000000000, -1.000000000000000000 ) ) ;
#574 = LOCAL_TIME ( 23, 5, 56.00000000000000000, #327 ) ;
#575 = DIRECTION ( 'NONE',  ( 1.669238443041287922E-16, -1.000000000000000000, 0.000000000000000000 ) ) ;
#576 = CARTESIAN_POINT ( 'NONE',  ( -5.620897734636927545, 8.264319539460029063, -10.02487289194073306 ) ) ;
#577 = PERSON ( '未指定', '未指定', '未指定', ('未指定'), ('未指定'), ('未指定') ) ;
#578 = CARTESIAN_POINT ( 'NONE',  ( 5.052999999999999936, 0.000000000000000000, -0.5467507049225790450 ) ) ;
#579 = CARTESIAN_POINT ( 'NONE',  ( 0.4406452846033370729, 9.000000000000001776, -0.2165494863097580658 ) ) ;
#580 = APPROVAL_ROLE ( '' ) ;
#581 = VECTOR ( 'NONE', #629, 999.9999999999998863 ) ;
#582 = CIRCLE ( 'NONE', #281, 5.052999999999999936 ) ;
#583 = AXIS2_PLACEMENT_3D ( 'NONE', #623, #410, #138 ) ;
#584 = APPLICATION_PROTOCOL_DEFINITION ( 'international standard', 'config_control_design', 1994, #601 ) ;
#585 = EDGE_LOOP ( 'NONE', ( #345, #461 ) ) ;
#586 =( NAMED_UNIT ( * ) PLANE_ANGLE_UNIT ( ) SI_UNIT ( $, .RADIAN. ) );
#587 = EDGE_CURVE ( 'NONE', #537, #106, #491, .T. ) ;
#588 = ORIENTED_EDGE ( 'NONE', *, *, #564, .T. ) ;
#589 = DATE_AND_TIME ( #271, #668 ) ;
#590 = CARTESIAN_POINT ( 'NONE',  ( 4.356225351405583979, 9.000000000000001776, -0.7778878678817919834 ) ) ;
#591 = B_SPLINE_CURVE_WITH_KNOTS ( 'NONE', 3,
 ( #213, #64, #343, #108, #280, #492, #435, #123, #553, #175, #398, #218 ),
 .UNSPECIFIED., .F., .F.,
 ( 4, 2, 2, 2, 2, 4 ),
 ( 0.009237305837724491681, 0.01186622850868854391, 0.01449515117965259614, 0.01580961251513462312, 0.01712407385061665011, 0.01975299652158069713 ),
 .UNSPECIFIED. ) ;
#592 = ORIENTED_EDGE ( 'NONE', *, *, #587, .F. ) ;
#593 = PERSON_AND_ORGANIZATION_ROLE ( 'creator' ) ;
#594 = CARTESIAN_POINT ( 'NONE',  ( -0.8767046892072390962, -8.999999999999998224, -0.2164203050678040474 ) ) ;
#595 = CARTESIAN_POINT ( 'NONE',  ( 6.917399206532726552, 6.018713118048683697, -0.3082847048765441911 ) ) ;
#596 = ORIENTED_EDGE ( 'NONE', *, *, #156, .F. ) ;
#597 = PERSON_AND_ORGANIZATION ( #577, #479 ) ;
#598 = CARTESIAN_POINT ( 'NONE',  ( 8.240960718619147585, 3.726237332172319228, -0.2170722872947751514 ) ) ;
#599 = EDGE_LOOP ( 'NONE', ( #224, #646, #209, #405 ) ) ;
#600 = CARTESIAN_POINT ( 'NONE',  ( 8.010147784811197269, 4.126017060571719242, -10.58377187387439378 ) ) ;
#601 = APPLICATION_CONTEXT ( 'configuration controlled 3d designs of mechanical parts and assemblies' ) ;
#602 = CARTESIAN_POINT ( 'NONE',  ( 5.620897734636931986, 8.264319539460023734, -0.7751271080592645468 ) ) ;
#603 = EDGE_CURVE ( 'NONE', #565, #551, #81, .T. ) ;
#604 = CC_DESIGN_APPROVAL ( #406, ( #201 ) ) ;
#605 = EDGE_LOOP ( 'NONE', ( #454, #532, #588, #220, #58, #450 ) ) ;
#606 = LINE ( 'NONE', #233, #489 ) ;
#607 = ORIENTED_EDGE ( 'NONE', *, *, #216, .F. ) ;
#608 = ADVANCED_FACE ( 'NONE', ( #669 ), #665, .F. ) ;
#609 = CARTESIAN_POINT ( 'NONE',  ( 8.625000000000001776, 1.165123372633856553E-15, 1.734723475976807094E-15 ) ) ;
#610 = EDGE_CURVE ( 'NONE', #106, #537, #323, .T. ) ;
#611 = DIRECTION ( 'NONE',  ( -0.000000000000000000, -0.000000000000000000, -1.000000000000000000 ) ) ;
#612 = CARTESIAN_POINT ( 'NONE',  ( -5.052999999999999936, 6.188140276091574996E-16, -9.853000000000013969 ) ) ;
#613 = CARTESIAN_POINT ( 'NONE',  ( -8.677248248780777828, 2.970565163223622296, -10.50606857797690097 ) ) ;
#614 = ADVANCED_FACE ( 'NONE', ( #350 ), #514, .T. ) ;
#615 = CARTESIAN_POINT ( 'NONE',  ( 9.540778932479172525, -1.474886145163331275, -10.22642730637980613 ) ) ;
#616 = VERTEX_POINT ( 'NONE', #196 ) ;
#617 = AXIS2_PLACEMENT_3D ( 'NONE', #409, #561, #80 ) ;
#618 = CARTESIAN_POINT ( 'NONE',  ( -8.240960718619135150, -3.726237332172319672, -0.2170722872947699611 ) ) ;
#619 = CONICAL_SURFACE ( 'NONE', #413, 5.599750704922564104, 0.5235987755982962621 ) ;
#620 = CARTESIAN_POINT ( 'NONE',  ( -8.010147784811197269, -4.126017060571700590, -10.58377187387439555 ) ) ;
#621 = ORIENTED_EDGE ( 'NONE', *, *, #440, .F. ) ;
#622 = B_SPLINE_CURVE_WITH_KNOTS ( 'NONE', 3,
 ( #56, #11, #70, #288, #594, #484, #15, #497, #649, #335, #116, #171 ),
 .UNSPECIFIED., .F., .F.,
 ( 4, 2, 2, 2, 2, 4 ),
 ( 0.009237305837724481272, 0.01186622850868853524, 0.01449515117965258747, 0.01580961251513461618, 0.01712407385061663970, 0.01975299652158069366 ),
 .UNSPECIFIED. ) ;
#623 = CARTESIAN_POINT ( 'NONE',  ( 0.000000000000000000, 0.000000000000000000, -10.80000000000000071 ) ) ;
#624 = CARTESIAN_POINT ( 'NONE',  ( -10.39230484541325872, 1.778478956182026666E-15, -10.80000000000000071 ) ) ;
#625 = FACE_OUTER_BOUND ( 'NONE', #157, .T. ) ;
#626 = CARTESIAN_POINT ( 'NONE',  ( 8.625000000000001776, 1.056257864264592428E-15, 1.734723475976807094E-15 ) ) ;
#627 = DIRECTION ( 'NONE',  ( 0.000000000000000000, 0.000000000000000000, 1.000000000000000000 ) ) ;
#628 = ADVANCED_FACE ( 'NONE', ( #662 ), #368, .T. ) ;
#629 = DIRECTION ( 'NONE',  ( 0.8660254037844415942, 0.000000000000000000, 0.4999999999999949485 ) ) ;
#630 = VECTOR ( 'NONE', #520, 1000.000000000000000 ) ;
#631 = APPROVAL_PERSON_ORGANIZATION ( #634, #471, #580 ) ;
#632 =( LENGTH_UNIT ( ) NAMED_UNIT ( * ) SI_UNIT ( .MILLI., .METRE. ) );
#633 = CARTESIAN_POINT ( 'NONE',  ( 3.505244785865569312, 9.000000000000000000, -0.5759361292448961223 ) ) ;
#634 = PERSON_AND_ORGANIZATION ( #577, #479 ) ;
#635 = CARTESIAN_POINT ( 'NONE',  ( -1.749343523779820941, -8.999999999999998224, -10.50815838292710680 ) ) ;
#636 = CONICAL_SURFACE ( 'NONE', #79, 8.625000000000001776, 1.047197551196603627 ) ;
#637 = VERTEX_POINT ( 'NONE', #571 ) ;
#638 = EDGE_CURVE ( 'NONE', #568, #4, #517, .T. ) ;
#639 = VERTEX_POINT ( 'NONE', #25 ) ;
#640 = APPROVAL_STATUS ( 'not_yet_approved' ) ;
#641 = CYLINDRICAL_SURFACE ( 'NONE', #260, 5.052999999999999936 ) ;
#642 = DIRECTION ( 'NONE',  ( -0.8660254037844415942, 1.060575238724910613E-16, 0.4999999999999949485 ) ) ;
#643 = ORIENTED_EDGE ( 'NONE', *, *, #683, .T. ) ;
#644 = COORDINATED_UNIVERSAL_TIME_OFFSET ( 8, 0, .AHEAD. ) ;
#645 = VECTOR ( 'NONE', #84, 1000.000000000000000 ) ;
#646 = ORIENTED_EDGE ( 'NONE', *, *, #364, .F. ) ;
#647 = ORIENTED_EDGE ( 'NONE', *, *, #421, .F. ) ;
#648 = PERSON_AND_ORGANIZATION ( #577, #479 ) ;
#649 = CARTESIAN_POINT ( 'NONE',  ( 2.203781362756336293, -8.999999999999996447, -0.3646136910354019212 ) ) ;
#650 = CARTESIAN_POINT ( 'NONE',  ( -9.967559533482960532, 0.7356804605399748231, -0.7751271080592632146 ) ) ;
#651 = ORIENTED_EDGE ( 'NONE', *, *, #677, .T. ) ;
#652 = CARTESIAN_POINT ( 'NONE',  ( 9.539263874255059505, 1.477510302983917168, -10.22723218510807008 ) ) ;
#653 = DIRECTION ( 'NONE',  ( 0.000000000000000000, -0.000000000000000000, 1.000000000000000000 ) ) ;
#654 = AXIS2_PLACEMENT_3D ( 'NONE', #276, #223, #219 ) ;
#655 = VECTOR ( 'NONE', #452, 999.9999999999998863 ) ;
#656 = ORIENTED_EDGE ( 'NONE', *, *, #610, .F. ) ;
#657 = CARTESIAN_POINT ( 'NONE',  ( -5.196152422706624918, -8.999999999999998224, -1.020353928239457364 ) ) ;
#658 = CARTESIAN_POINT ( 'NONE',  ( 9.540778932479165420, 1.474886145163335716, -0.5735726936201894777 ) ) ;
#659 = CC_DESIGN_PERSON_AND_ORGANIZATION_ASSIGNMENT ( #531, #593, ( #61 ) ) ;
#660 = ORIENTED_EDGE ( 'NONE', *, *, #421, .T. ) ;
#661 = EDGE_CURVE ( 'NONE', #558, #75, #351, .T. ) ;
#662 = FACE_OUTER_BOUND ( 'NONE', #1, .T. ) ;
#663 = PLANE ( 'NONE',  #152 ) ;
#664 = PLANE ( 'NONE',  #617 ) ;
#665 = CYLINDRICAL_SURFACE ( 'NONE', #583, 5.052999999999999936 ) ;
#666 = CARTESIAN_POINT ( 'NONE',  ( 6.047678335640742198, -7.525113854836660288, -0.5735726936201892556 ) ) ;
#667 = EDGE_LOOP ( 'NONE', ( #301, #341, #20, #31 ) ) ;
#668 = LOCAL_TIME ( 23, 5, 56.00000000000000000, #18 ) ;
#669 = FACE_OUTER_BOUND ( 'NONE', #383, .T. ) ;
#670 = DIRECTION ( 'NONE',  ( 0.4999999999999998890, -0.8660254037844385966, 0.000000000000000000 ) ) ;
#671 = CARTESIAN_POINT ( 'NONE',  ( -5.196152422706619589, 9.000000000000001776, -9.779646071760542014 ) ) ;
#672 = DIRECTION ( 'NONE',  ( -0.5000000000000005551, 0.8660254037844382635, 0.000000000000000000 ) ) ;
#673 = DIRECTION ( 'NONE',  ( 0.8660254037844387076, -0.4999999999999999445, 0.000000000000000000 ) ) ;
#674 = ADVANCED_FACE ( 'NONE', ( #50 ), #90, .T. ) ;
#675 = CARTESIAN_POINT ( 'NONE',  ( -8.625000000000001776, 0.000000000000000000, 1.734723475976807094E-15 ) ) ;
#676 = CARTESIAN_POINT ( 'NONE',  ( 0.000000000000000000, 0.000000000000000000, -9.853000000000013969 ) ) ;
#677 = EDGE_CURVE ( 'NONE', #75, #173, #148, .T. ) ;
#678 = EDGE_CURVE ( 'NONE', #159, #217, #282, .T. ) ;
#679 = CARTESIAN_POINT ( 'NONE',  ( -6.917399206532718559, 6.018713118048687249, -10.49171529512345380 ) ) ;
#680 = DIRECTION ( 'NONE',  ( 1.000000000000000000, 0.000000000000000000, 0.000000000000000000 ) ) ;
#681 = AXIS2_PLACEMENT_3D ( 'NONE', #242, #418, #362 ) ;
#682 = DIRECTION ( 'NONE',  ( 0.000000000000000000, 0.000000000000000000, 1.000000000000000000 ) ) ;
#683 = EDGE_CURVE ( 'NONE', #499, #126, #127, .T. ) ;
#684 = PERSON_AND_ORGANIZATION_ROLE ( 'design_owner' ) ;
#685 = DIRECTION ( 'NONE',  ( 1.000000000000000000, 0.000000000000000000, 0.000000000000000000 ) ) ;
ENDSEC;
END-ISO-10303-21;
